<svg width="320" height="320" viewBox="0 0 320 320" fill="none" xmlns="http://www.w3.org/2000/svg">
<g clip-path="url(#clip0)">
<path d="M11.1786 154.202C11.1786 154.202 4.04325 155.323 8.33893 170.918C12.6346 186.512 16.1853 194.525 16.1853 194.525C16.1853 194.525 16.7889 198.064 13.9261 198.006C11.0634 197.947 5.19013 195.729 3.26693 198.851C1.27205 202.089 3.13509 205.914 7.69381 209.871C12.2525 213.828 21.9223 222.863 22.7933 223.685C23.649 224.49 24.3172 226.217 22.3607 226.49C20.4042 226.762 6.45157 225.377 6.19045 232.037C5.92933 238.697 20.4433 247.635 22.0113 248.64C23.5793 249.645 23.8372 250.453 23.5063 251.359C23.1754 252.266 18.529 251.359 14.5463 251.126C10.5636 250.893 5.90053 251.325 6.07205 255.18C6.24357 259.035 13.9505 268.646 36.058 275.501L46.5066 278.008L54.0618 270.297C69.2247 252.81 70.7018 240.579 68.8119 237.214C66.922 233.849 62.737 235.942 59.4743 238.241C56.2116 240.54 52.7441 243.763 51.9863 243.169C51.2285 242.575 51.0212 241.754 51.8218 240.07C52.6225 238.387 60.2327 223.139 56.497 217.619C52.7613 212.1 41.6394 220.637 39.834 221.44C38.0285 222.243 37.6849 220.421 37.9869 219.286C38.2941 218.129 41.7399 205.35 43.5249 199.584C45.3098 193.818 44.8733 189.585 41.4705 187.887C38.1866 186.247 34.3703 191.232 31.9697 192.79C29.569 194.349 28.2141 191.026 28.2141 191.026C28.2141 191.026 27.002 182.346 22.4234 166.834C17.8449 151.322 11.0378 154.236 11.0378 154.236" fill="#EBEBEB"/>
<path d="M46.5438 280.595C43.2254 269.188 37.6696 248.816 32.8082 231.35C27.9467 213.885 23.5339 198.086 20.2744 186.664C18.6418 180.964 17.3189 176.347 16.3998 173.14C15.9467 171.554 15.5934 170.317 15.349 169.462C15.2357 169.052 15.1474 168.733 15.084 168.502C15.0264 168.286 15.0046 168.173 15.0046 168.173C15.0046 168.173 15.0482 168.28 15.1166 168.493C15.1877 168.719 15.2862 169.035 15.4136 169.443C15.6696 170.293 16.0453 171.524 16.5246 173.103C17.4846 176.282 18.8446 180.893 20.5016 186.597C23.8194 198.004 28.2699 213.797 33.1294 231.259C37.989 248.722 43.5109 269.107 46.7704 280.529" fill="#E0E0E0"/>
<path d="M11.3611 202.285C11.6042 202.377 11.8362 202.497 12.0529 202.641C12.4881 202.886 13.1064 203.259 13.8667 203.729C15.3848 204.669 17.4507 206.022 19.6996 207.555L25.4462 211.501L27.194 212.686C27.4193 212.816 27.6293 212.97 27.82 213.147C27.5762 213.056 27.3432 212.939 27.1256 212.797C26.691 212.549 26.0715 212.176 25.3163 211.699C23.8072 210.743 21.7617 209.364 19.5115 207.831L13.7387 203.927L11.9838 202.752C11.7593 202.62 11.5504 202.463 11.3611 202.285Z" fill="#E0E0E0"/>
<path d="M28.6775 212.621C28.5988 212.573 31.1998 208.195 34.4855 202.845C37.7713 197.494 40.5015 193.194 40.5783 193.242C40.6551 193.29 38.0567 197.667 34.7697 203.019C31.4826 208.372 28.7562 212.672 28.6775 212.621Z" fill="#E0E0E0"/>
<path d="M34.9321 239.775C35.098 239.568 35.286 239.38 35.4928 239.213L37.0928 237.764C38.4368 236.539 40.2928 234.84 42.2678 232.89C44.2428 230.939 45.9798 229.119 47.2214 227.789L48.6934 226.214C48.8623 226.009 49.0533 225.824 49.263 225.661C49.1295 225.891 48.9713 226.105 48.7913 226.301C48.4713 226.697 47.9964 227.261 47.3948 227.948C46.1948 229.322 44.486 231.176 42.4995 233.128C40.5129 235.08 38.6352 236.762 37.2464 237.943C36.5494 238.531 35.9798 239.001 35.5772 239.314C35.3795 239.491 35.1632 239.645 34.9321 239.775Z" fill="#E0E0E0"/>
<path d="M17.2112 233.873C17.4553 233.898 17.6957 233.952 17.9273 234.033L19.8429 234.589C21.4563 235.071 23.6771 235.76 26.1245 236.541C28.5718 237.322 30.7824 238.045 32.3766 238.589L34.2601 239.245C34.496 239.313 34.723 239.408 34.9366 239.529C34.6923 239.505 34.4519 239.451 34.2205 239.369L32.3049 238.814C30.6921 238.331 28.4707 237.642 26.0227 236.862C23.5747 236.082 21.3661 235.357 19.7712 234.814L17.8883 234.158C17.6521 234.09 17.4248 233.995 17.2112 233.873Z" fill="#E0E0E0"/>
<path d="M19.6907 258.547C20.0015 258.59 20.3076 258.662 20.6052 258.761L23.0628 259.465C25.1332 260.072 27.987 260.932 31.1326 261.903C34.2782 262.873 37.1224 263.77 39.1755 264.434L41.6011 265.238C41.903 265.323 42.1963 265.437 42.4772 265.576C42.1663 265.534 41.8601 265.462 41.5627 265.362L39.1057 264.658C37.0353 264.052 34.1809 263.191 31.034 262.221C27.8872 261.251 25.0462 260.354 22.9931 259.69L20.5668 258.886C20.2649 258.8 19.9716 258.687 19.6907 258.547Z" fill="#E0E0E0"/>
<path d="M41.9766 265.253C42.1856 264.99 42.4173 264.746 42.669 264.523L44.6281 262.613C46.2806 260.999 48.5538 258.76 50.9942 256.218C53.4345 253.676 55.59 251.322 57.1382 249.606L58.9705 247.574C59.184 247.313 59.4195 247.072 59.6745 246.852C59.4973 247.138 59.2955 247.408 59.0716 247.658C58.6671 248.162 58.0706 248.883 57.318 249.761C55.8159 251.52 53.6879 253.906 51.238 256.449C48.7881 258.993 46.4905 261.212 44.7945 262.785C43.9446 263.57 43.2508 264.197 42.7612 264.62C42.5182 264.853 42.2557 265.065 41.9766 265.253Z" fill="#E0E0E0"/>
<path d="M158.244 132.881C157.867 132.873 157.496 132.782 157.156 132.616C157.512 132.49 157.892 132.443 158.268 132.479C158.876 132.472 159.364 132.591 159.356 132.743C159.347 132.895 158.848 132.957 158.244 132.881Z" fill="#E0E0E0"/>
<path d="M157.184 134.992C156.771 134.544 156.473 134.141 156.52 134.09C156.568 134.04 156.989 134.313 157.46 134.7C157.93 135.086 158.228 135.49 158.124 135.601C158.019 135.713 157.597 135.438 157.184 134.992Z" fill="#E0E0E0"/>
<path d="M155.014 135.93C154.957 135.556 154.982 135.175 155.086 134.812C155.271 135.142 155.383 135.507 155.414 135.883C155.525 136.481 155.493 136.982 155.341 137C155.189 137.018 155.043 136.537 155.014 135.93Z" fill="#E0E0E0"/>
<path d="M152.748 135.253C153.117 134.769 153.464 134.405 153.522 134.444C153.452 134.814 153.302 135.166 153.084 135.474C152.785 136.004 152.438 136.37 152.311 136.284C152.184 136.197 152.38 135.737 152.748 135.253Z" fill="#E0E0E0"/>
<path d="M151.448 133.281C151.805 133.161 152.185 133.118 152.561 133.156C152.269 133.396 151.929 133.571 151.563 133.668C150.995 133.884 150.495 133.94 150.451 133.796C150.406 133.653 150.854 133.416 151.448 133.281Z" fill="#E0E0E0"/>
<path d="M151.719 130.932C152.26 131.21 152.679 131.488 152.652 131.551C152.274 131.547 151.902 131.462 151.56 131.301C150.984 131.099 150.568 130.821 150.628 130.681C150.688 130.541 151.178 130.653 151.719 130.932Z" fill="#E0E0E0"/>
<path d="M153.435 129.307C153.618 129.638 153.727 130.004 153.755 130.381C153.691 130.412 153.391 130.011 153.08 129.485C152.769 128.959 152.626 128.48 152.76 128.411C152.893 128.342 153.199 128.746 153.435 129.307Z" fill="#E0E0E0"/>
<path d="M155.796 129.165C155.721 129.534 155.569 129.883 155.348 130.189C155.286 129.816 155.305 129.435 155.404 129.071C155.501 128.47 155.701 128.009 155.852 128.047C156.002 128.084 155.975 128.584 155.796 129.165Z" fill="#E0E0E0"/>
<path d="M157.696 130.573C157.402 130.809 157.06 130.98 156.694 131.073C156.653 131.017 156.995 130.648 157.455 130.251C157.916 129.853 158.365 129.629 158.458 129.752C158.55 129.874 158.208 130.24 157.696 130.573Z" fill="#E0E0E0"/>
<path d="M190.994 66.0519C189.54 65.8682 188.365 65.5834 188.374 65.4157C188.383 65.248 189.584 65.1002 191.05 65.0848C192.516 65.0695 193.691 65.3543 193.67 65.721C193.65 66.0877 192.448 66.2349 190.994 66.0519Z" fill="#E0E0E0"/>
<path d="M188.442 71.1366C187.447 70.0608 186.729 69.0886 186.842 68.9645C186.955 68.8403 187.972 69.5027 189.104 70.4326C190.237 71.3626 190.954 72.3366 190.704 72.6042C190.455 72.8717 189.437 72.2112 188.442 71.1366Z" fill="#E0E0E0"/>
<path d="M183.214 73.3952C183.145 71.9315 183.223 70.7238 183.389 70.704C183.554 70.6841 183.908 71.8432 184.176 73.2838C184.445 74.7245 184.368 75.9309 184.002 75.9718C183.635 76.0128 183.283 74.8582 183.214 73.3952Z" fill="#E0E0E0"/>
<path d="M177.759 71.7658C178.646 70.5997 179.481 69.7248 179.621 69.8157C179.76 69.9066 179.286 71.0215 178.567 72.2982C177.847 73.575 177.012 74.4493 176.704 74.2477C176.397 74.0461 176.871 72.9312 177.759 71.7658Z" fill="#E0E0E0"/>
<path d="M174.626 67.0169C176.056 66.6931 177.258 66.558 177.306 66.7168C177.354 66.8755 176.276 67.4259 174.905 67.9436C173.534 68.4614 172.332 68.5964 172.225 68.2432C172.118 67.8899 173.198 67.3401 174.626 67.0169Z" fill="#E0E0E0"/>
<path d="M175.279 61.3593C176.582 62.0301 177.59 62.6995 177.526 62.8518C177.461 63.0041 176.28 62.7315 174.897 62.247C173.514 61.7625 172.507 61.095 172.652 60.7545C172.797 60.4141 173.977 60.6893 175.279 61.3593Z" fill="#E0E0E0"/>
<path d="M179.413 57.4457C179.983 58.7961 180.326 59.9564 180.181 60.0313C180.036 60.1062 179.302 59.1411 178.552 57.8816C177.803 56.622 177.459 55.463 177.784 55.2966C178.109 55.1302 178.844 56.096 179.413 57.4457Z" fill="#E0E0E0"/>
<path d="M185.098 57.1033C184.666 58.5037 184.184 59.6134 184.022 59.5763C183.86 59.5392 183.921 58.3296 184.155 56.8825C184.39 55.4355 184.872 54.327 185.231 54.4102C185.591 54.4934 185.53 55.7037 185.098 57.1033Z" fill="#E0E0E0"/>
<path d="M189.671 60.4941C188.441 61.2902 187.358 61.831 187.257 61.6979C187.157 61.5648 187.981 60.6739 189.091 59.7203C190.201 58.7667 191.283 58.2233 191.504 58.5171C191.725 58.8109 190.9 59.6986 189.671 60.4941Z" fill="#E0E0E0"/>
<path d="M284.017 134.016C283.421 134.003 282.835 133.861 282.3 133.599C282.861 133.401 283.459 133.327 284.053 133.382C285.013 133.373 285.781 133.559 285.77 133.799C285.759 134.039 284.968 134.134 284.017 134.016Z" fill="#E0E0E0"/>
<path d="M282.344 137.344C281.692 136.64 281.222 136 281.297 135.921C281.372 135.843 282.037 136.273 282.779 136.881C283.521 137.489 283.991 138.129 283.826 138.304C283.661 138.479 282.996 138.048 282.344 137.344Z" fill="#E0E0E0"/>
<path d="M278.919 138.825C278.83 138.236 278.869 137.634 279.034 137.062C279.325 137.582 279.501 138.158 279.549 138.752C279.725 139.695 279.677 140.486 279.436 140.515C279.194 140.543 278.965 139.784 278.919 138.825Z" fill="#E0E0E0"/>
<path d="M275.345 137.757C275.926 136.994 276.474 136.42 276.565 136.477C276.454 137.063 276.219 137.618 275.875 138.104C275.404 138.94 274.856 139.512 274.655 139.384C274.453 139.256 274.764 138.521 275.345 137.757Z" fill="#E0E0E0"/>
<path d="M273.293 134.646C273.857 134.456 274.456 134.389 275.049 134.45C274.588 134.827 274.051 135.101 273.475 135.253C272.579 135.592 271.79 135.681 271.72 135.45C271.649 135.218 272.357 134.858 273.293 134.646Z" fill="#E0E0E0"/>
<path d="M273.721 130.94C274.574 131.379 275.235 131.818 275.193 131.917C274.597 131.91 274.01 131.775 273.471 131.521C272.566 131.201 271.905 130.765 271.999 130.544C272.093 130.323 272.868 130.501 273.721 130.94Z" fill="#E0E0E0"/>
<path d="M276.429 128.376C276.716 128.898 276.887 129.476 276.93 130.07C276.833 130.119 276.354 129.487 275.864 128.662C275.374 127.837 275.148 127.077 275.363 126.968C275.578 126.858 276.056 127.492 276.429 128.376Z" fill="#E0E0E0"/>
<path d="M280.153 128.152C280.037 128.736 279.797 129.288 279.449 129.772C279.351 129.184 279.381 128.582 279.537 128.007C279.69 127.06 280.006 126.333 280.241 126.387C280.475 126.442 280.436 127.232 280.153 128.152Z" fill="#E0E0E0"/>
<path d="M283.149 130.373C282.685 130.746 282.146 131.015 281.568 131.162C281.504 131.074 282.042 130.493 282.769 129.866C283.496 129.238 284.205 128.885 284.35 129.078C284.495 129.27 283.954 129.852 283.149 130.373Z" fill="#E0E0E0"/>
<path d="M382.32 64.4115C376.156 38.6783 361.278 15.8708 340.21 -0.139347C325.366 -11.3916 305.763 -20.6285 283.446 -17.1919C233.627 -9.52318 180.697 59.004 125.15 48.2863C69.6028 37.5687 24.9269 81.2971 32.271 150.334C39.6151 219.371 161.622 273.172 269.845 243.291C362.83 217.617 399.469 135.511 382.32 64.4115Z" fill="#EBEBEB"/>
<path d="M296.484 280.595C296.484 280.687 235.373 280.762 160.006 280.762C84.6143 280.762 23.5154 280.687 23.5154 280.595C23.5154 280.503 84.613 280.429 160.006 280.429C235.373 280.429 296.484 280.503 296.484 280.595Z" fill="#263238"/>
<path d="M295.814 278.826C288.809 274.536 286.758 265.911 286.55 258.059C286.515 256.748 286.288 255.378 286.84 254.192C287.392 253.007 288.798 252.135 290.002 252.616C291.001 253.015 291.492 254.119 292.093 255.021C292.894 256.223 294.019 257.174 295.337 257.765C296.196 258.147 297.243 258.349 298.038 257.846C299.129 257.156 299.168 255.589 299.081 254.288C298.92 251.864 298.758 249.441 298.597 247.018C298.51 245.717 298.426 244.389 298.756 243.13C299.086 241.871 299.911 240.67 301.128 240.249C302.344 239.827 303.918 240.448 304.256 241.706C304.397 242.229 304.322 242.786 304.391 243.324C304.459 243.861 304.747 244.444 305.269 244.563C305.798 244.685 306.296 244.284 306.663 243.88C307.926 242.486 308.735 240.739 309.485 239.004C310.235 237.27 310.958 235.498 312.09 233.991C313.222 232.485 314.838 231.248 316.695 231.029C318.552 230.81 320.606 231.842 321.187 233.643C321.77 235.449 320.812 237.374 319.738 238.929C318.144 241.235 316.224 243.299 314.04 245.057C313.647 245.372 313.222 245.714 313.094 246.205C312.864 247.089 313.737 247.901 314.611 248.135C315.6 248.399 316.646 248.235 317.668 248.293C318.689 248.351 319.815 248.732 320.257 249.668C320.87 250.965 319.842 252.427 318.803 253.405C316.721 255.366 314.318 256.954 311.697 258.099C310.761 258.506 309.773 258.875 309.042 259.594C308.31 260.313 307.915 261.511 308.437 262.398C308.958 263.286 310.173 263.508 311.164 263.262C312.156 263.015 313.02 262.417 313.952 261.999C315.699 261.217 318.015 261.2 319.254 262.676C320.067 263.647 320.219 265.058 319.912 266.29C319.604 267.523 318.895 268.614 318.134 269.624C315.471 273.159 311.966 276.087 307.906 277.775C303.845 279.463 300.026 280.085 295.814 278.826" fill="#F5F5F5"/>
<path d="M297.54 273.793C298.583 269.446 299.875 265.162 301.41 260.963L302.597 257.653C302.989 256.567 303.378 255.49 303.823 254.461C304.682 252.485 305.65 250.559 306.722 248.691C307.732 246.9 308.756 245.238 309.726 243.69C310.695 242.143 311.632 240.72 312.539 239.459C313.959 237.461 315.536 235.579 317.255 233.83C317.862 233.211 318.348 232.747 318.682 232.436L319.064 232.086C319.106 232.044 319.151 232.006 319.2 231.972C319.164 232.02 319.125 232.064 319.081 232.104L318.715 232.471C318.393 232.793 317.917 233.268 317.321 233.894C315.634 235.664 314.081 237.557 312.676 239.558C311.781 240.822 310.857 242.248 309.893 243.796C308.93 245.344 307.916 247.011 306.913 248.8C305.851 250.664 304.891 252.585 304.038 254.554C303.596 255.578 303.212 256.645 302.82 257.735C302.428 258.824 302.036 259.927 301.634 261.044C300.103 265.234 298.808 269.507 297.754 273.842" fill="#E0E0E0"/>
<path d="M303.892 254.446C303.819 254.27 303.765 254.087 303.731 253.899C303.641 253.544 303.528 253.026 303.397 252.383C303.136 251.099 302.834 249.313 302.509 247.343C302.184 245.373 301.858 243.597 301.577 242.319C301.439 241.68 301.321 241.164 301.235 240.809C301.179 240.626 301.144 240.438 301.129 240.248C301.213 240.419 301.279 240.599 301.325 240.784C301.439 241.132 301.582 241.644 301.741 242.279C302.066 243.551 302.42 245.329 302.745 247.304C303.061 249.25 303.346 251.008 303.564 252.352C303.666 252.959 303.753 253.47 303.823 253.881C303.866 254.066 303.89 254.256 303.892 254.446Z" fill="#E0E0E0"/>
<path d="M320.428 250.311C320.212 250.372 319.99 250.412 319.766 250.431C319.339 250.495 318.72 250.585 317.961 250.72C316.439 250.978 314.349 251.407 312.065 251.982C309.782 252.557 307.735 253.173 306.269 253.659C305.534 253.897 304.944 254.105 304.536 254.247C304.328 254.333 304.113 254.4 303.893 254.446C304.086 254.331 304.291 254.235 304.502 254.158C304.902 253.99 305.484 253.756 306.216 253.497C307.672 252.968 309.717 252.328 312.009 251.747C313.963 251.247 315.942 250.848 317.937 250.55C318.703 250.437 319.327 250.373 319.758 250.338C319.98 250.308 320.204 250.299 320.428 250.311Z" fill="#E0E0E0"/>
<path d="M297.728 273.472C297.676 273.412 297.634 273.346 297.601 273.275C297.514 273.116 297.407 272.922 297.278 272.687C297 272.175 296.618 271.424 296.157 270.491C295.234 268.623 294.041 266.003 292.764 263.095C291.486 260.187 290.318 257.559 289.436 255.675C289.004 254.759 288.648 254.006 288.384 253.446C288.271 253.203 288.178 253.003 288.102 252.838C288.063 252.769 288.035 252.695 288.018 252.618C288.069 252.678 288.111 252.745 288.145 252.816L288.467 253.403C288.745 253.915 289.128 254.666 289.588 255.6C290.511 257.467 291.704 260.087 292.982 262.996C294.26 265.906 295.427 268.532 296.309 270.416C296.742 271.331 297.097 272.085 297.361 272.644C297.474 272.887 297.567 273.088 297.644 273.252C297.682 273.321 297.71 273.395 297.728 273.472Z" fill="#E0E0E0"/>
<path d="M319.521 264.968C319.454 265.012 319.382 265.047 319.306 265.072L318.673 265.327C318.089 265.556 317.3 265.866 316.34 266.242C314.37 267.015 311.661 268.114 308.669 269.332C305.677 270.55 302.955 271.626 300.968 272.358C299.975 272.725 299.168 273.013 298.607 273.2C298.346 273.286 298.133 273.356 297.959 273.413C297.885 273.443 297.807 273.462 297.727 273.471C297.794 273.427 297.866 273.392 297.942 273.366L298.574 273.112L300.908 272.197C302.878 271.424 305.587 270.325 308.579 269.106C311.572 267.887 314.292 266.812 316.279 266.08C317.272 265.714 318.08 265.426 318.641 265.238L319.288 265.026C319.363 264.996 319.441 264.976 319.521 264.968Z" fill="#E0E0E0"/>
<path d="M32.0798 76.8186C33.9953 83.6061 37.1239 94.5528 38.5629 99.5823C38.7673 100.294 39.2453 100.895 39.8921 101.255C40.5389 101.614 41.3019 101.703 42.014 101.502L60.5441 96.2525C60.8977 96.1524 61.228 95.9836 61.5163 95.7558C61.8046 95.528 62.0452 95.2456 62.2244 94.9248C62.4035 94.604 62.5178 94.251 62.5605 93.8861C62.6032 93.5211 62.5737 93.1513 62.4735 92.7978L56.0788 70.2244C55.8565 69.4395 55.4818 68.7061 54.976 68.066C54.4703 67.4259 53.8434 66.8918 53.1312 66.494C52.419 66.0962 51.6354 65.8427 50.8252 65.7478C50.015 65.6529 49.194 65.7185 48.4091 65.9409L47.4685 62.6206L35.3341 66.0578L36.2226 69.1976L36.1787 69.2114C34.6415 69.699 33.3543 70.7655 32.5893 72.1852C31.8244 73.605 31.6416 75.2666 32.0798 76.8186Z" fill="#F5F5F5"/>
<path d="M35.4545 66.4808L35.8824 67.9907L48.1391 64.9872L47.5895 63.0464L35.4545 66.4808Z" fill="#E0E0E0"/>
<path d="M34.4608 61.3034L45.7709 58.0995C46.0113 58.0314 46.2627 58.0113 46.5109 58.0404C46.759 58.0695 46.999 58.1472 47.2171 58.269C47.4352 58.3908 47.6272 58.5544 47.7821 58.7504C47.937 58.9464 48.0518 59.1711 48.1199 59.4114L48.9731 62.4232C49.0618 62.7366 49.0225 63.0723 48.8637 63.3566C48.7049 63.6409 48.4397 63.8505 48.1264 63.9393L35.5181 67.5109C35.2048 67.5997 34.869 67.5604 34.5847 67.4016C34.3004 67.2428 34.0908 66.9776 34.0021 66.6642L33.1489 63.6524C33.0114 63.167 33.0723 62.6467 33.3184 62.2062C33.5644 61.7657 33.9754 61.441 34.4608 61.3034V61.3034Z" fill="#EBEBEB"/>
<path d="M36.2587 67.3263C35.8197 66.3801 35.4817 65.3902 35.2504 64.3731C34.9135 63.3858 34.6821 62.3656 34.5601 61.3295C34.9994 62.2756 35.3374 63.2655 35.5684 64.2828C35.9053 65.2701 36.1367 66.2903 36.2587 67.3263Z" fill="#E0E0E0"/>
<path d="M37.8572 66.8719C37.4178 65.9259 37.0797 64.9361 36.8485 63.919C36.5135 62.9322 36.2832 61.9128 36.1615 60.8777C36.601 61.8239 36.9392 62.8139 37.1706 63.8311C37.5054 64.8179 37.7356 65.8371 37.8572 66.8719Z" fill="#E0E0E0"/>
<path d="M39.4572 66.4201C39.0178 65.4741 38.6797 64.4843 38.4484 63.4672C38.1118 62.4797 37.8806 61.4594 37.7586 60.4233C38.1978 61.3696 38.5358 62.3597 38.7673 63.377C39.1037 64.3643 39.3349 65.3843 39.4572 66.4201Z" fill="#E0E0E0"/>
<path d="M41.0563 65.967C40.6169 65.021 40.2788 64.0312 40.0476 63.0141C39.7109 62.0266 39.4797 61.0063 39.3577 59.9702C39.797 60.9165 40.1351 61.9066 40.3664 62.924C40.7033 63.9111 40.9346 64.9311 41.0563 65.967Z" fill="#E0E0E0"/>
<path d="M42.6538 65.5126C42.2145 64.5663 41.8764 63.5763 41.6451 62.5589C41.3084 61.5717 41.0771 60.5517 40.9551 59.5159C41.3944 60.4619 41.7326 61.4517 41.9639 62.4687C42.3003 63.4563 42.5316 64.4766 42.6538 65.5126Z" fill="#E0E0E0"/>
<path d="M44.2548 65.0612C43.8153 64.1152 43.4772 63.1254 43.2461 62.1083C42.9095 61.1209 42.6781 60.1007 42.5557 59.0647C42.9954 60.0106 43.3335 61.0005 43.5645 62.0176C43.9006 63.0052 44.132 64.0253 44.2548 65.0612Z" fill="#E0E0E0"/>
<path d="M45.8539 64.6083C45.4145 63.6623 45.0764 62.6725 44.8452 61.6554C44.5086 60.6679 44.2773 59.6476 44.1553 58.6115C44.5943 59.5578 44.9322 60.5476 45.1636 61.5647C45.5002 62.5521 45.7316 63.5723 45.8539 64.6083Z" fill="#E0E0E0"/>
<path d="M47.4526 64.1552C47.0135 63.209 46.6756 62.2191 46.4443 61.202C46.1074 60.2147 45.876 59.1945 45.754 58.1584C46.1934 59.1047 46.5314 60.0948 46.7626 61.1122C47.0993 62.0993 47.3306 63.1194 47.4526 64.1552Z" fill="#E0E0E0"/>
<path d="M52.8743 74.4592L37.3025 78.8704C36.8015 79.0123 36.5103 79.5336 36.6523 80.0347L39.3961 89.7204C39.538 90.2215 40.0593 90.5126 40.5604 90.3707L56.1321 85.9595C56.6332 85.8176 56.9243 85.2963 56.7824 84.7952L54.0386 75.1095C53.8966 74.6084 53.3754 74.3172 52.8743 74.4592Z" fill="#EBEBEB"/>
<path d="M55.6515 85.2433C55.6247 85.1817 55.6027 85.1182 55.5857 85.0533L55.4186 84.5225C55.2712 84.0312 55.069 83.3598 54.8149 82.5134C54.3011 80.7623 53.5784 78.2945 52.6982 75.295L52.8604 75.3861L37.6307 79.7355C37.6045 79.7797 37.8455 79.3491 37.7438 79.5331L37.7469 79.5371L37.7492 79.5474L37.7556 79.5682L37.7674 79.6096L37.7905 79.6929L37.8376 79.8587L37.9305 80.1883L38.1162 80.8475C38.24 81.287 38.363 81.722 38.4852 82.1525C38.729 83.0167 38.9689 83.8668 39.2048 84.7029L40.5571 89.5119L40.3695 89.4075L51.3258 86.3814L54.49 85.5277L55.3423 85.3052C55.4436 85.2756 55.5467 85.2527 55.651 85.2364C55.5659 85.2764 55.477 85.3079 55.3857 85.3304L54.5725 85.5798L51.464 86.5029L40.4502 89.7015L40.3045 89.7437L40.2621 89.5966L38.893 84.7949L38.1682 82.2461C38.0459 81.8141 37.9223 81.379 37.7974 80.9409L37.6117 80.2817L37.5189 79.9521L37.4717 79.7863L37.4482 79.7025L37.4364 79.661L37.4304 79.6407L37.4278 79.63L37.4247 79.6259C37.323 79.8067 37.5632 79.3752 37.5397 79.4197L52.788 75.1354L52.9161 75.0996L52.9507 75.2261C53.7847 78.274 54.4701 80.7808 54.9565 82.561C55.1804 83.4025 55.3585 84.0707 55.4873 84.5588L55.6183 85.0748C55.6361 85.1294 55.6473 85.186 55.6515 85.2433Z" fill="#E0E0E0"/>
<path d="M51.3812 79.1593C49.7048 79.8056 47.9905 80.3487 46.2478 80.7855C44.535 81.3279 42.7905 81.7646 41.0242 82.093C44.413 80.9035 47.8719 79.9237 51.3812 79.1593Z" fill="#E0E0E0"/>
<path d="M51.8793 80.9197C50.2033 81.5665 48.4891 82.1095 46.7464 82.5456C45.0335 83.0879 43.289 83.5248 41.5227 83.854C44.9115 82.6647 48.3703 81.6848 51.8793 80.9197Z" fill="#E0E0E0"/>
<path d="M52.3589 82.6114C50.683 83.2582 48.9688 83.8012 47.226 84.2373C45.5131 84.7799 43.7685 85.2167 42.002 85.5452C45.3908 84.3556 48.8497 83.3759 52.3589 82.6114Z" fill="#E0E0E0"/>
<path d="M47.6871 66.0335C45.8527 66.7246 43.9808 67.3121 42.0805 67.7932C40.2099 68.3806 38.3078 68.8621 36.3831 69.2354C40.088 67.9568 43.862 66.8878 47.6871 66.0335Z" fill="#E0E0E0"/>
<path d="M39.1927 97.9905C39.0445 97.6501 38.9235 97.2985 38.8308 96.939L37.9649 94.0375C37.2467 91.584 36.2775 88.1878 35.2257 84.4348L33.7558 79.1355C33.2763 77.6934 33.1014 76.1673 33.2422 74.654C33.3747 73.6255 33.8309 72.6657 34.5446 71.9134C34.7433 71.718 34.9652 71.5475 35.2052 71.4059C35.2868 71.3528 35.3762 71.3128 35.4702 71.2874C35.1746 71.5039 34.897 71.744 34.6401 72.0053C33.9899 72.762 33.5842 73.6979 33.4765 74.6897C33.3742 76.1697 33.5703 77.6552 34.0531 79.0579C34.5135 80.6896 35.0182 82.4749 35.5475 84.3496C36.5994 88.1048 37.5339 91.5101 38.1947 93.9797C38.5077 95.1762 38.7655 96.1641 38.9603 96.9093C39.0655 97.2632 39.1432 97.6246 39.1927 97.9905Z" fill="white"/>
<path d="M62.148 94.8674C61.8456 94.8881 61.5419 94.8798 61.2411 94.8424C60.9529 94.8232 60.597 94.7984 60.1847 94.796C59.7723 94.7937 59.3037 94.7608 58.7856 94.7827C57.5726 94.7959 56.3615 94.8808 55.1585 95.0369C52.2094 95.4192 49.3327 96.2342 46.6213 97.4555C45.5155 97.9542 44.4399 98.5173 43.4 99.1419C42.9473 99.396 42.5636 99.6658 42.2177 99.8899C41.8718 100.114 41.5797 100.312 41.3419 100.482C41.1052 100.671 40.8512 100.837 40.5833 100.977C40.7909 100.757 41.0193 100.556 41.2652 100.379C41.4893 100.192 41.77 99.9708 42.1118 99.7363C42.4536 99.5018 42.8313 99.2116 43.2777 98.9441C44.3091 98.2851 45.3835 97.696 46.4936 97.1807C49.2211 95.9132 52.133 95.088 55.1199 94.7362C56.3362 94.5923 57.5607 94.5303 58.7853 94.5504C59.308 94.5441 59.7777 94.5898 60.1953 94.6115C60.6128 94.6331 60.9644 94.6733 61.2538 94.7148C61.5561 94.7366 61.8555 94.7877 62.148 94.8674Z" fill="white"/>
<path d="M313.263 59.9621C312.572 54.3944 307.862 49.2018 302.251 49.1986C298.936 49.1986 295.786 50.9288 293.521 53.349C292.718 54.1667 291.978 55.0442 291.308 55.9739C290.833 54.9305 290.281 53.9244 289.655 52.9643C287.91 50.1461 285.162 47.8277 281.912 47.1778C276.41 46.0765 270.77 50.2402 268.997 55.5637C267.224 60.8873 268.7 66.8633 271.616 71.6572C274.532 76.451 279.554 82.717 288.805 85.8264C295.183 85.0093 303.725 79.3519 307.527 75.2263C311.33 71.1008 313.954 65.5305 313.263 59.9621Z" fill="#D7D7D7"/>
<path d="M311.241 69.9613C311.179 69.9702 311.117 69.9702 311.055 69.9613L310.514 69.9263L308.437 69.7559L300.807 69.0564L300.944 68.9718L297.765 77.2611L297.574 77.7609L297.447 77.2395C296.478 73.2176 295.393 68.7105 294.249 63.9611C293.897 62.491 293.549 61.0444 293.213 59.6314L293.536 59.695C291.462 62.5469 289.499 65.245 287.711 67.7071L287.655 67.784L287.562 67.7745L274.154 66.3755L270.358 65.952L269.355 65.8249C269.239 65.8154 269.123 65.7941 269.011 65.7613C269.128 65.752 269.245 65.7546 269.361 65.7689L270.368 65.844L274.173 66.1752L287.594 67.4425L287.445 67.51L293.243 59.482L293.474 59.1641L293.566 59.5456C293.905 60.9579 294.252 62.407 294.604 63.8746L297.772 77.1657L297.454 77.1441L300.697 68.8777L300.734 68.7823L300.834 68.7931L308.454 69.6122L310.524 69.8532L311.061 69.9256C311.122 69.9295 311.183 69.9415 311.241 69.9613Z" fill="#FAFAFA"/>
<path d="M175.198 94.73H171V113.545H175.198V94.73Z" fill="#D7D7D7"/>
<path d="M163.692 102.039V106.238H182.507V102.039H163.692Z" fill="#D7D7D7"/>
<path d="M188.726 104.183C188.708 104.099 188.698 104.014 188.696 103.929C188.682 103.746 188.664 103.499 188.642 103.185C188.631 103.02 188.619 102.837 188.606 102.638C188.584 102.437 188.542 102.22 188.504 101.983C188.432 101.438 188.321 100.899 188.172 100.369C187.803 98.9071 187.216 97.5094 186.429 96.2231C184.573 93.1185 181.692 90.7584 178.283 89.5491C174.874 88.3398 171.15 88.357 167.752 89.5979C166.34 90.0924 165.015 90.8061 163.825 91.7128C162.557 92.624 161.448 93.7379 160.543 95.0098C159.579 96.3067 158.83 97.7507 158.325 99.2861C157.259 102.463 157.259 105.902 158.325 109.079C158.83 110.614 159.579 112.059 160.543 113.356C161.01 113.99 161.518 114.591 162.064 115.156C162.618 115.694 163.206 116.194 163.825 116.654C165.015 117.561 166.341 118.275 167.754 118.769C171.152 120.002 174.874 120.016 178.281 118.807C181.688 117.598 184.569 115.243 186.431 112.144C187.218 110.857 187.805 109.459 188.174 107.996C188.323 107.467 188.434 106.927 188.506 106.382C188.542 106.145 188.586 105.928 188.608 105.728C188.621 105.528 188.632 105.345 188.643 105.18C188.666 104.867 188.684 104.62 188.698 104.437C188.7 104.351 188.71 104.266 188.727 104.182C188.736 104.267 188.738 104.352 188.731 104.437C188.726 104.621 188.719 104.868 188.71 105.184L188.69 105.735C188.673 105.937 188.635 106.156 188.603 106.395C188.543 106.945 188.441 107.491 188.299 108.027C187.949 109.51 187.373 110.93 186.59 112.238C185.452 114.168 183.915 115.834 182.083 117.124C180.251 118.415 178.165 119.301 175.964 119.723C173.183 120.247 170.312 120.017 167.649 119.056C166.207 118.555 164.853 117.83 163.637 116.908C163.004 116.44 162.403 115.93 161.837 115.381C161.278 114.806 160.759 114.193 160.282 113.547C159.296 112.223 158.53 110.749 158.013 109.181C156.922 105.936 156.922 102.424 158.013 99.1793C158.53 97.612 159.296 96.1384 160.283 94.8152C161.208 93.5188 162.342 92.384 163.637 91.4565C164.853 90.5343 166.207 89.8094 167.649 89.3085C170.311 88.3475 173.182 88.1171 175.963 88.6415C178.164 89.0631 180.25 89.9486 182.082 91.2391C183.914 92.5296 185.451 94.1954 186.589 96.1258C187.372 97.4333 187.948 98.8535 188.298 100.337C188.44 100.872 188.542 101.418 188.602 101.969C188.634 102.208 188.673 102.427 188.689 102.629L188.71 103.18C188.719 103.498 188.726 103.743 188.731 103.927C188.737 104.013 188.735 104.098 188.726 104.183Z" fill="#D7D7D7"/>
<path d="M277.788 210.233C277.788 210.233 296.398 205.797 297.011 205.014L281.707 165.597C280.222 161.548 277.848 157.882 274.759 154.872C271.671 151.861 267.946 149.582 263.859 148.201C258.054 146.18 251.929 145.234 245.784 145.41L219.948 144.039C212.835 144.479 205.893 146.401 199.566 149.681C190.877 154.206 184.089 161.686 180.426 170.772L168.844 199.715L198.066 205.826L199.177 236.92L194.775 279.822H275.468L274.907 211.819L277.788 210.233Z" fill="#16B3AC"/>
<g opacity="0.3">
<g opacity="0.3">
<path opacity="0.3" d="M293.828 199.865C293.855 199.953 289.027 201.527 283.046 203.382C277.065 205.237 272.192 206.669 272.165 206.582C272.138 206.495 276.964 204.921 282.948 203.065C288.932 201.21 293.801 199.778 293.828 199.865Z" fill="white"/>
</g>
</g>
<path d="M209.4 172.153C209.212 171.945 209.046 171.718 208.904 171.476C208.609 171.026 208.156 170.391 207.572 169.628C206.887 168.736 206.156 167.881 205.382 167.065C203.484 165.066 201.329 163.327 198.975 161.893C198.014 161.309 197.024 160.774 196.008 160.292C195.139 159.883 194.423 159.574 193.921 159.381C193.654 159.293 193.397 159.178 193.154 159.038C193.431 159.084 193.703 159.158 193.965 159.26C194.692 159.494 195.407 159.768 196.105 160.08C197.145 160.535 198.156 161.053 199.133 161.632C201.531 163.052 203.71 164.812 205.604 166.856C206.376 167.689 207.096 168.568 207.76 169.488C208.212 170.105 208.63 170.745 209.013 171.407C209.167 171.642 209.297 171.892 209.4 172.153Z" fill="#263238"/>
<path d="M205.591 181.561C205.681 181.571 204.78 191.065 203.578 202.764C202.376 214.464 201.327 223.945 201.236 223.935C201.145 223.926 202.046 214.434 203.249 202.731C204.451 191.027 205.5 181.552 205.591 181.561Z" fill="#263238"/>
<path d="M269.121 163.968C268.947 163.334 268.808 162.69 268.705 162.041C268.062 158.945 266.989 155.954 265.518 153.155C265.185 152.589 264.883 152.004 264.615 151.404C264.634 151.391 264.752 151.54 264.949 151.819C265.146 152.099 265.414 152.514 265.723 153.042C267.325 155.81 268.413 158.844 268.936 161.998C269.032 162.602 269.092 163.093 269.115 163.435C269.146 163.611 269.148 163.791 269.121 163.968Z" fill="#263238"/>
<path d="M270.738 197.163C270.657 196.858 270.605 196.545 270.581 196.23C270.501 195.627 270.404 194.752 270.299 193.67C270.088 191.508 269.868 188.509 269.75 185.193C269.632 181.877 269.644 178.869 269.702 176.695C269.731 175.609 269.766 174.729 269.804 174.123C269.806 173.807 269.836 173.491 269.895 173.181C269.936 173.494 269.949 173.81 269.933 174.126C269.933 174.795 269.933 175.66 269.936 176.699C269.936 178.87 269.966 181.87 270.081 185.181C270.197 188.492 270.381 191.485 270.532 193.651C270.604 194.688 270.664 195.55 270.71 196.218C270.748 196.531 270.757 196.848 270.738 197.163Z" fill="#263238"/>
<path d="M231.67 191.611C224.886 192.005 218.082 191.877 211.318 191.23V193.873H231.67V191.611Z" fill="white"/>
<g opacity="0.3">
<g opacity="0.3">
<path opacity="0.3" d="M251.912 147.643C251.949 147.775 251.975 147.909 251.99 148.045C252.034 148.332 252.092 148.722 252.167 149.218C252.294 150.246 252.474 151.753 252.621 153.664C252.926 157.486 253.193 162.917 253.284 169.329L253.288 169.574L253.068 169.467C249.011 167.496 244.46 165.344 239.726 162.978L216.599 151.405L209.609 147.865L207.717 146.887L207.229 146.626C207.214 146.645 207.193 146.657 207.17 146.661C207.146 146.665 207.122 146.66 207.102 146.647C207.082 146.634 207.068 146.614 207.062 146.591C207.056 146.568 207.059 146.543 207.07 146.522C207.081 146.501 207.1 146.485 207.122 146.477C207.145 146.469 207.169 146.47 207.191 146.479C207.213 146.488 207.231 146.506 207.241 146.527C207.251 146.549 207.252 146.573 207.245 146.596L207.749 146.829L209.67 147.751L216.709 151.199L239.877 162.684C244.61 165.05 249.151 167.206 253.198 169.195L252.982 169.333C252.914 162.928 252.691 157.498 252.439 153.678C252.319 151.767 252.17 150.261 252.071 149.227C252.016 148.73 251.973 148.337 251.941 148.05C251.92 147.915 251.911 147.779 251.912 147.643Z" fill="white"/>
</g>
</g>
<g opacity="0.3">
<g opacity="0.3">
<path opacity="0.3" d="M203.329 202.577C203.215 202.572 203.102 202.552 202.992 202.519L202.043 202.291L198.565 201.407C195.63 200.656 191.57 199.626 187.08 198.54C182.59 197.453 178.507 196.515 175.552 195.842L172.055 195.039L171.107 194.808C170.994 194.788 170.885 194.754 170.781 194.705C170.895 194.703 171.009 194.716 171.12 194.743L172.082 194.913C172.915 195.067 174.117 195.306 175.603 195.612C178.571 196.226 182.661 197.13 187.158 198.219C191.655 199.308 195.704 200.372 198.625 201.182C200.088 201.587 201.265 201.924 202.077 202.168L203.01 202.456C203.121 202.482 203.229 202.523 203.329 202.577Z" fill="white"/>
</g>
</g>
<path d="M248.359 142.832C248.39 142.738 250.106 143.658 251.793 146.15C253.451 148.639 255.007 152.5 255.882 156.943C256.281 159.031 256.529 161.146 256.624 163.27C256.638 164.249 256.666 165.178 256.637 166.05C256.589 166.919 256.58 167.73 256.503 168.466C256.426 169.202 256.353 169.857 256.289 170.449C256.208 171.03 256.11 171.53 256.035 171.933C255.991 172.361 255.89 172.781 255.735 173.182C255.693 172.754 255.708 172.322 255.78 171.898C255.819 171.474 255.865 170.978 255.918 170.41C255.952 169.821 255.991 169.161 256.033 168.439C256.075 167.716 256.061 166.905 256.085 166.046C256.091 165.186 256.042 164.265 256.012 163.303C255.883 161.211 255.622 159.13 255.23 157.071C254.556 153.327 253.26 149.722 251.397 146.406C250.796 145.429 250.085 144.524 249.277 143.709C248.707 143.133 248.332 142.876 248.359 142.832Z" fill="#263238"/>
<path d="M219.45 143.01C219.056 143.691 218.607 144.338 218.106 144.945C216.891 146.683 215.886 148.56 215.112 150.535C213.999 153.478 213.252 156.547 212.89 159.673C212.426 163.2 212.228 167.142 211.97 171.265C211.755 175.381 211.745 179.323 211.74 182.906C211.734 186.49 211.736 189.716 211.735 192.438C211.715 195.153 211.666 197.351 211.584 198.87C211.596 199.66 211.518 200.45 211.35 201.222C211.217 200.444 211.166 199.653 211.198 198.864C211.158 197.319 211.102 195.132 211.032 192.441C210.964 189.729 210.873 186.5 210.825 182.909C210.776 179.318 210.761 175.364 210.978 171.209C211.237 167.071 211.462 163.127 211.983 159.544C212.396 156.354 213.229 153.233 214.463 150.263C215.311 148.265 216.433 146.396 217.797 144.708C218.268 144.07 218.825 143.498 219.45 143.01Z" fill="#263238"/>
<path d="M262.2 196.17C262.1 195.475 262.058 194.773 262.073 194.071C262.035 192.719 262.003 190.765 261.977 188.345C261.967 187.133 261.956 185.809 261.944 184.39C261.918 182.971 261.97 181.438 261.858 179.875C261.814 178.257 261.244 176.698 260.235 175.434C259.677 174.787 258.99 174.264 258.218 173.899C257.446 173.534 256.606 173.334 255.752 173.314C254.02 173.32 252.351 173.967 251.067 175.131C249.88 176.237 249.055 177.675 248.699 179.258C248.306 180.771 248.139 182.291 247.903 183.692C247.682 185.094 247.474 186.401 247.285 187.598C246.903 189.986 246.58 191.916 246.342 193.248C246.254 193.945 246.109 194.633 245.907 195.306C245.91 194.603 245.97 193.901 246.087 193.208C246.246 191.864 246.497 189.924 246.821 187.528C246.987 186.326 247.167 185.015 247.36 183.609C247.573 182.205 247.715 180.691 248.108 179.102C248.479 177.394 249.36 175.84 250.635 174.645C252.036 173.363 253.865 172.652 255.764 172.649C256.71 172.672 257.64 172.893 258.495 173.299C259.349 173.705 260.109 174.287 260.723 175.007C261.816 176.379 262.428 178.072 262.464 179.826C262.562 181.455 262.487 182.963 262.49 184.387C262.473 185.806 262.457 187.13 262.443 188.342C262.409 190.758 262.37 192.716 262.328 194.068C262.344 194.771 262.301 195.474 262.2 196.17Z" fill="#263238"/>
<path d="M256.065 167.096C255.859 169.321 255.144 171.82 253.599 173.437C254.954 173.144 256.36 173.171 257.703 173.516C256.738 171.584 256.583 169.256 256.61 167.094" fill="#263238"/>
<path d="M262.224 181.561C262.103 181.583 262.034 180.495 261.215 179.039C260.743 178.194 260.117 177.445 259.371 176.828C258.473 176.072 257.395 175.559 256.241 175.338C255.083 175.15 253.895 175.269 252.797 175.682C251.889 176.017 251.053 176.522 250.335 177.17C249.098 178.29 248.696 179.306 248.587 179.247C248.529 179.241 248.778 178.122 250.011 176.831C250.735 176.084 251.61 175.499 252.578 175.114C253.774 174.625 255.082 174.477 256.357 174.687C257.624 174.926 258.803 175.506 259.767 176.364C260.551 177.047 261.186 177.884 261.634 178.823C262.387 180.434 262.283 181.572 262.224 181.561Z" fill="#263238"/>
<path d="M279.24 253.596C283.027 253.583 286.41 250.868 288.194 247.528C289.977 244.187 290.428 240.307 290.604 236.527C291.068 226.494 289.837 216.455 286.964 206.831L270.368 209.73L274.887 254.423L279.24 253.596Z" fill="#FFBE9D"/>
<path d="M212.116 259.163L266.15 257.192L279.255 193.873L222.344 197.035L212.116 259.163Z" fill="#263238"/>
<path d="M239.93 195.95L240.744 194.335L245.056 194.017C245.056 194.017 246.151 191.189 252.313 190.902C257.838 190.642 258.063 193.421 258.063 193.421H261.042V194.778L239.93 195.95Z" fill="#455A64"/>
<path d="M270.056 238.758L274.153 237.564C274.924 237.339 275.738 237.303 276.526 237.459C277.486 237.648 278.369 238.115 279.066 238.802C280.422 240.137 282.607 242.344 282.919 243.002C283.375 243.965 283.377 245.628 282.919 246.245C282.461 246.861 283.924 250.01 283.741 251.061C283.647 251.956 283.367 252.821 282.919 253.6C282.552 254.038 282.919 255.537 282.004 256.67C281.477 257.329 280.896 257.943 280.266 258.504C280.266 258.504 269.015 259.03 267.918 258.504C266.82 257.978 264.899 255.965 264.899 255.965C264.899 255.965 263.893 254.126 265.448 253.951L259.044 251.498C258.668 251.364 258.36 251.088 258.187 250.728C258.013 250.369 257.987 249.956 258.116 249.578C258.162 249.442 258.237 249.317 258.334 249.21C258.431 249.104 258.548 249.018 258.68 248.958C258.68 248.958 255.805 248.05 255.141 247.756C253.812 247.17 253.31 244.077 256.059 244.473C257.513 244.682 259.474 245.106 259.474 245.106C259.474 245.106 258.426 243.398 259.892 242.382C260.782 241.765 264.788 242.517 264.788 242.517L270.054 238.76L270.056 238.758Z" fill="#FFBE9D"/>
<path d="M271.483 255.644C270.353 255.678 269.226 255.51 268.156 255.147C267.049 254.902 266.006 254.431 265.09 253.763C265.135 253.684 266.473 254.342 268.247 254.829C270.011 255.338 271.493 255.549 271.483 255.644Z" fill="#EB996E"/>
<path d="M269.036 251.646C265.529 250.979 262.068 250.096 258.671 249C262.177 249.668 265.639 250.551 269.036 251.646Z" fill="#EB996E"/>
<path d="M270.367 247.664C266.597 247.01 262.868 246.137 259.199 245.052C262.969 245.708 266.698 246.58 270.367 247.664Z" fill="#EB996E"/>
<path d="M274.532 242.54C274.068 242.746 273.584 242.9 273.087 243L271.5 243.409L270.557 243.643C270.205 243.734 269.84 243.768 269.476 243.746C269.12 243.72 268.768 243.663 268.422 243.573L267.477 243.358L265.882 242.977C265.384 242.885 264.896 242.739 264.429 242.541C264.937 242.555 265.441 242.624 265.933 242.748L267.546 243.063C268.189 243.215 268.839 243.333 269.495 243.417C270.148 243.404 270.796 243.303 271.422 243.116L273.031 242.774C273.521 242.641 274.024 242.563 274.532 242.54Z" fill="#EB996E"/>
<path d="M275.254 244.694C275.289 244.671 275.441 244.809 275.565 245.111C275.722 245.513 275.737 245.957 275.608 246.368C275.479 246.78 275.213 247.135 274.855 247.376C274.582 247.553 274.377 247.579 274.363 247.54C274.313 247.462 275.03 247.108 275.292 246.269C275.395 245.747 275.382 245.21 275.254 244.694Z" fill="#EB996E"/>
<path d="M275.019 249.042C275.1 249.005 275.354 249.458 275.318 250.075C275.281 250.692 274.982 251.114 274.907 251.068C274.822 251.026 274.962 250.596 274.987 250.057C275.012 249.517 274.93 249.074 275.019 249.042Z" fill="#EB996E"/>
<path d="M275.086 253.763C275.17 253.731 275.341 254.038 275.259 254.436C275.178 254.835 274.906 255.053 274.841 254.992C274.776 254.931 274.876 254.683 274.934 254.372C274.993 254.061 274.997 253.787 275.086 253.763Z" fill="#EB996E"/>
<path d="M276.312 242.278C275.951 242.314 275.586 242.296 275.231 242.223L274.075 242.073C273.622 241.978 273.157 241.956 272.698 242.006C272.257 242.105 271.841 242.292 271.474 242.556C271.122 242.794 270.814 243.056 270.52 243.23C270.219 243.452 269.857 243.577 269.484 243.585C269.465 243.53 269.87 243.418 270.39 243.035C271.025 242.407 271.803 241.941 272.657 241.677C272.913 241.645 273.172 241.639 273.429 241.659C273.688 241.685 273.9 241.735 274.122 241.771L275.271 241.992C275.631 242.033 275.982 242.129 276.312 242.278Z" fill="#EB996E"/>
<path d="M282.812 253.808C282.887 253.532 282.983 253.262 283.099 253C283.387 252.287 283.54 251.526 283.551 250.757C283.536 250.229 283.455 249.705 283.311 249.196C283.179 248.637 282.923 248.08 282.78 247.411C282.698 246.716 282.745 246.011 282.918 245.333C282.996 244.63 282.868 243.919 282.551 243.287C282.229 242.642 281.836 242.034 281.38 241.475C280.943 240.921 280.515 240.384 280.088 239.899C279.37 239.013 278.46 238.301 277.427 237.818C276.725 237.508 275.953 237.391 275.191 237.479C274.651 237.55 274.375 237.696 274.365 237.665C274.359 237.654 274.428 237.615 274.555 237.549C274.752 237.46 274.958 237.394 275.17 237.352C275.959 237.209 276.772 237.295 277.514 237.6C278.599 238.07 279.557 238.789 280.312 239.699C280.757 240.189 281.186 240.721 281.633 241.278C282.108 241.854 282.516 242.482 282.848 243.151C283.192 243.839 283.326 244.613 283.236 245.377C283.065 246.022 283.011 246.692 283.076 247.357C283.196 247.968 283.449 248.557 283.573 249.131C283.713 249.663 283.783 250.211 283.782 250.761C283.752 251.554 283.559 252.333 283.215 253.05C283.113 253.318 282.977 253.573 282.812 253.808Z" fill="#EB996E"/>
<path d="M244.986 222.488L200.62 229.535L202.591 206.379L177.919 201.61L174.918 235.892L174.399 243.751C174.225 246.369 174.726 248.988 175.854 251.358C176.981 253.727 178.698 255.768 180.84 257.285C182.791 258.667 185.039 259.573 187.404 259.932C189.768 260.29 192.183 260.091 194.457 259.35L203.991 256.243L250.486 239.702" fill="#FFBE9D"/>
<path d="M271.831 217.711C271.864 217.527 271.856 217.339 271.808 217.159C271.759 216.979 271.671 216.812 271.55 216.67C271.429 216.528 271.278 216.415 271.107 216.339C270.937 216.263 270.752 216.225 270.566 216.229C268.065 216.219 261.313 216.257 258.93 216.933C255.979 217.77 244.989 222.486 244.989 222.486L249.648 239.689L266.518 239.868C266.518 239.868 272.681 237.036 272.757 235.811C272.748 235.043 272.697 234.276 272.604 233.514L274.463 232.517C277.236 230.758 275.458 227.384 275.458 227.384C275.458 227.384 277.366 226.314 277.467 224.382C277.512 223.816 277.397 223.248 277.133 222.745C276.87 222.241 276.47 221.823 275.979 221.537C275.979 221.537 276.742 218.817 275.323 218.084C273.904 217.352 271.498 218.293 271.498 218.293C271.672 218.143 271.789 217.937 271.831 217.711Z" fill="#FFBE9D"/>
<path d="M272.798 217.996C272.636 218.084 272.461 218.145 272.28 218.178C271.94 218.273 271.442 218.384 270.822 218.49C269.583 218.712 267.857 218.898 265.959 219.102C264.339 219.248 262.73 219.493 261.141 219.836C259.927 220.12 259.248 220.497 259.22 220.447C259.209 220.427 259.372 220.32 259.682 220.147C260.131 219.927 260.6 219.748 261.081 219.61C262.669 219.196 264.289 218.916 265.924 218.773C267.828 218.569 269.548 218.42 270.789 218.259C272.029 218.098 272.788 217.946 272.798 217.996Z" fill="#EB996E"/>
<path d="M275.973 221.44C275.615 221.706 275.215 221.911 274.79 222.046C273.792 222.43 272.763 222.73 271.714 222.941C270.491 223.195 269.373 223.361 268.564 223.466C268.13 223.555 267.686 223.589 267.243 223.57C267.223 223.463 269.214 223.109 271.646 222.616C272.858 222.362 273.94 222.074 274.711 221.825C275.12 221.661 275.542 221.532 275.973 221.44Z" fill="#EB996E"/>
<path d="M275.493 227.416C273.17 228.489 270.648 229.06 268.09 229.094C268.08 228.996 269.768 228.787 271.807 228.322C273.846 227.856 275.46 227.325 275.493 227.416Z" fill="#EB996E"/>
<path d="M274.461 232.52C272.692 233.415 270.738 233.887 268.755 233.897C270.661 233.451 272.562 232.992 274.461 232.52Z" fill="#EB996E"/>
<path d="M265.664 229.469C265.677 229.508 265.492 229.62 265.149 229.652C264.696 229.687 264.244 229.562 263.874 229.298C263.503 229.035 263.236 228.65 263.12 228.21C263.037 227.877 263.082 227.665 263.12 227.664C263.21 227.641 263.303 228.491 264.063 229.029C264.553 229.304 265.103 229.455 265.664 229.469Z" fill="#EB996E"/>
<path d="M265.311 234.799C265.326 234.889 264.651 234.93 264.076 234.411C263.5 233.892 263.457 233.224 263.548 233.227C263.641 233.207 263.802 233.736 264.296 234.163C264.774 234.602 265.321 234.704 265.311 234.799Z" fill="#EB996E"/>
<path d="M263.357 223.971C263.393 224.059 262.925 224.206 262.495 223.879C262.065 223.551 262.077 223.064 262.171 223.075C262.264 223.064 262.377 223.385 262.695 223.614C263.004 223.857 263.342 223.879 263.357 223.971Z" fill="#EB996E"/>
<path d="M244.987 222.488C245.028 222.458 245.072 222.434 245.119 222.416L245.52 222.229L247.085 221.537C248.453 220.942 250.45 220.085 252.969 219.052C254.229 218.537 255.619 217.975 257.14 217.41C257.926 217.095 258.736 216.844 259.562 216.658C260.449 216.501 261.344 216.391 262.243 216.327C264.087 216.184 266.04 216.12 268.081 216.089L269.628 216.076H270.413C270.703 216.057 270.993 216.117 271.252 216.25C271.529 216.385 271.751 216.611 271.882 216.889C272.013 217.168 272.045 217.483 271.974 217.782C271.932 217.873 271.864 217.95 271.779 218.003C271.718 218.045 271.654 218.084 271.588 218.119C271.464 218.186 271.337 218.246 271.207 218.3C270.946 218.41 270.678 218.503 270.405 218.577C270.364 218.587 270.321 218.581 270.284 218.56C270.247 218.538 270.221 218.503 270.209 218.462C270.199 218.421 270.206 218.378 270.227 218.342C270.248 218.305 270.282 218.278 270.323 218.267C271.013 218.066 271.716 217.91 272.426 217.798C273.16 217.663 273.91 217.637 274.652 217.72C275.054 217.764 275.434 217.928 275.741 218.192C276.028 218.485 276.216 218.859 276.281 219.264C276.398 220.039 276.349 220.83 276.138 221.585L276.053 221.394C276.418 221.601 276.735 221.881 276.987 222.217C277.304 222.643 277.513 223.138 277.597 223.662C277.682 224.186 277.639 224.722 277.472 225.226C277.116 226.196 276.432 227.011 275.539 227.531L275.602 227.312C276.059 228.219 276.244 229.239 276.138 230.249C276.066 230.742 275.887 231.214 275.612 231.63C275.337 232.046 274.974 232.396 274.548 232.655L274.538 232.661L272.677 233.655L272.759 233.501C272.808 233.946 272.849 234.387 272.88 234.826C272.896 235.046 272.908 235.265 272.913 235.486C272.913 235.597 272.913 235.708 272.909 235.823C272.892 235.954 272.845 236.081 272.771 236.191C272.504 236.547 272.18 236.856 271.812 237.104C271.467 237.359 271.112 237.585 270.761 237.804C269.406 238.609 268.008 239.342 266.574 239.998C266.556 240.006 266.536 240.01 266.516 240.01L254.238 239.822L250.841 239.75L249.951 239.72C249.849 239.722 249.748 239.714 249.647 239.697C249.748 239.682 249.85 239.676 249.952 239.68L250.842 239.67H254.24L266.519 239.742L266.462 239.754C267.882 239.095 269.266 238.361 270.608 237.555C270.956 237.34 271.302 237.115 271.635 236.869C271.971 236.64 272.268 236.359 272.514 236.035C272.56 235.967 272.591 235.889 272.605 235.808C272.61 235.707 272.611 235.602 272.605 235.496C272.6 235.284 272.588 235.068 272.572 234.852C272.539 234.418 272.496 233.98 272.445 233.54C272.441 233.509 272.447 233.478 272.461 233.45C272.476 233.423 272.498 233.4 272.526 233.385L274.383 232.386L274.374 232.391C274.76 232.156 275.09 231.839 275.339 231.461C275.588 231.084 275.75 230.656 275.814 230.208C275.909 229.265 275.733 228.315 275.309 227.468C275.291 227.43 275.287 227.387 275.299 227.347C275.311 227.306 275.337 227.271 275.372 227.249C276.192 226.768 276.821 226.018 277.153 225.127C277.302 224.674 277.34 224.192 277.264 223.721C277.189 223.251 277.001 222.805 276.718 222.421C276.496 222.126 276.217 221.879 275.898 221.693C275.865 221.674 275.839 221.646 275.824 221.611C275.808 221.577 275.805 221.539 275.813 221.502C276.01 220.797 276.057 220.058 275.951 219.334C275.899 218.997 275.743 218.683 275.506 218.438C275.247 218.22 274.929 218.085 274.593 218.05C273.884 217.973 273.169 217.998 272.468 218.126C271.772 218.234 271.084 218.386 270.407 218.581L270.325 218.271C270.58 218.202 270.831 218.115 271.075 218.012C271.197 217.961 271.318 217.907 271.43 217.846C271.542 217.803 271.65 217.68 271.694 217.691C271.718 217.463 271.681 217.233 271.587 217.023C271.479 216.813 271.309 216.642 271.099 216.533C270.885 216.423 270.645 216.375 270.405 216.393H269.621L268.077 216.402C266.043 216.424 264.092 216.48 262.257 216.612C261.368 216.67 260.482 216.775 259.604 216.924C258.791 217.102 257.992 217.344 257.217 217.649C255.697 218.2 254.303 218.75 253.038 219.25L247.121 221.648L245.536 222.29L245.124 222.451C245.079 222.469 245.034 222.481 244.987 222.488Z" fill="#EB996E"/>
<path d="M200.8 229.493C198.297 231.012 196.372 233.323 195.332 236.06C195.364 235.625 195.476 235.199 195.662 234.805C196.44 232.836 197.828 231.168 199.622 230.046C199.978 229.79 200.377 229.603 200.8 229.493Z" fill="#EB996E"/>
<path d="M258.733 92.3081C258.291 86.6933 255.752 81.4505 251.62 77.6232C247.488 73.7959 242.067 71.6646 236.435 71.6535H235.274C222.759 72.3593 216.366 83.3823 217.417 95.8734L219.579 145.949C219.597 146.362 219.727 146.761 219.956 147.105C220.185 147.449 220.504 147.723 220.877 147.898L248.962 161.076L248.094 134.795C248.094 134.795 260.128 132.951 260.303 120.922C260.385 115.114 259.584 103.138 258.733 92.3081Z" fill="#FFBE9D"/>
<path d="M248.194 134.779C242.607 134.771 237.14 133.158 232.443 130.134C232.443 130.134 236.131 138.798 248.136 137.739L248.194 134.779Z" fill="#EB996E"/>
<path d="M254.468 99.7778C254.471 100.226 254.3 100.657 253.99 100.98C253.68 101.303 253.256 101.492 252.808 101.507C252.59 101.524 252.37 101.497 252.162 101.428C251.954 101.358 251.762 101.248 251.597 101.103C251.433 100.959 251.299 100.783 251.203 100.585C251.108 100.388 251.052 100.174 251.041 99.9546C251.037 99.507 251.209 99.0757 251.518 98.7525C251.828 98.4293 252.251 98.2398 252.699 98.2244C252.918 98.2074 253.137 98.2343 253.346 98.3036C253.554 98.373 253.746 98.4833 253.911 98.628C254.076 98.7728 254.21 98.9491 254.306 99.1466C254.401 99.3441 254.456 99.5587 254.468 99.7778Z" fill="#263238"/>
<path d="M256.137 98.1881C255.924 98.4112 254.624 97.446 252.776 97.4466C250.932 97.4212 249.571 98.3699 249.371 98.1461C249.273 98.0456 249.49 97.6418 250.082 97.2126C250.883 96.6599 251.835 96.3687 252.808 96.379C253.77 96.3771 254.706 96.6816 255.483 97.2482C256.049 97.6825 256.24 98.0876 256.137 98.1881Z" fill="#263238"/>
<path d="M236.297 100.339C236.301 100.787 236.129 101.219 235.819 101.542C235.509 101.865 235.085 102.054 234.638 102.069C234.419 102.086 234.199 102.059 233.991 101.99C233.784 101.92 233.592 101.81 233.427 101.666C233.262 101.521 233.128 101.345 233.033 101.147C232.937 100.95 232.882 100.736 232.871 100.517C232.867 100.069 233.038 99.6375 233.348 99.3141C233.657 98.9908 234.081 98.8012 234.528 98.7858C234.747 98.7688 234.967 98.7958 235.175 98.8651C235.383 98.9344 235.576 99.0447 235.741 99.1895C235.905 99.3343 236.04 99.5106 236.135 99.7081C236.231 99.9055 236.286 100.12 236.297 100.339Z" fill="#263238"/>
<path d="M237.966 98.4953C237.752 98.7191 236.451 97.7538 234.605 97.7545C232.761 97.7297 231.4 98.6771 231.199 98.454C231.102 98.3535 231.317 97.9497 231.911 97.5211C232.712 96.968 233.664 96.6763 234.637 96.6862C235.598 96.6851 236.535 96.9897 237.312 97.5561C237.878 97.9898 238.071 98.3955 237.966 98.4953Z" fill="#263238"/>
<path d="M244.646 112.217C244.638 112.112 245.787 111.915 247.649 111.681C248.121 111.634 248.568 111.541 248.649 111.219C248.689 110.731 248.58 110.243 248.336 109.82C247.895 108.675 247.432 107.476 246.948 106.223C245.02 101.102 243.625 96.8916 243.832 96.8159C244.038 96.7402 245.77 100.829 247.697 105.95C248.162 107.213 248.605 108.419 249.027 109.568C249.323 110.138 249.408 110.795 249.268 111.421C249.199 111.588 249.094 111.736 248.959 111.855C248.824 111.975 248.664 112.061 248.491 112.109C248.229 112.18 247.96 112.217 247.689 112.219C245.815 112.316 244.653 112.322 244.646 112.217Z" fill="#263238"/>
<path d="M239.204 113.484C239.505 113.468 239.504 115.474 241.218 116.901C242.933 118.329 245.069 118.11 245.084 118.393C245.112 118.52 244.607 118.782 243.704 118.805C242.529 118.818 241.386 118.418 240.477 117.673C239.605 116.956 239.046 115.929 238.917 114.808C238.842 113.969 239.067 113.472 239.204 113.484Z" fill="#263238"/>
<path d="M238.46 91.2525C238.276 91.7548 236.432 91.5132 234.263 91.7701C232.088 91.9831 230.338 92.6145 230.051 92.1637C229.924 91.9475 230.229 91.4751 230.938 90.9899C231.883 90.3953 232.951 90.0239 234.061 89.9038C235.171 89.7837 236.293 89.9181 237.344 90.2968C238.136 90.6211 238.537 91.0147 238.46 91.2525Z" fill="#263238"/>
<path d="M255.466 92.8372C255.141 93.2562 253.868 92.8181 252.337 92.7946C250.807 92.717 249.509 93.0705 249.211 92.6312C249.081 92.4175 249.286 91.9953 249.853 91.601C250.616 91.1265 251.501 90.8891 252.399 90.9187C253.296 90.9484 254.164 91.2438 254.893 91.7676C255.434 92.2 255.611 92.6331 255.466 92.8372Z" fill="#263238"/>
<path d="M219.217 104.779C219.012 104.689 210.957 102.318 211.205 110.541C211.452 118.764 219.656 116.821 219.662 116.585C219.668 116.348 219.217 104.779 219.217 104.779Z" fill="#FFBE9D"/>
<path d="M217.78 113.544C217.743 113.52 217.64 113.649 217.399 113.768C217.062 113.923 216.679 113.942 216.329 113.821C215.45 113.529 214.676 112.168 214.594 110.69C214.552 109.986 214.668 109.281 214.933 108.627C215.003 108.368 215.134 108.13 215.316 107.932C215.498 107.735 215.725 107.585 215.978 107.495C216.141 107.447 216.317 107.457 216.473 107.524C216.63 107.591 216.758 107.711 216.835 107.863C216.952 108.089 216.905 108.255 216.949 108.268C216.973 108.288 217.121 108.125 217.045 107.787C216.993 107.585 216.874 107.406 216.706 107.282C216.475 107.117 216.188 107.051 215.908 107.096C215.572 107.173 215.262 107.335 215.006 107.566C214.751 107.797 214.559 108.089 214.449 108.416C214.121 109.138 213.973 109.93 214.021 110.722C214.123 112.376 215.018 113.902 216.217 114.212C216.44 114.269 216.672 114.277 216.898 114.233C217.124 114.189 217.336 114.094 217.521 113.957C217.771 113.744 217.809 113.558 217.78 113.544Z" fill="#EB996E"/>
<path d="M224.607 80.3339L258.899 81.0893C257.729 78.7587 255.998 76.756 253.861 75.2622C249.402 71.8119 243.969 69.8564 238.334 69.6741C232.741 69.5762 221.356 76.3877 217.305 80.2443C214.062 83.3302 214.084 86.0002 214.084 86.0002C213.569 90.4463 216.055 95.5002 217.047 99.8655C217.556 102.117 218.542 108.928 218.542 108.928C220.431 108.922 221.133 107.418 220.846 105.55L220.493 98.2218C220.493 98.2218 226.919 93.6549 223.874 85.297C223.386 84.6312 222.344 81.5777 224.607 80.3339Z" fill="#263238"/>
<path d="M231.808 106.341C231.765 106.354 231.719 106.353 231.676 106.339C231.633 106.325 231.595 106.299 231.568 106.263C231.54 106.227 231.524 106.184 231.522 106.139C231.519 106.094 231.53 106.049 231.554 106.011C231.577 105.972 231.612 105.941 231.653 105.923C231.694 105.904 231.74 105.898 231.784 105.906C231.829 105.914 231.87 105.935 231.902 105.967C231.934 105.998 231.956 106.039 231.965 106.083C231.978 106.138 231.969 106.196 231.94 106.244C231.91 106.293 231.863 106.327 231.808 106.341Z" fill="#EB996E"/>
<path d="M235.344 105.547C235.294 105.569 235.239 105.576 235.185 105.565C235.132 105.555 235.083 105.528 235.046 105.488C235.008 105.448 234.984 105.398 234.976 105.344C234.969 105.29 234.978 105.235 235.003 105.187C235.028 105.138 235.068 105.099 235.116 105.074C235.165 105.049 235.22 105.04 235.273 105.048C235.327 105.055 235.378 105.08 235.417 105.117C235.457 105.155 235.484 105.204 235.494 105.257C235.512 105.315 235.506 105.379 235.478 105.433C235.45 105.487 235.402 105.528 235.344 105.547Z" fill="#EB996E"/>
<path d="M237.72 105.494C237.608 105.507 237.499 105.37 237.476 105.188C237.453 105.005 237.526 104.846 237.638 104.832C237.75 104.818 237.858 104.955 237.881 105.138C237.903 105.32 237.831 105.48 237.72 105.494Z" fill="#EB996E"/>
<path d="M233.54 108.561C233.427 108.561 233.336 108.503 233.336 108.43C233.336 108.358 233.428 108.303 233.541 108.303C233.653 108.303 233.744 108.362 233.744 108.434C233.744 108.506 233.652 108.562 233.54 108.561Z" fill="#EB996E"/>
<path d="M236.78 107.817C236.734 107.827 236.686 107.822 236.642 107.804C236.598 107.786 236.561 107.755 236.535 107.715C236.509 107.675 236.496 107.629 236.498 107.581C236.499 107.534 236.515 107.488 236.543 107.45C236.571 107.412 236.61 107.383 236.655 107.368C236.7 107.352 236.749 107.351 236.794 107.364C236.84 107.377 236.881 107.403 236.911 107.44C236.941 107.476 236.959 107.521 236.963 107.569C236.972 107.626 236.957 107.684 236.923 107.73C236.889 107.777 236.837 107.808 236.78 107.817Z" fill="#EB996E"/>
<path d="M253.64 105.839C253.595 105.854 253.547 105.854 253.501 105.841C253.456 105.828 253.416 105.801 253.387 105.764C253.357 105.728 253.339 105.683 253.336 105.636C253.332 105.589 253.343 105.542 253.367 105.501C253.391 105.461 253.426 105.428 253.469 105.408C253.512 105.388 253.559 105.382 253.606 105.39C253.652 105.398 253.695 105.419 253.729 105.452C253.763 105.485 253.786 105.528 253.795 105.574C253.809 105.63 253.801 105.689 253.772 105.738C253.743 105.788 253.695 105.824 253.64 105.839Z" fill="#EB996E"/>
<path d="M256.046 105.623C255.994 105.641 255.938 105.642 255.886 105.626C255.834 105.61 255.787 105.578 255.754 105.535C255.72 105.492 255.701 105.439 255.699 105.384C255.696 105.329 255.711 105.275 255.741 105.229C255.771 105.183 255.814 105.148 255.865 105.128C255.916 105.108 255.972 105.104 256.026 105.117C256.079 105.13 256.127 105.16 256.162 105.201C256.198 105.243 256.22 105.294 256.225 105.349C256.237 105.409 256.225 105.471 256.192 105.522C256.158 105.574 256.106 105.61 256.046 105.623Z" fill="#EB996E"/>
<path d="M251.514 105.894C251.479 105.897 251.445 105.889 251.414 105.872C251.384 105.855 251.359 105.83 251.343 105.799C251.326 105.769 251.319 105.734 251.322 105.699C251.325 105.665 251.338 105.632 251.359 105.604C251.38 105.576 251.409 105.556 251.441 105.544C251.474 105.532 251.509 105.53 251.543 105.538C251.577 105.546 251.608 105.564 251.632 105.589C251.656 105.614 251.672 105.645 251.679 105.679C251.682 105.704 251.681 105.73 251.674 105.754C251.668 105.778 251.657 105.801 251.641 105.821C251.626 105.841 251.607 105.858 251.585 105.871C251.563 105.883 251.539 105.891 251.514 105.894Z" fill="#EB996E"/>
<path d="M253.293 108.305C253.252 108.331 253.203 108.343 253.155 108.341C253.106 108.338 253.06 108.321 253.021 108.291C252.983 108.262 252.954 108.221 252.939 108.175C252.925 108.128 252.925 108.079 252.939 108.032C252.953 107.986 252.981 107.945 253.02 107.915C253.058 107.885 253.105 107.867 253.153 107.864C253.202 107.862 253.25 107.874 253.291 107.899C253.333 107.925 253.365 107.962 253.385 108.007C253.412 108.058 253.418 108.119 253.4 108.175C253.383 108.231 253.344 108.277 253.293 108.305Z" fill="#EB996E"/>
<path d="M255.349 107.899C255.319 107.884 255.293 107.862 255.276 107.834C255.258 107.806 255.249 107.774 255.249 107.74C255.249 107.707 255.258 107.675 255.276 107.647C255.294 107.619 255.32 107.597 255.35 107.583C255.38 107.569 255.414 107.564 255.446 107.568C255.479 107.573 255.51 107.586 255.536 107.608C255.561 107.629 255.58 107.658 255.589 107.689C255.599 107.721 255.6 107.755 255.591 107.787C255.573 107.833 255.538 107.871 255.493 107.892C255.448 107.913 255.396 107.915 255.349 107.899Z" fill="#EB996E"/>
<path d="M217.079 80.7135C216.698 79.1941 216.674 77.6069 217.009 76.0766C217.344 74.5462 218.029 73.1143 219.011 71.8932C219.992 70.6721 221.243 69.695 222.665 69.0386C224.088 68.3822 225.643 68.0643 227.209 68.1098C228.811 68.1734 230.402 68.6287 231.995 68.4545C234.962 68.1308 237.251 65.752 240.002 64.5966C242.175 63.7486 244.57 63.6521 246.804 64.3225C249.039 64.9929 250.985 66.3917 252.332 68.2961C253.375 69.8534 254.061 71.7782 255.658 72.7587C257.04 73.607 258.781 73.5358 260.334 74.0038C263.473 74.9493 265.624 78.2826 265.46 81.5573C265.326 83.1971 264.745 84.7687 263.78 86.101C262.815 87.4334 261.502 88.4753 259.986 89.1135C258.457 89.718 256.812 89.9717 255.172 89.8558C253.533 89.7399 251.94 89.2574 250.511 88.4439C247.924 87.0043 245.607 84.5485 242.647 84.6356C239.582 84.7253 236.904 87.616 233.895 87.0164C232.319 86.7022 231.104 85.4903 229.949 84.3692C228.794 83.2482 227.469 82.1106 225.861 82.0165C224.253 81.9223 223.42 84.1269 223.994 85.6289L217.082 80.7142" fill="#263238"/>
<path d="M258.235 76.7368C258.224 76.7793 258.205 76.8197 258.181 76.8563C258.121 76.9708 258.054 77.0817 257.981 77.1882C257.705 77.6025 257.374 77.9781 256.999 78.3048C256.402 78.8273 255.709 79.2284 254.959 79.4857C253.958 79.8294 252.882 79.8934 251.847 79.6707C250.585 79.4076 249.438 78.7548 248.566 77.8044C247.629 76.7749 247.073 75.3995 246.201 74.1907C245.776 73.5436 245.189 73.0186 244.499 72.6675C243.81 72.3163 243.04 72.1512 242.267 72.1883C241.45 72.2108 240.65 72.4263 239.933 72.8172C239.203 73.2297 238.607 73.8439 238.216 74.5862C237.802 75.3391 237.505 76.1664 237.008 76.8995C236.772 77.2788 236.451 77.5972 236.069 77.8292C235.688 78.0612 235.257 78.2002 234.812 78.2349C233.964 78.2472 233.13 78.0066 232.419 77.5437C231.748 77.1237 231.136 76.617 230.598 76.0367C229.541 74.9684 228.499 73.9033 227.198 73.6146C226.599 73.4984 225.983 73.5103 225.389 73.6498C224.795 73.7892 224.238 74.0529 223.754 74.4234C222.932 75.0288 222.28 75.8358 221.862 76.7666C221.539 77.4707 221.302 78.2108 221.154 78.9712C221.027 79.5982 220.968 80.0929 220.927 80.4274C220.916 80.5996 220.892 80.7707 220.855 80.9393C220.845 80.8959 220.842 80.8512 220.847 80.807C220.847 80.7205 220.847 80.5908 220.86 80.4217C220.888 79.9276 220.944 79.4355 221.028 78.9477C221.155 78.1703 221.378 77.4117 221.693 76.6897C222.11 75.7176 222.772 74.8711 223.616 74.234C224.125 73.8351 224.714 73.5494 225.342 73.3959C225.97 73.2424 226.624 73.2246 227.259 73.3437C228.665 73.6477 229.756 74.7636 230.813 75.8166C231.336 76.3762 231.93 76.8645 232.581 77.269C233.239 77.6947 234.008 77.9159 234.791 77.9049C235.187 77.873 235.57 77.7478 235.908 77.5394C236.246 77.3311 236.53 77.0455 236.736 76.7062C237.202 76.0227 237.499 75.2037 237.927 74.4171C238.349 73.6203 238.991 72.9616 239.777 72.5196C240.541 72.1036 241.393 71.8754 242.263 71.8539C243.088 71.8172 243.908 71.996 244.643 72.3725C245.377 72.749 246.001 73.3104 246.453 74.0012C247.347 75.2622 247.886 76.6223 248.776 77.6111C249.603 78.5284 250.695 79.1648 251.901 79.4316C252.896 79.6588 253.934 79.6131 254.905 79.2993C255.64 79.0625 256.324 78.6881 256.919 78.1961C257.418 77.7669 257.86 77.2766 258.235 76.7368Z" fill="#455A64"/>
<path d="M264.448 76.8588C264.534 77.0689 264.581 77.293 264.587 77.5201C264.638 78.1379 264.58 78.76 264.413 79.3572C264.166 80.2475 263.727 81.0733 263.128 81.7773C262.385 82.6304 261.458 83.3043 260.417 83.7486C258.523 84.5188 256.453 84.7527 254.435 84.4245C253.829 84.3404 253.23 84.2209 252.638 84.0665C252.418 84.0254 252.204 83.9539 252.002 83.8541C252.015 83.7981 252.943 84.0302 254.465 84.1918C256.437 84.445 258.441 84.188 260.285 83.4452C261.282 83.0192 262.174 82.381 262.899 81.5751C263.482 80.9089 263.922 80.1297 264.191 79.286C264.413 78.4971 264.499 77.6766 264.448 76.8588Z" fill="#455A64"/>
<path d="M205.927 209.344C206.059 210.645 206.559 211.881 207.368 212.908C208.103 213.862 209.598 214.799 210.801 214.73C211.707 214.777 212.608 214.588 213.418 214.181C214.228 213.775 214.919 213.165 215.423 212.412C216.886 210.08 217.249 205.227 216.074 202.361C215.267 200.389 213.451 198.554 211.321 198.504C208.523 198.44 206.769 200.459 206.17 202.505" fill="#E0E0E0"/>
<path d="M206.172 202.507C206.264 202.023 206.44 201.559 206.69 201.135C206.967 200.626 207.321 200.162 207.739 199.76C208.298 199.22 208.976 198.821 209.72 198.597C210.151 198.466 210.599 198.394 211.05 198.384C211.543 198.358 212.036 198.423 212.505 198.575C213.53 198.937 214.431 199.583 215.103 200.437C215.857 201.36 216.38 202.45 216.629 203.616C216.897 204.853 216.993 206.122 216.913 207.385C216.785 209.376 216.392 211.358 215.29 212.872C214.745 213.585 214.015 214.135 213.179 214.462C212.421 214.765 211.606 214.902 210.79 214.864H210.809C210.212 214.867 209.623 214.721 209.096 214.439C208.627 214.201 208.193 213.899 207.808 213.541C207.207 212.944 206.73 212.233 206.405 211.45C206.19 210.957 206.041 210.438 205.96 209.907C205.94 209.767 205.926 209.627 205.92 209.487C205.917 209.391 205.92 209.343 205.926 209.342C206.047 210.047 206.255 210.734 206.546 211.387C206.885 212.134 207.363 212.81 207.955 213.379C208.331 213.714 208.752 213.997 209.205 214.218C209.696 214.471 210.242 214.6 210.794 214.593H210.813C211.619 214.632 212.423 214.479 213.158 214.146C213.893 213.813 214.538 213.31 215.04 212.678C216.066 211.26 216.461 209.308 216.583 207.364C216.719 204.848 216.298 202.313 214.866 200.623C214.235 199.807 213.387 199.185 212.42 198.829C211.981 198.68 211.518 198.614 211.056 198.632C209.873 198.64 208.736 199.088 207.865 199.888C207.448 200.268 207.09 200.708 206.801 201.192C206.565 201.617 206.354 202.056 206.172 202.507Z" fill="#263238"/>
<path d="M204.441 209.47C204.573 210.771 205.073 212.007 205.882 213.035C206.617 213.988 208.112 214.926 209.315 214.857C210.22 214.903 211.122 214.714 211.932 214.308C212.742 213.902 213.432 213.292 213.936 212.539C215.399 210.206 215.762 205.353 214.588 202.487C213.78 200.516 211.965 198.681 209.834 198.631C207.036 198.567 205.283 200.586 204.684 202.632" fill="#E0E0E0"/>
<path d="M204.683 202.633C204.776 202.149 204.951 201.685 205.201 201.261C205.478 200.751 205.832 200.287 206.251 199.886C206.809 199.346 207.488 198.947 208.231 198.723C208.663 198.592 209.11 198.52 209.561 198.51C210.054 198.484 210.547 198.549 211.017 198.701C212.041 199.063 212.942 199.709 213.614 200.564C214.368 201.487 214.891 202.577 215.14 203.743C215.408 204.98 215.503 206.248 215.423 207.511C215.296 209.502 214.903 211.484 213.801 212.999C213.256 213.711 212.526 214.261 211.69 214.588C210.931 214.891 210.117 215.028 209.301 214.99H209.32C208.722 214.993 208.134 214.847 207.607 214.566C207.137 214.328 206.704 214.026 206.319 213.668C205.718 213.071 205.241 212.36 204.916 211.578C204.701 211.085 204.551 210.566 204.471 210.034C204.45 209.895 204.437 209.755 204.431 209.614C204.428 209.519 204.431 209.47 204.437 209.469C204.557 210.174 204.765 210.861 205.057 211.514C205.395 212.262 205.874 212.938 206.466 213.506C206.842 213.842 207.262 214.124 207.715 214.345C208.206 214.598 208.752 214.727 209.305 214.72H209.324C210.13 214.759 210.933 214.606 211.668 214.273C212.403 213.94 213.048 213.437 213.551 212.806C214.577 211.387 214.972 209.436 215.093 207.491C215.23 204.975 214.808 202.441 213.376 200.751C212.746 199.935 211.898 199.313 210.93 198.957C210.491 198.808 210.029 198.741 209.566 198.76C209.136 198.763 208.708 198.824 208.295 198.941C207.579 199.144 206.922 199.512 206.374 200.015C205.958 200.396 205.599 200.835 205.31 201.32C205.075 201.744 204.865 202.183 204.683 202.633Z" fill="#263238"/>
<path d="M207.136 201.917C206.43 201.83 205.715 201.974 205.099 202.329C204.483 202.684 204 203.23 203.721 203.884C203.197 205.218 203.199 206.702 203.729 208.034C203.946 208.725 204.307 209.362 204.788 209.903C205.275 210.447 205.956 210.778 206.685 210.826C207.215 210.797 207.73 210.641 208.187 210.371C208.644 210.101 209.029 209.725 209.31 209.274C209.803 208.575 210.139 207.776 210.294 206.934C210.448 206.092 210.419 205.226 210.206 204.397C209.917 203.294 209.105 202.164 207.966 202.134" fill="#E0E0E0"/>
<path d="M207.967 202.134C208.05 202.114 208.137 202.112 208.221 202.128C208.465 202.157 208.7 202.236 208.911 202.361C209.287 202.611 209.61 202.933 209.86 203.308C210.109 203.684 210.281 204.107 210.365 204.55C210.673 205.855 210.535 207.225 209.973 208.442C209.651 209.169 209.163 209.81 208.548 210.314C208.215 210.6 207.819 210.802 207.392 210.904C206.966 211.007 206.52 211.006 206.094 210.901C205.26 210.637 204.558 210.064 204.134 209.299C203.742 208.616 203.466 207.874 203.317 207.102C203.154 206.452 203.127 205.776 203.236 205.115C203.345 204.455 203.589 203.824 203.953 203.261C204.211 202.891 204.54 202.576 204.921 202.333C205.301 202.091 205.726 201.927 206.171 201.851C206.412 201.814 206.656 201.814 206.897 201.851C207.059 201.885 207.142 201.908 207.14 201.919C206.823 201.908 206.506 201.928 206.193 201.979C205.354 202.174 204.621 202.681 204.144 203.398C203.816 203.939 203.6 204.54 203.509 205.166C203.418 205.793 203.455 206.431 203.616 207.043C203.768 207.777 204.036 208.483 204.412 209.133C204.797 209.824 205.43 210.342 206.183 210.584C206.56 210.675 206.953 210.675 207.329 210.583C207.706 210.492 208.056 210.313 208.349 210.06C208.927 209.59 209.389 208.993 209.697 208.315C210.244 207.159 210.399 205.856 210.138 204.604C209.997 203.754 209.534 202.99 208.844 202.473C208.574 202.31 208.277 202.195 207.967 202.134Z" fill="#263238"/>
<path d="M210.344 212.371C210.294 212.383 210.224 212.17 210.006 211.915C209.716 211.587 209.34 211.346 208.921 211.219C208.485 211.1 208.037 211.03 207.585 211.012C207.23 210.986 207.005 210.957 207.004 210.91C207.003 210.863 207.221 210.811 207.583 210.778C208.066 210.727 208.553 210.77 209.019 210.905C209.504 211.047 209.921 211.358 210.196 211.781C210.395 212.115 210.383 212.366 210.344 212.371Z" fill="#263238"/>
<path d="M210.843 201.051C210.873 201.079 210.746 201.278 210.449 201.512C210.055 201.81 209.596 202.01 209.111 202.099C208.625 202.187 208.125 202.16 207.651 202.021C207.292 201.905 207.103 201.767 207.121 201.727C207.755 201.874 208.412 201.891 209.053 201.775C209.694 201.659 210.304 201.414 210.846 201.054L210.843 201.051Z" fill="#263238"/>
<path d="M124.664 89.8314C124.742 87.0609 122.184 84.9205 119.602 83.9063C117.02 82.892 114.157 82.5073 111.858 80.9615C109.824 79.5918 108.455 77.4547 106.732 75.7079C104.606 73.5529 101.945 72.0025 99.0221 71.2157C96.0991 70.4289 93.0194 70.4341 90.0991 71.2308C87.1788 72.0275 84.5231 73.587 82.4046 75.7492C80.2861 77.9113 78.7812 80.5983 78.0443 83.5343C77.0536 87.4767 77.7302 92.1434 80.8421 94.7652C84.4514 97.8072 89.8016 97.1319 94.4264 96.1857C99.0511 95.2395 104.282 94.3054 108.146 97.0212C110.474 98.6586 111.809 101.323 113.233 103.788C114.657 106.254 116.443 108.771 119.135 109.698C121.826 110.625 125.481 109.025 125.586 106.18" fill="#263238"/>
<path d="M124.477 91.3518C124.172 93.6734 125.852 95.7521 127.525 97.3926C129.198 99.0332 131.086 100.77 131.382 103.093C131.727 105.807 129.746 108.479 130.321 111.153C130.685 112.851 132.005 114.158 132.807 115.699C133.874 117.923 134.05 120.471 133.299 122.821C132.61 125.159 131.511 130.381 129.886 132.197C125.391 137.221 118.235 141.559 111.664 143.071C105.094 144.583 98.2689 144.589 91.5394 144.175C86.0308 143.836 79.6962 144.09 75.1058 136.511C72.7283 132.587 71.5506 127.367 70.2865 122.956C69.1985 119.157 68.258 115.089 69.3886 111.304C70.048 109.098 71.3751 107.136 72.025 104.928C72.8364 102.169 72.5407 99.2182 72.8669 96.3606C73.2222 93.253 74.314 90.2751 76.0516 87.6743C77.7892 85.0735 80.1224 82.925 82.8573 81.4072C85.5922 79.8894 88.6499 79.0462 91.7762 78.9477C94.9024 78.8492 98.0071 79.4982 100.832 80.8407" fill="#263238"/>
<path d="M75.5024 100.871C76.0187 92.9663 81.278 83.2774 89.154 84.1282L113.739 90.3999C114.893 90.5244 115.958 91.0775 116.725 91.9497C117.491 92.822 117.901 93.9499 117.876 95.1104L115.112 154.423L115.283 154.46C115.283 154.46 109.679 171.189 93.422 166.079C90.1981 165.065 88.7267 161.539 88.0876 157.912L87.921 157.934C87.9147 157.503 87.9096 157.102 87.9039 156.691C87.5862 153.987 87.5538 151.257 87.8072 148.546C87.7614 143.758 87.7665 141.793 87.7633 141.838C87.7633 141.838 77.6663 140.139 75.6028 126.958C74.5765 120.399 74.9294 109.654 75.5024 100.871Z" fill="#FFBE9D"/>
<path d="M79.463 108.814C79.4576 109.254 79.6245 109.68 79.9283 109.999C80.2321 110.318 80.6486 110.506 81.089 110.522C81.3039 110.54 81.5202 110.514 81.7251 110.447C81.93 110.38 82.1194 110.272 82.282 110.13C82.4447 109.989 82.5774 109.816 82.6722 109.622C82.7671 109.429 82.8223 109.218 82.8344 109.003C82.8396 108.562 82.6728 108.137 82.3695 107.818C82.0663 107.499 81.6504 107.31 81.2104 107.293C80.9952 107.275 80.7787 107.3 80.5735 107.368C80.3683 107.435 80.1787 107.543 80.0158 107.685C79.853 107.826 79.7201 107.999 79.6252 108.193C79.5303 108.387 79.4751 108.598 79.463 108.814Z" fill="#263238"/>
<path d="M77.8214 106.467C78.03 106.687 79.3132 105.743 81.1318 105.751C82.9485 105.734 84.2813 106.673 84.4791 106.451C84.5763 106.352 84.3633 105.954 83.7834 105.529C82.9976 104.982 82.0619 104.691 81.1045 104.697C80.1585 104.692 79.2354 104.987 78.4687 105.541C77.9085 105.969 77.7184 106.367 77.8214 106.467Z" fill="#263238"/>
<path d="M97.3397 108.814C97.3343 109.254 97.5013 109.68 97.805 109.999C98.1088 110.318 98.5253 110.506 98.9657 110.522C99.1806 110.54 99.3969 110.514 99.6018 110.447C99.8067 110.38 99.9961 110.272 100.159 110.13C100.321 109.989 100.454 109.816 100.549 109.622C100.644 109.429 100.699 109.218 100.711 109.003C100.716 108.562 100.549 108.137 100.246 107.818C99.9425 107.499 99.5266 107.31 99.0865 107.293C98.8713 107.275 98.6548 107.301 98.4497 107.368C98.2447 107.435 98.0551 107.543 97.8923 107.685C97.7295 107.827 97.5968 107.999 97.5019 108.193C97.407 108.387 97.3518 108.598 97.3397 108.814Z" fill="#263238"/>
<path d="M95.698 106.846C95.9078 107.066 97.1917 106.122 99.009 106.131C100.826 106.113 102.159 107.052 102.356 106.83C102.453 106.732 102.243 106.334 101.661 105.909C100.875 105.362 99.9391 105.071 98.9817 105.077C98.0358 105.071 97.1127 105.367 96.346 105.921C95.787 106.348 95.5956 106.746 95.698 106.846Z" fill="#263238"/>
<path d="M89.0678 120.317C89.0767 120.214 87.9467 120.016 86.1148 119.778C85.6506 119.729 85.2112 119.635 85.1336 119.318C85.0955 118.839 85.2049 118.358 85.4471 117.942C85.8859 116.819 86.3462 115.642 86.8282 114.409C88.7467 109.378 90.1348 105.241 89.9332 105.166C89.7317 105.091 88.0097 109.108 86.0913 114.137C85.6296 115.378 85.1885 116.563 84.768 117.692C84.4746 118.252 84.3879 118.897 84.5232 119.514C84.5902 119.678 84.6938 119.825 84.826 119.943C84.9582 120.061 85.1156 120.147 85.2862 120.195C85.5433 120.265 85.8082 120.303 86.0747 120.306C87.9169 120.411 89.0608 120.422 89.0678 120.317Z" fill="#263238"/>
<path d="M87.7634 141.838C93.9688 141.946 100.082 140.33 105.424 137.169C105.424 137.169 100.966 146.282 87.7787 145.02L87.7634 141.838Z" fill="#EB996E"/>
<path d="M89.8269 124.704C90.1744 124.27 90.6266 123.931 91.1411 123.72C91.6556 123.508 92.2154 123.431 92.7678 123.496C93.1691 123.533 93.5587 123.651 93.9133 123.842C94.2679 124.033 94.5801 124.294 94.8313 124.609C95.074 124.913 95.2176 125.284 95.2425 125.671C95.2674 126.059 95.1724 126.445 94.9705 126.777C94.6778 127.103 94.2943 127.334 93.8693 127.441C93.4443 127.547 92.9972 127.524 92.5854 127.375C91.7269 127.069 90.9378 126.596 90.2638 125.982C90.0588 125.837 89.883 125.654 89.7455 125.443C89.6791 125.343 89.644 125.225 89.6448 125.104C89.6456 124.984 89.6822 124.866 89.75 124.767" fill="#EB996E"/>
<path d="M94.4172 121.588C94.1215 121.571 94.1132 123.545 92.4205 124.943C90.7278 126.34 88.6269 126.118 88.611 126.394C88.583 126.521 89.0784 126.779 89.9667 126.805C91.1229 126.823 92.2487 126.434 93.1461 125.705C94.0072 125.003 94.5622 123.995 94.6938 122.892C94.7714 122.067 94.552 121.578 94.4172 121.588Z" fill="#263238"/>
<path d="M94.8871 103.657C95.0652 104.151 96.8819 103.921 99.0146 104.183C101.154 104.403 102.872 105.031 103.157 104.588C103.284 104.376 102.984 103.91 102.29 103.43C101.363 102.841 100.313 102.471 99.2217 102.348C98.1301 102.225 97.0249 102.352 95.9897 102.72C95.2057 103.037 94.8102 103.425 94.8871 103.657Z" fill="#263238"/>
<path d="M78.5015 101.204C78.8194 101.618 80.074 101.192 81.581 101.175C83.0868 101.106 84.3624 101.459 84.6574 101.027C84.7846 100.818 84.5862 100.404 84.0298 100.01C83.2821 99.5393 82.4114 99.3016 81.5282 99.327C80.6451 99.3523 79.7895 99.6396 79.07 100.152C78.5365 100.577 78.361 101.003 78.5015 101.204Z" fill="#263238"/>
<path d="M122.942 133.759C121.121 134.126 119.239 134.055 117.451 133.551C115.663 133.046 114.021 132.124 112.661 130.859C111.3 129.595 110.261 128.024 109.627 126.278C108.994 124.532 108.786 122.66 109.02 120.817C109.43 117.581 111.175 114.287 110.052 111.224C108.569 107.173 102.891 105.927 101.385 101.886C100.509 99.5331 101.295 96.7887 100.304 94.4861C99.3702 92.3242 97.0925 91.0747 94.8758 90.2735C92.6592 89.4723 90.2816 88.9184 88.4204 87.4718C86.5592 86.0252 85.3981 83.2941 86.5993 81.2656C96.4421 82.4457 106.109 84.7938 115.397 88.2603C117.547 89.0634 119.807 90.0287 121.078 91.9401C122.424 93.9635 122.359 96.5769 122.246 99.0034C121.695 110.837 121.144 122.671 120.593 134.504" fill="#263238"/>
<path d="M122.115 138.289C122.192 138.255 122.264 138.209 122.328 138.153L122.914 137.708C123.423 137.309 124.172 136.715 125.097 135.9C126.233 134.915 127.27 133.823 128.196 132.639C129.454 131.063 130.301 129.199 130.66 127.214C130.914 126.005 130.893 124.754 130.599 123.553C130.304 122.353 129.744 121.234 128.96 120.279C128.004 119.33 126.977 118.455 125.889 117.661C124.793 116.825 123.961 115.691 123.493 114.393C122.518 111.706 122.953 108.596 122.576 105.416C122.203 102.1 120.909 98.9544 118.84 96.3359C117.771 95.013 116.441 93.9256 114.932 93.1418C113.451 92.4683 111.906 91.9468 110.32 91.5852C108.845 91.2144 107.466 90.5347 106.273 89.5911C105.149 88.6517 104.161 87.5617 103.335 86.3519C101.682 83.9992 100.456 81.4951 98.8791 79.4063C98.1329 78.3816 97.2604 77.4552 96.2822 76.6491C95.3636 75.9118 94.321 75.344 93.2033 74.9723C92.2496 74.6072 91.2237 74.4698 90.2075 74.5711C89.1914 74.6725 88.2129 75.0097 87.35 75.556C86.7424 76.0269 86.2426 76.6223 85.8841 77.3023C85.5256 77.9823 85.3167 78.7311 85.2714 79.4985C85.1898 80.4704 85.4724 81.4379 86.0643 82.213C86.216 82.411 86.3972 82.5845 86.6016 82.7274C86.7351 82.8286 86.8057 82.8756 86.8114 82.8673C86.8172 82.8591 86.7587 82.7961 86.6398 82.6823C86.4567 82.5235 86.2945 82.3421 86.1571 82.1424C85.6302 81.3734 85.3958 80.4412 85.4964 79.5144C85.558 78.7892 85.7717 78.0852 86.1236 77.4481C86.4755 76.8111 86.9578 76.2555 87.5389 75.8174C88.3629 75.3186 89.2912 75.0177 90.2511 74.9381C91.211 74.8586 92.1762 75.0026 93.071 75.3589C94.1362 75.7271 95.1278 76.281 95.9999 76.995C96.9395 77.7863 97.7767 78.6918 98.4919 79.6905C100.018 81.7457 101.22 84.2447 102.898 86.6578C103.746 87.9132 104.764 89.0446 105.924 90.0197C107.171 91.0138 108.614 91.7322 110.158 92.1276C111.708 92.4847 113.219 92.9959 114.667 93.6537C116.105 94.4043 117.373 95.4433 118.392 96.7059C120.39 99.241 121.643 102.282 122.011 105.489C122.393 108.562 121.947 111.721 122.99 114.579C123.496 115.96 124.389 117.166 125.562 118.054C126.635 118.826 127.651 119.676 128.599 120.598C129.345 121.497 129.881 122.552 130.167 123.685C130.453 124.819 130.482 126.001 130.252 127.147C129.925 129.076 129.129 130.896 127.933 132.444C127.039 133.629 126.039 134.73 124.944 135.732C124.048 136.568 123.324 137.19 122.839 137.618C122.581 137.823 122.339 138.047 122.115 138.289Z" fill="#455A64"/>
<path d="M124.521 139.924C127.23 137.305 131.858 139.582 134.131 142.587C136.405 145.592 138.015 149.465 141.467 150.975C144.918 152.486 149.408 151.187 152.305 153.593C156.299 156.911 154.057 164.602 158.375 167.485C160.092 168.63 162.35 168.59 164.183 169.535C168.501 171.76 168.45 177.852 167.782 182.664C166.846 189.417 165.82 196.418 162.093 202.127C158.366 207.836 151.112 211.856 144.66 209.651C138.459 207.534 135.277 200.844 132.755 194.796C129.265 186.429 125.776 178.063 122.286 169.697C120.267 164.857 118.229 159.944 117.572 154.741C116.915 149.538 117.798 143.92 121.107 139.851" fill="#263238"/>
<path d="M126.258 134.153C128.229 133.916 129.728 136.328 129.211 138.243C128.693 140.157 126.855 141.434 124.982 142.088C123.946 142.5 122.819 142.631 121.716 142.466C121.166 142.376 120.65 142.145 120.216 141.796C119.783 141.447 119.448 140.991 119.243 140.474C119.038 140.026 119.018 139.515 119.188 139.052C119.357 138.589 119.702 138.212 120.148 138.002C121.443 137.192 122.202 136.556 123.224 135.992C124.788 135.13 124.694 135.014 126.258 134.148" fill="#16B3AC"/>
<path d="M80.9627 155.361L88.6097 149.566L117.419 147.722L118.578 151.585L109.207 210.063L116.599 279.833H76.4072L80.9627 155.361Z" fill="#16B3AC"/>
<g opacity="0.3">
<g opacity="0.3">
<path opacity="0.3" d="M111.81 255.082C110.892 254.101 109.384 252.75 108.04 252.72C98.4175 252.509 88.5869 251.547 78.9641 251.335L78.1941 279.846C80.496 275.787 82.6745 271.565 83.2811 266.938C83.5463 264.917 83.8852 262.502 85.7305 261.637C86.774 261.147 87.9968 261.338 89.128 261.562C92.6037 262.25 96.0591 263.147 99.5933 263.367C103.127 263.586 106.831 263.071 109.801 261.141C110.856 260.521 111.706 259.604 112.243 258.504C112.501 257.951 112.598 257.336 112.522 256.73C112.445 256.125 112.198 255.553 111.81 255.082Z" fill="black"/>
</g>
</g>
<path d="M87.1951 156.54L86.3049 148.178C86.2675 147.829 86.3001 147.475 86.4008 147.138C86.5015 146.801 86.6683 146.487 86.8914 146.215C87.1146 145.943 87.3896 145.719 87.7004 145.554C88.0113 145.39 88.3518 145.289 88.7021 145.257L115.224 142.86C115.394 142.845 115.565 142.864 115.727 142.918C115.89 142.971 116.039 143.057 116.167 143.17C116.295 143.283 116.398 143.421 116.471 143.576C116.543 143.73 116.583 143.898 116.589 144.069L116.887 154.016L109.207 167.052L101.313 169.564H91.6602L86.1084 163.635L87.1951 156.54Z" fill="#16B3AC"/>
<path d="M112.972 150.827C112.966 150.855 112.59 150.788 111.911 150.719C110.95 150.628 109.984 150.612 109.02 150.67C107.592 150.766 106.172 150.971 104.774 151.281C103.19 151.613 101.467 152.08 99.6444 152.524C97.931 152.971 96.1849 153.281 94.4226 153.454C92.9733 153.59 91.5113 153.492 90.0936 153.161C89.1385 152.934 88.2262 152.555 87.3917 152.038C87.1677 151.896 86.9521 151.74 86.7463 151.573C86.6083 151.454 86.5396 151.388 86.5466 151.382C86.5638 151.359 86.8646 151.595 87.4578 151.93C88.3007 152.394 89.2065 152.733 90.147 152.936C91.544 153.227 92.9778 153.3 94.3972 153.152C96.1413 152.964 97.8692 152.647 99.5668 152.205C101.384 151.76 103.114 151.303 104.712 150.985C106.127 150.685 107.565 150.502 109.01 150.439C109.985 150.4 110.961 150.452 111.927 150.593C112.268 150.649 112.53 150.7 112.707 150.747C112.799 150.76 112.888 150.787 112.972 150.827Z" fill="#263238"/>
<g opacity="0.3">
<g opacity="0.3">
<path opacity="0.3" d="M87.8269 152.141C87.1173 154.093 87.097 156.511 88.5378 158.008C89.7123 159.228 91.5971 159.534 93.258 159.201C94.9008 158.777 96.4596 158.077 97.8681 157.131C101.519 154.957 105.229 152.708 109.377 151.789C109.65 151.756 109.907 151.648 110.123 151.478C110.173 151.434 110.215 151.38 110.243 151.319C110.272 151.258 110.288 151.192 110.291 151.125C110.293 151.057 110.281 150.99 110.257 150.928C110.232 150.865 110.195 150.808 110.147 150.761C110.043 150.698 109.925 150.664 109.803 150.662C106.135 150.294 102.491 151.331 98.8963 152.139C95.3017 152.946 91.4565 153.518 87.991 152.266" fill="black"/>
</g>
</g>
<path d="M92.8942 144.989C92.5209 145.193 92.208 145.493 91.9868 145.857C91.5677 146.529 91.5906 147.67 91.6243 148.904C91.6924 151.379 92.1006 153.355 92.0058 153.377C91.8219 152.972 91.7007 152.54 91.6466 152.098C91.4432 151.048 91.3256 149.983 91.2949 148.914C91.2709 148.323 91.283 147.731 91.3312 147.141C91.368 146.642 91.5251 146.159 91.789 145.733C91.9718 145.446 92.2313 145.215 92.5381 145.068C92.7549 144.969 92.8904 144.97 92.8942 144.989Z" fill="#263238"/>
<path d="M99.9026 152.258C99.9088 150.906 99.8452 149.555 99.7118 148.21C99.4652 146.881 99.1504 145.565 98.7688 144.268C99.01 144.593 99.1935 144.957 99.3112 145.345C100.008 147.169 100.285 149.126 100.123 151.072C100.119 151.477 100.044 151.878 99.9026 152.258Z" fill="#263238"/>
<path d="M108.439 143.568C108.678 143.854 108.851 144.19 108.944 144.552C109.234 145.404 109.352 146.306 109.292 147.204C109.232 148.103 108.996 148.98 108.597 149.787C108.456 150.133 108.24 150.443 107.965 150.696C108.54 149.608 108.88 148.41 108.961 147.182C109.043 145.954 108.865 144.722 108.439 143.568Z" fill="#263238"/>
<path d="M71.2536 159.122C71.2536 159.122 62.2127 165.177 59.837 176.115C57.9695 184.712 52.8532 230.124 52.8532 230.124L43.8962 247.565L49.7463 261.478C54.7572 261.832 59.7329 260.41 63.7992 257.46L67.7359 254.604L74.9525 243.896L71.2536 159.122Z" fill="#EBEBEB"/>
<path d="M86.5836 151.102L71.2538 159.121L67.6363 171.012L64.4124 205.469L70.4812 245.866L59.8367 279.712L78.1938 279.849L78.63 260.009L80.4626 195.786L82.2641 154.875L86.5836 151.102Z" fill="#EBEBEB"/>
<path d="M79.1592 204.634C79.0516 204.482 78.9563 204.323 78.8743 204.156C78.6861 203.809 78.4317 203.34 78.1113 202.75C77.7933 202.132 77.4868 201.338 77.0888 200.435C76.898 199.979 76.7454 199.473 76.5559 198.946C76.3664 198.419 76.1674 197.861 76.0141 197.259C74.5713 192.5 73.6162 185.627 73.8172 178.046C73.8375 177.459 73.8598 176.879 73.8998 176.301L73.9068 176.2L74.0003 176.161L76.6831 175.033L76.6449 175.311L73.9653 173.157L73.9094 173.113V173.049C73.8849 170.444 74.2976 167.853 75.1303 165.384C75.8049 163.142 76.5438 161.209 77.1899 159.621C77.8359 158.034 78.4025 156.792 78.8056 155.949C79.0066 155.526 79.1662 155.203 79.2787 154.987C79.3289 154.874 79.3907 154.766 79.4631 154.665C79.4284 154.784 79.3833 154.9 79.3283 155.011C79.2209 155.259 79.0791 155.583 78.9023 155.992C78.5297 156.849 77.9955 158.102 77.3762 159.695C76.7568 161.289 76.0408 163.224 75.3916 165.461C74.5914 167.901 74.1981 170.456 74.2273 173.024L74.1682 172.913L76.8541 175.059L77.0678 175.23L76.8134 175.336L74.1319 176.468L74.2324 176.328C74.1936 176.895 74.1688 177.473 74.1517 178.059C73.952 185.605 74.8645 192.449 76.2424 197.199C76.3874 197.8 76.5845 198.355 76.7587 198.884C76.933 199.412 77.0849 199.916 77.2643 200.373C77.6458 201.277 77.9332 202.075 78.2308 202.699C78.5275 203.298 78.7624 203.775 78.9354 204.128C79.0229 204.291 79.0977 204.46 79.1592 204.634Z" fill="#263238"/>
<path d="M67.1316 228.766C67.0685 228.604 67.0192 228.438 66.9841 228.268C66.8938 227.908 66.773 227.426 66.6217 226.822C66.4633 226.194 66.2815 225.423 66.1041 224.521C65.9266 223.619 65.6926 222.598 65.5108 221.454C65.3105 220.314 65.0968 219.064 64.9251 217.713C64.7204 216.367 64.5805 214.919 64.4164 213.396C64.1411 210.347 63.9561 206.982 63.9529 203.448C63.9688 199.913 64.1665 196.548 64.4533 193.499C64.6218 191.977 64.7674 190.53 64.9773 189.183C65.154 187.833 65.3722 186.584 65.5769 185.444C65.7626 184.3 65.9972 183.283 66.1816 182.38C66.366 181.478 66.5473 180.708 66.7075 180.081C66.8614 179.478 66.9839 178.996 67.075 178.637C67.111 178.468 67.1612 178.301 67.2251 178.14C67.2112 178.313 67.1827 178.485 67.1399 178.653C67.0636 179.016 66.9614 179.501 66.8334 180.11C66.6922 180.741 66.5256 181.513 66.3629 182.417C66.2001 183.321 65.9813 184.342 65.8077 185.485C65.617 186.624 65.4141 187.873 65.2494 189.221C65.0517 190.565 64.9169 192.01 64.7573 193.528C64.4877 196.57 64.3001 199.924 64.2842 203.448C64.2873 206.971 64.4622 210.326 64.7197 213.368C64.8743 214.886 65.0034 216.332 65.196 217.676C65.3556 219.025 65.5553 220.274 65.741 221.414C65.9069 222.559 66.1225 223.581 66.2846 224.484C66.4468 225.388 66.6077 226.162 66.7463 226.793C66.8735 227.403 66.9739 227.889 67.0477 228.251C67.0904 228.42 67.1185 228.592 67.1316 228.766Z" fill="#263238"/>
<path d="M71.2782 259.786C71.0942 260.328 70.8441 260.846 70.5336 261.328C69.1548 263.725 67.3906 265.879 65.3118 267.702C64.9013 268.102 64.4427 268.449 63.9465 268.736C64.3197 268.304 64.7234 267.9 65.1547 267.527C67.1227 265.629 68.8612 263.507 70.3346 261.204C70.6144 260.709 70.9298 260.235 71.2782 259.786Z" fill="#263238"/>
<path d="M141.719 158.139C144.944 159.386 147.812 161.408 150.072 164.024C152.332 166.641 153.914 169.773 154.679 173.145C159.692 195.252 168.273 224.656 168.408 234.142C168.58 246.224 163.296 254.496 156.4 256.021C150.946 257.229 101.509 254.521 101.509 254.521L99.1973 236.101L139.23 230.207L133.748 199.577L139.174 157.153L141.719 158.139Z" fill="#EBEBEB"/>
<path d="M139.174 157.153L128.105 152.63L116.435 145.793L116.361 147.793C117.79 150.24 118.283 153.122 117.749 155.905L108.042 206.563L110.244 243.575L114.763 279.846H149.87L133.749 241.914L139.439 190.8L139.174 157.153Z" fill="#EBEBEB"/>
<path d="M149.428 256.331C149.35 256.349 149.27 256.36 149.189 256.364L148.483 256.432C147.86 256.5 146.937 256.495 145.748 256.525C143.366 256.536 139.908 256.473 135.606 256.334C127.003 256.047 115.023 255.471 101.502 254.687L101.366 254.679L101.349 254.543C101.073 252.349 100.782 250.034 100.487 247.685C99.9895 243.71 99.5043 239.834 99.0395 236.123L99.0198 235.966L99.1768 235.943L129.747 231.499L138.723 230.227L141.135 229.9L141.76 229.822C141.759 229.795 141.769 229.769 141.788 229.749C141.806 229.728 141.831 229.716 141.858 229.714C141.885 229.712 141.912 229.72 141.934 229.737C141.955 229.753 141.969 229.778 141.973 229.805C141.977 229.832 141.971 229.859 141.956 229.882C141.94 229.904 141.917 229.92 141.891 229.926C141.864 229.932 141.836 229.927 141.813 229.914C141.789 229.9 141.772 229.878 141.764 229.852L141.143 229.957L138.739 230.339L129.777 231.707L99.2239 236.264L99.3606 236.084C99.8273 239.795 100.314 243.67 100.815 247.645C101.11 249.997 101.4 252.309 101.675 254.503L101.522 254.36C115.039 255.154 127.016 255.77 135.614 256.116C139.914 256.285 143.372 256.382 145.748 256.408C146.937 256.396 147.86 256.421 148.483 256.373L149.19 256.336C149.269 256.328 149.349 256.326 149.428 256.331Z" fill="#263238"/>
<path d="M133.427 196.482C133.469 196.592 133.498 196.706 133.513 196.822C133.565 197.083 133.628 197.407 133.704 197.803C133.869 198.704 134.093 199.929 134.366 201.422L136.448 213.376C137.225 218.031 137.926 222.243 138.444 225.349C138.678 226.848 138.871 228.078 139.012 228.983C139.068 229.383 139.113 229.71 139.15 229.974C139.173 230.089 139.182 230.206 139.176 230.323C139.132 230.215 139.101 230.101 139.085 229.985C139.031 229.725 138.966 229.401 138.885 229.005C138.718 228.104 138.49 226.88 138.214 225.388C137.66 222.332 136.919 218.105 136.122 213.434C135.325 208.763 134.624 204.532 134.135 201.461C133.905 199.961 133.716 198.731 133.577 197.825C133.523 197.424 133.48 197.096 133.445 196.832C133.424 196.716 133.418 196.599 133.427 196.482Z" fill="#263238"/>
<path d="M121.526 149.36C121.547 149.399 121.562 149.44 121.571 149.483L121.673 149.853C121.754 150.181 121.897 150.661 122.028 151.294C122.42 153.093 122.702 154.913 122.873 156.746C123.13 159.511 123.2 162.289 123.083 165.063C122.975 168.225 122.638 171.723 122.163 175.428L122.148 175.545L122.031 175.567L118.413 176.238L118.536 176.015C118.741 176.571 118.956 177.169 119.121 177.787C120.298 182.084 119.781 186.431 118.708 190.067C117.697 193.291 116.268 196.37 114.457 199.223C112.947 201.674 111.58 203.559 110.642 204.862L109.543 206.352L109.25 206.733C109.183 206.818 109.146 206.86 109.141 206.856C109.162 206.805 109.19 206.757 109.223 206.713L109.489 206.313L110.536 204.787C111.441 203.461 112.777 201.558 114.256 199.101C116.025 196.25 117.423 193.184 118.415 189.978C119.461 186.375 119.957 182.087 118.801 177.872C118.639 177.265 118.429 176.679 118.229 176.134L118.16 175.943L118.35 175.908L121.97 175.241L121.837 175.38C122.321 171.682 122.668 168.194 122.795 165.047C122.927 162.284 122.882 159.516 122.658 156.759C122.508 154.931 122.259 153.113 121.912 151.312C121.8 150.676 121.676 150.193 121.614 149.861C121.584 149.711 121.56 149.587 121.54 149.485C121.53 149.444 121.525 149.402 121.526 149.36Z" fill="#263238"/>
<path d="M121.522 201.322V193.241C121.522 193.241 121.627 191.247 119.947 191.666C118.268 192.086 118.583 195.235 118.583 195.235C118.583 195.235 118.265 207.515 119.003 207.41C119.741 207.305 120.02 206.36 120.02 206.36V201.638L121.522 201.322Z" fill="#16B3AC"/>
<path d="M128.511 201.826C127.074 201.991 125.626 202.047 124.181 201.992C122.736 202.047 121.288 201.991 119.851 201.826C121.288 201.661 122.736 201.606 124.181 201.661C125.626 201.606 127.074 201.661 128.511 201.826Z" fill="#263238"/>
<path d="M144.503 162.932C144.211 163.069 143.908 163.181 143.597 163.268C142.776 163.564 141.974 163.911 141.196 164.307C138.632 165.626 136.409 167.521 134.699 169.843C134.213 170.497 133.786 171.193 133.423 171.923C133.105 172.613 132.848 173.329 132.654 174.064C132.325 175.315 132.109 176.593 132.01 177.883C131.916 178.985 131.897 179.883 131.89 180.503C131.903 180.825 131.895 181.147 131.867 181.468C131.795 181.153 131.759 180.83 131.761 180.506C131.718 179.626 131.723 178.745 131.776 177.865C131.844 176.557 132.039 175.257 132.359 173.987C132.55 173.232 132.807 172.495 133.129 171.786C133.497 171.035 133.933 170.32 134.432 169.649C136.166 167.284 138.452 165.379 141.091 164.099C141.887 163.717 142.712 163.398 143.558 163.146C143.865 163.044 144.182 162.972 144.503 162.932Z" fill="#263238"/>
<path d="M2 230.124L59.8368 251.545L108.591 258.998L50.6217 230.739L2 230.124Z" fill="#263238"/>
<path d="M26.7522 253.222C26.2902 250.132 25.2449 247.159 23.672 244.459C23.3335 243.95 23.0679 243.397 22.8829 242.814C22.7933 242.521 22.7763 242.211 22.8333 241.91C22.8904 241.609 23.0198 241.327 23.2103 241.087C23.953 240.279 25.3087 240.642 26.2219 241.25C28.0747 242.599 29.441 244.511 30.1166 246.702C30.78 248.878 31.2064 251.12 31.3884 253.388" fill="#FFBE9D"/>
<path d="M49.2939 247.715H46.4179C45.7193 247.019 44.8494 246.519 43.896 246.266C43.5416 246.207 43.1779 246.245 42.8432 246.376C42.5085 246.506 42.215 246.724 41.9934 247.007C43.2785 244.889 44.6641 242.556 44.9312 241.92C45.4482 240.678 44.3099 239.746 42.4468 239.746C40.5837 239.746 32.4057 251.34 32.4057 251.34C32.4057 251.34 37.4882 242.015 37.9804 240.593C39.2115 237.032 35.3186 236.767 33.9044 238.485C32.1501 240.617 25.0562 251.343 25.0562 251.343C25.0562 251.343 23.7107 253.516 24.6422 255.587C25.5738 257.657 28.2668 256.829 28.2668 256.829C28.3051 257.432 28.5004 258.015 28.8333 258.52C29.1663 259.025 29.6252 259.434 30.1648 259.707C32.2416 260.861 34.9746 259.522 34.9746 259.522L45.5531 261.901C45.5531 261.901 47.2324 261.731 49.3823 261.519C51.9867 261.26 54.4299 260.139 56.3242 258.333C58.2184 256.527 59.4551 254.14 59.8381 251.551L49.2939 247.715Z" fill="#FFBE9D"/>
<path d="M42.1647 246.846C42.2823 246.918 40.8764 249.136 39.0489 251.789C38.1345 253.118 37.2881 254.308 36.6618 255.159C36.3493 255.638 35.9904 256.085 35.5903 256.494C35.8353 255.976 36.1296 255.483 36.4691 255.022C37.0465 254.136 37.8617 252.924 38.7761 251.596C39.6905 250.269 40.5286 249.074 41.1428 248.214C41.4131 247.84 41.656 247.505 41.8766 247.201C41.9596 247.073 42.0562 246.954 42.1647 246.846Z" fill="#EB996E"/>
<path d="M41.5288 258.649C41.7821 258.04 42.0968 257.46 42.468 256.916C43.0924 255.874 43.9846 254.452 44.9625 252.88C45.449 252.094 45.9164 251.344 46.303 250.651C46.4697 250.356 46.5762 250.03 46.6161 249.693C46.6561 249.356 46.6287 249.014 46.5357 248.688C46.3491 248.072 46.0422 247.5 45.6328 247.004C45.6442 246.99 45.8089 247.091 46.0442 247.347C46.3735 247.716 46.6183 248.152 46.7614 248.625C46.8786 248.98 46.9221 249.356 46.8893 249.728C46.8565 250.101 46.7481 250.463 46.5707 250.792C46.1892 251.513 45.7294 252.265 45.2417 253.055C44.2605 254.63 43.3379 256.032 42.6626 257.041C42.3216 257.602 41.9428 258.139 41.5288 258.649Z" fill="#EB996E"/>
<path d="M47.094 259.701C47.2008 259.125 47.3904 258.569 47.6567 258.048L48.4128 256.323C48.7301 255.634 48.9898 254.92 49.1892 254.188C49.2867 253.84 49.3072 253.474 49.2495 253.117C49.1917 252.76 49.057 252.42 48.8547 252.121C48.6492 251.884 48.3903 251.699 48.0993 251.582C47.8532 251.458 47.5854 251.383 47.3108 251.362C46.9088 251.42 46.5218 251.555 46.1713 251.76C45.903 251.894 45.7465 251.958 45.7357 251.937C45.7249 251.917 45.8572 251.817 46.1071 251.648C46.2603 251.545 46.4186 251.45 46.5814 251.363C46.8038 251.232 47.0521 251.152 47.3089 251.128C47.6202 251.132 47.9273 251.201 48.2106 251.331C48.5492 251.455 48.852 251.66 49.0925 251.929C49.3328 252.262 49.4953 252.644 49.5678 253.048C49.6404 253.451 49.6211 253.866 49.5116 254.262C49.3084 255.015 49.0337 255.747 48.6913 256.448C48.3924 257.094 48.1056 257.665 47.8691 258.145C47.389 259.106 47.1385 259.716 47.094 259.701Z" fill="#EB996E"/>
<path d="M49.0423 249.69C49.2002 249.704 49.3535 249.75 49.4925 249.826C49.8865 249.996 50.258 250.215 50.5983 250.476C51.7528 251.339 52.5602 252.587 52.8742 253.994C53.1882 255.401 52.988 256.873 52.3101 258.145C52.1131 258.526 51.8698 258.882 51.5858 259.203C51.3817 259.427 51.2507 259.532 51.2361 259.518C51.1884 259.478 51.6589 258.998 52.0996 258.042C52.6908 256.804 52.8497 255.404 52.551 254.066C52.2523 252.727 51.5132 251.527 50.452 250.659C49.647 249.981 49.0162 249.746 49.0423 249.69Z" fill="#EB996E"/>
<path d="M30.4143 243.608C29.7106 244.943 28.9102 246.224 28.0196 247.442C27.2191 248.721 26.3265 249.94 25.3489 251.09C26.0527 249.755 26.8532 248.474 27.7442 247.256C28.5441 245.977 29.4365 244.757 30.4143 243.608Z" fill="#EB996E"/>
<path d="M99.0245 236.793L92.4114 235.294L86.0615 229.312C85.29 228.586 84.2873 228.154 83.2293 228.093L71.6742 227.428C70.5217 227.362 69.3877 227.74 68.5056 228.485L60.2437 235.466L96.2782 253.033L101.224 253.47L99.0245 236.793Z" fill="#FFBE9D"/>
<path d="M79.4358 233.706C79.4263 233.758 78.5786 233.601 77.2102 233.428C75.8615 233.28 73.8795 233.091 71.9776 233.971C71.0923 234.398 70.2561 234.921 69.4837 235.529C68.7524 236.077 68.0975 236.586 67.5182 236.976C67.0641 237.29 66.5864 237.568 66.0894 237.808C65.9104 237.906 65.7174 237.976 65.5171 238.016C65.4942 237.965 66.2801 237.616 67.3815 236.785C67.9366 236.376 68.5718 235.852 69.2974 235.286C70.0787 234.649 70.9325 234.107 71.8409 233.669C72.7692 233.25 73.7736 233.026 74.792 233.009C75.6129 232.995 76.4335 233.057 77.2427 233.196C77.9313 233.308 78.4801 233.434 78.8572 233.526C79.0577 233.558 79.2527 233.618 79.4358 233.706Z" fill="#EB996E"/>
<path d="M81.8053 240.139C81.7836 240.192 81.3315 239.985 80.5589 239.903C79.5495 239.815 78.5333 239.957 77.5862 240.317C76.6357 240.693 75.7243 241.162 74.8653 241.716C74.5167 241.968 74.1396 242.179 73.7417 242.343C74.0332 242.024 74.3679 241.747 74.7362 241.521C75.5761 240.897 76.4957 240.388 77.4705 240.008C78.4622 239.627 79.5363 239.512 80.5863 239.674C81.0273 239.716 81.4487 239.876 81.8053 240.139Z" fill="#EB996E"/>
<path d="M96.678 241.208C96.5972 241.258 95.665 239.877 94.4378 238.235C93.2106 236.592 92.1575 235.302 92.2288 235.239C94.0349 236.966 95.5394 238.984 96.6799 241.208H96.678Z" fill="#EB996E"/>
<path d="M78.4807 228.112L93.1301 214.468C93.2788 214.329 93.3955 214.16 93.4721 213.971C93.5487 213.783 93.5833 213.58 93.5736 213.377C93.5638 213.174 93.51 212.976 93.4157 212.796C93.3214 212.616 93.189 212.458 93.0277 212.334C92.7688 212.136 92.4487 212.034 92.1226 212.046C91.7966 212.059 91.4851 212.185 91.2421 212.402L74.0652 227.808" fill="#263238"/>
<g opacity="0.3">
<path opacity="0.3" d="M78.4807 228.112L93.1301 214.468C93.2788 214.329 93.3955 214.16 93.4721 213.971C93.5487 213.783 93.5833 213.58 93.5736 213.377C93.5638 213.174 93.51 212.976 93.4157 212.796C93.3214 212.616 93.189 212.458 93.0277 212.334C92.7688 212.136 92.4487 212.034 92.1226 212.046C91.7966 212.059 91.4851 212.185 91.2421 212.402L74.0652 227.808" fill="#A3AB01"/>
</g>
</g>
<defs>
<clipPath id="clip0">
<rect width="320" height="320" fill="white"/>
</clipPath>
</defs>
</svg>
