<svg width="320" height="320" viewBox="0 0 320 320" fill="none" xmlns="http://www.w3.org/2000/svg">
<g clip-path="url(#clip0)">
<path d="M11.1786 154.202C11.1786 154.202 4.04325 155.323 8.33893 170.918C12.6346 186.512 16.1853 194.525 16.1853 194.525C16.1853 194.525 16.7889 198.064 13.9261 198.006C11.0634 197.947 5.19013 195.729 3.26693 198.851C1.27205 202.089 3.13509 205.914 7.69381 209.871C12.2525 213.828 21.9223 222.863 22.7933 223.685C23.649 224.49 24.3172 226.217 22.3607 226.49C20.4042 226.762 6.45157 225.377 6.19045 232.037C5.92933 238.697 20.4433 247.635 22.0113 248.64C23.5793 249.645 23.8372 250.453 23.5063 251.359C23.1754 252.266 18.529 251.359 14.5463 251.126C10.5636 250.893 5.90053 251.325 6.07205 255.18C6.24357 259.035 13.9505 268.646 36.058 275.501L46.5066 278.008L54.0618 270.297C69.2247 252.81 70.7018 240.579 68.8119 237.214C66.922 233.849 62.737 235.942 59.4743 238.241C56.2116 240.54 52.7441 243.763 51.9863 243.169C51.2285 242.575 51.0212 241.754 51.8218 240.07C52.6225 238.387 60.2327 223.139 56.497 217.619C52.7613 212.1 41.6394 220.637 39.834 221.44C38.0285 222.243 37.6849 220.421 37.9869 219.286C38.2941 218.129 41.7399 205.35 43.5249 199.584C45.3098 193.818 44.8733 189.585 41.4705 187.887C38.1866 186.247 34.3703 191.232 31.9697 192.79C29.569 194.349 28.2141 191.026 28.2141 191.026C28.2141 191.026 27.002 182.346 22.4234 166.834C17.8449 151.322 11.0378 154.236 11.0378 154.236" fill="#EBEBEB"/>
<path d="M46.5438 280.595C43.2254 269.188 37.6696 248.816 32.8082 231.35C27.9467 213.885 23.5339 198.086 20.2744 186.664C18.6418 180.964 17.3189 176.347 16.3998 173.14C15.9467 171.554 15.5934 170.317 15.349 169.462C15.2357 169.051 15.1474 168.733 15.084 168.502C15.0264 168.286 15.0046 168.173 15.0046 168.173C15.0046 168.173 15.0482 168.28 15.1166 168.493C15.1877 168.719 15.2862 169.035 15.4136 169.442C15.6696 170.293 16.0453 171.524 16.5246 173.103C17.4846 176.282 18.8446 180.893 20.5016 186.597C23.8194 198.004 28.2699 213.797 33.1294 231.259C37.989 248.722 43.5109 269.106 46.7704 280.529" fill="#E0E0E0"/>
<path d="M11.3611 202.285C11.6042 202.377 11.8362 202.497 12.0529 202.641C12.4881 202.886 13.1064 203.259 13.8667 203.729C15.3848 204.669 17.4507 206.022 19.6996 207.555L25.4462 211.501L27.194 212.686C27.4193 212.816 27.6293 212.97 27.82 213.147C27.5762 213.056 27.3432 212.939 27.1256 212.797C26.691 212.549 26.0715 212.176 25.3163 211.699C23.8072 210.743 21.7617 209.364 19.5115 207.831L13.7387 203.927L11.9838 202.752C11.7593 202.62 11.5504 202.463 11.3611 202.285Z" fill="#E0E0E0"/>
<path d="M28.6775 212.621C28.5988 212.573 31.1998 208.195 34.4855 202.845C37.7713 197.494 40.5015 193.194 40.5783 193.242C40.6551 193.29 38.0567 197.667 34.7697 203.02C31.4826 208.372 28.7562 212.672 28.6775 212.621Z" fill="#E0E0E0"/>
<path d="M34.9321 239.775C35.098 239.568 35.286 239.38 35.4928 239.213L37.0928 237.764C38.4368 236.539 40.2928 234.84 42.2678 232.89C44.2428 230.939 45.9798 229.119 47.2214 227.789L48.6934 226.214C48.8623 226.009 49.0533 225.824 49.263 225.661C49.1295 225.891 48.9713 226.105 48.7913 226.301C48.4713 226.697 47.9964 227.261 47.3948 227.948C46.1948 229.322 44.486 231.176 42.4995 233.128C40.5129 235.08 38.6352 236.762 37.2464 237.943C36.5494 238.531 35.9798 239.001 35.5772 239.314C35.3795 239.491 35.1632 239.645 34.9321 239.775Z" fill="#E0E0E0"/>
<path d="M17.2112 233.873C17.4553 233.898 17.6957 233.952 17.9273 234.033L19.8429 234.589C21.4563 235.071 23.6771 235.76 26.1245 236.541C28.5718 237.322 30.7824 238.045 32.3766 238.589L34.2601 239.245C34.496 239.313 34.723 239.408 34.9366 239.529C34.6923 239.505 34.4519 239.451 34.2205 239.369L32.3049 238.814C30.6921 238.332 28.4707 237.642 26.0227 236.862C23.5747 236.082 21.3661 235.357 19.7712 234.814L17.8883 234.158C17.6521 234.09 17.4248 233.995 17.2112 233.873Z" fill="#E0E0E0"/>
<path d="M19.6907 258.547C20.0015 258.59 20.3076 258.662 20.6052 258.761L23.0628 259.465C25.1332 260.072 27.987 260.932 31.1326 261.903C34.2782 262.873 37.1224 263.77 39.1755 264.434L41.6011 265.238C41.903 265.323 42.1963 265.437 42.4772 265.576C42.1663 265.534 41.8601 265.462 41.5627 265.362L39.1057 264.658C37.0353 264.052 34.1809 263.191 31.034 262.221C27.8872 261.251 25.0462 260.354 22.9931 259.69L20.5668 258.886C20.2649 258.8 19.9716 258.687 19.6907 258.547Z" fill="#E0E0E0"/>
<path d="M41.9766 265.253C42.1856 264.99 42.4173 264.746 42.669 264.523L44.6281 262.613C46.2806 260.999 48.5538 258.76 50.9942 256.218C53.4345 253.676 55.59 251.322 57.1382 249.606L58.9705 247.574C59.184 247.313 59.4195 247.072 59.6745 246.852C59.4973 247.138 59.2955 247.408 59.0716 247.658C58.6671 248.162 58.0706 248.883 57.318 249.761C55.8159 251.52 53.6879 253.906 51.238 256.449C48.7881 258.993 46.4905 261.212 44.7945 262.785C43.9446 263.57 43.2508 264.197 42.7612 264.62C42.5182 264.853 42.2557 265.065 41.9766 265.253Z" fill="#E0E0E0"/>
<path d="M158.244 132.881C157.867 132.872 157.496 132.782 157.156 132.616C157.512 132.49 157.892 132.443 158.268 132.479C158.876 132.472 159.364 132.591 159.356 132.743C159.347 132.895 158.848 132.957 158.244 132.881Z" fill="#E0E0E0"/>
<path d="M157.184 134.992C156.771 134.544 156.473 134.141 156.52 134.09C156.568 134.04 156.989 134.313 157.46 134.7C157.93 135.086 158.228 135.49 158.124 135.601C158.019 135.713 157.597 135.438 157.184 134.992Z" fill="#E0E0E0"/>
<path d="M155.014 135.93C154.957 135.556 154.982 135.175 155.086 134.812C155.271 135.142 155.383 135.507 155.414 135.883C155.525 136.481 155.493 136.982 155.341 137C155.189 137.018 155.043 136.537 155.014 135.93Z" fill="#E0E0E0"/>
<path d="M152.748 135.253C153.117 134.769 153.464 134.405 153.522 134.444C153.452 134.814 153.302 135.166 153.084 135.474C152.785 136.004 152.438 136.37 152.311 136.284C152.184 136.197 152.38 135.737 152.748 135.253Z" fill="#E0E0E0"/>
<path d="M151.448 133.281C151.805 133.161 152.185 133.118 152.561 133.157C152.269 133.397 151.929 133.571 151.563 133.669C150.995 133.884 150.495 133.94 150.451 133.797C150.406 133.653 150.854 133.416 151.448 133.281Z" fill="#E0E0E0"/>
<path d="M151.719 130.932C152.26 131.21 152.679 131.488 152.652 131.551C152.274 131.547 151.902 131.461 151.56 131.3C150.984 131.099 150.568 130.821 150.628 130.681C150.688 130.541 151.178 130.653 151.719 130.932Z" fill="#E0E0E0"/>
<path d="M153.435 129.307C153.618 129.638 153.727 130.004 153.755 130.381C153.691 130.412 153.391 130.011 153.08 129.485C152.769 128.959 152.626 128.48 152.76 128.411C152.893 128.342 153.199 128.746 153.435 129.307Z" fill="#E0E0E0"/>
<path d="M155.796 129.165C155.721 129.534 155.569 129.883 155.348 130.189C155.286 129.816 155.305 129.435 155.404 129.071C155.501 128.47 155.701 128.009 155.852 128.047C156.002 128.084 155.975 128.584 155.796 129.165Z" fill="#E0E0E0"/>
<path d="M157.696 130.573C157.402 130.809 157.06 130.98 156.694 131.073C156.653 131.017 156.995 130.648 157.455 130.251C157.916 129.853 158.365 129.629 158.458 129.752C158.55 129.874 158.208 130.24 157.696 130.573Z" fill="#E0E0E0"/>
<path d="M190.994 66.0519C189.54 65.8682 188.365 65.5834 188.374 65.4157C188.383 65.248 189.584 65.1002 191.05 65.0848C192.516 65.0695 193.691 65.3543 193.67 65.721C193.65 66.0877 192.448 66.2349 190.994 66.0519Z" fill="#E0E0E0"/>
<path d="M188.442 71.1366C187.447 70.0608 186.729 69.0886 186.842 68.9645C186.955 68.8403 187.972 69.5027 189.104 70.4326C190.237 71.3626 190.954 72.3366 190.704 72.6042C190.455 72.8717 189.437 72.2112 188.442 71.1366Z" fill="#E0E0E0"/>
<path d="M183.214 73.3952C183.145 71.9315 183.223 70.7238 183.389 70.704C183.554 70.6841 183.908 71.8432 184.176 73.2838C184.445 74.7245 184.368 75.9309 184.002 75.9718C183.635 76.0128 183.283 74.8582 183.214 73.3952Z" fill="#E0E0E0"/>
<path d="M177.759 71.7658C178.646 70.5997 179.481 69.7248 179.621 69.8157C179.76 69.9066 179.286 71.0215 178.567 72.2982C177.847 73.575 177.012 74.4493 176.704 74.2477C176.397 74.0461 176.871 72.9312 177.759 71.7658Z" fill="#E0E0E0"/>
<path d="M174.626 67.0169C176.056 66.6931 177.258 66.558 177.306 66.7168C177.354 66.8755 176.276 67.4259 174.905 67.9436C173.534 68.4614 172.332 68.5964 172.225 68.2432C172.118 67.8899 173.198 67.3401 174.626 67.0169Z" fill="#E0E0E0"/>
<path d="M175.279 61.3593C176.582 62.0301 177.59 62.6995 177.526 62.8518C177.461 63.0041 176.28 62.7315 174.897 62.247C173.514 61.7625 172.507 61.095 172.652 60.7545C172.797 60.4141 173.977 60.6893 175.279 61.3593Z" fill="#E0E0E0"/>
<path d="M179.413 57.4457C179.983 58.7961 180.326 59.9564 180.181 60.0313C180.036 60.1062 179.302 59.1411 178.552 57.8816C177.803 56.622 177.459 55.463 177.784 55.2966C178.109 55.1302 178.844 56.096 179.413 57.4457Z" fill="#E0E0E0"/>
<path d="M185.098 57.1033C184.666 58.5037 184.184 59.6134 184.022 59.5763C183.86 59.5392 183.921 58.3296 184.155 56.8825C184.39 55.4355 184.872 54.327 185.231 54.4102C185.591 54.4934 185.53 55.7037 185.098 57.1033Z" fill="#E0E0E0"/>
<path d="M189.671 60.4941C188.441 61.2902 187.358 61.831 187.257 61.6979C187.157 61.5648 187.981 60.6739 189.091 59.7203C190.201 58.7667 191.283 58.2233 191.504 58.5171C191.725 58.8109 190.9 59.6986 189.671 60.4941Z" fill="#E0E0E0"/>
<path d="M284.017 134.016C283.421 134.003 282.835 133.861 282.3 133.599C282.861 133.401 283.459 133.327 284.053 133.382C285.013 133.373 285.781 133.559 285.77 133.799C285.759 134.039 284.968 134.134 284.017 134.016Z" fill="#E0E0E0"/>
<path d="M282.344 137.344C281.692 136.64 281.222 136 281.297 135.921C281.372 135.843 282.037 136.273 282.779 136.881C283.521 137.489 283.991 138.129 283.826 138.304C283.661 138.479 282.996 138.048 282.344 137.344Z" fill="#E0E0E0"/>
<path d="M278.919 138.825C278.83 138.236 278.869 137.634 279.034 137.062C279.325 137.581 279.501 138.158 279.549 138.752C279.725 139.695 279.677 140.486 279.436 140.514C279.194 140.543 278.965 139.784 278.919 138.825Z" fill="#E0E0E0"/>
<path d="M275.345 137.757C275.926 136.994 276.474 136.42 276.565 136.477C276.454 137.063 276.219 137.618 275.875 138.104C275.404 138.94 274.856 139.512 274.655 139.384C274.453 139.256 274.764 138.521 275.345 137.757Z" fill="#E0E0E0"/>
<path d="M273.293 134.646C273.857 134.456 274.456 134.389 275.049 134.45C274.588 134.827 274.051 135.101 273.475 135.253C272.579 135.592 271.79 135.681 271.72 135.45C271.649 135.218 272.357 134.858 273.293 134.646Z" fill="#E0E0E0"/>
<path d="M273.721 130.94C274.574 131.379 275.235 131.818 275.193 131.917C274.597 131.91 274.01 131.775 273.471 131.521C272.566 131.201 271.905 130.765 271.999 130.544C272.093 130.323 272.868 130.501 273.721 130.94Z" fill="#E0E0E0"/>
<path d="M276.429 128.376C276.716 128.898 276.887 129.476 276.93 130.07C276.833 130.119 276.354 129.487 275.864 128.662C275.374 127.837 275.148 127.077 275.363 126.968C275.578 126.858 276.056 127.492 276.429 128.376Z" fill="#E0E0E0"/>
<path d="M280.153 128.152C280.037 128.736 279.797 129.288 279.449 129.771C279.351 129.184 279.381 128.582 279.537 128.007C279.69 127.06 280.006 126.333 280.241 126.387C280.475 126.442 280.436 127.232 280.153 128.152Z" fill="#E0E0E0"/>
<path d="M283.149 130.373C282.685 130.746 282.146 131.015 281.568 131.162C281.504 131.074 282.042 130.493 282.769 129.866C283.496 129.238 284.205 128.885 284.35 129.078C284.495 129.27 283.954 129.852 283.149 130.373Z" fill="#E0E0E0"/>
<path d="M382.32 64.4115C376.156 38.6783 361.278 15.8708 340.21 -0.139347C325.366 -11.3916 305.763 -20.6285 283.446 -17.1919C233.627 -9.52318 180.697 59.004 125.15 48.2863C69.6028 37.5687 24.9269 81.2971 32.271 150.334C39.6151 219.371 161.622 273.172 269.845 243.291C362.83 217.617 399.469 135.511 382.32 64.4115Z" fill="#EBEBEB"/>
<path d="M296.484 280.595C296.484 280.687 235.373 280.762 160.006 280.762C84.6143 280.762 23.5154 280.687 23.5154 280.595C23.5154 280.503 84.613 280.429 160.006 280.429C235.373 280.429 296.484 280.503 296.484 280.595Z" fill="#263238"/>
<path d="M130.655 173.477L145.552 167.963L182.436 165.266L192.145 168.223L179.044 224.621L146.875 231.569L131.949 211.763L130.655 173.477Z" fill="#FFBE9D"/>
<path d="M214.224 175.783L190.182 167.286C190.182 167.286 167.639 199.53 130.652 173.473C130.652 173.473 114.439 179.297 112.026 180.638C109.613 181.979 123.299 222.967 123.299 222.967L121.686 273.915C142.802 284.801 176.549 280.751 205.933 275.813L205.081 219.214L214.224 175.783Z" fill="#D2DC02"/>
<path d="M204.906 129.558C206.155 127.766 206.704 125.578 206.449 123.408C206.194 121.239 205.152 119.238 203.521 117.784C201.889 116.331 199.782 115.526 197.597 115.522C195.412 115.518 193.302 116.315 191.665 117.762L186.855 126.27C184.156 129.494 182.39 133.395 181.747 137.55C181.126 141.731 182.12 145.991 184.528 149.465C185.745 151.132 187.305 152.518 189.104 153.529C190.903 154.54 192.899 155.152 194.955 155.324C197.012 155.496 199.081 155.223 201.023 154.525C202.965 153.827 204.734 152.719 206.21 151.277C207.687 149.835 208.835 148.092 209.579 146.167C210.322 144.242 210.643 142.18 210.519 140.12C210.395 138.06 209.83 136.05 208.862 134.228C207.893 132.406 206.544 130.813 204.906 129.558Z" fill="#263238"/>
<path d="M192.446 130.218C192.302 127.355 191.998 124.42 192.812 121.671C193.217 120.668 193.481 119.613 193.599 118.537C193.608 117.746 193.37 116.971 192.919 116.321C192.467 115.671 191.825 115.178 191.08 114.911C190.335 114.643 189.526 114.614 188.764 114.828C188.002 115.042 187.325 115.488 186.829 116.104L186.664 116.4C185.002 117.742 184.204 119.86 183.557 121.897C182.549 125.066 181.729 128.291 181.101 131.557C180.657 133.374 180.549 135.257 180.781 137.114C180.907 138.041 181.25 138.926 181.783 139.696C182.317 140.465 183.025 141.098 183.85 141.54C186.451 142.744 189.672 141.073 191.102 138.589C192.532 136.104 192.589 133.081 192.446 130.218Z" fill="#A3AB01"/>
<path d="M188.868 120.36C188.32 117.1 186.905 114.031 186.408 110.77C185.757 106.482 186.722 102.134 186.963 97.8041C187.205 93.4741 186.522 88.701 183.347 85.7462C179.958 82.593 174.87 82.4539 170.315 81.6224C165.137 80.6778 160.224 78.6408 155.135 77.2886C150.046 75.9364 144.526 75.2996 139.599 77.1438C135.143 78.8096 131.649 82.312 128.493 85.8709C123.381 91.6395 118.527 98.4649 118.589 106.173C118.622 110.177 119.997 114.043 120.508 118.016C120.999 121.827 120.694 125.741 121.585 129.478C122.475 133.215 125.002 136.958 128.777 137.651L170.228 141.791C172.942 141.864 175.639 141.336 178.125 140.244C180.611 139.152 182.824 137.524 184.606 135.475C186.388 133.426 187.694 131.009 188.431 128.395C189.168 125.782 189.317 123.038 188.868 120.36Z" fill="#263238"/>
<path d="M177.594 100.026L177.488 94.9567L146.828 90.4033C137.406 89.7924 127.647 99.6099 127.433 109.044C127.198 119.531 127.325 132.343 128.881 140.097C132.009 155.69 144.119 157.199 144.119 157.199V166.058C144.12 170.78 145.998 175.308 149.338 178.646C152.678 181.984 157.207 183.859 161.929 183.858C164.316 183.858 166.679 183.378 168.876 182.447C171.074 181.516 173.062 180.152 174.723 178.437C176.383 176.721 177.681 174.69 178.541 172.463C179.4 170.236 179.803 167.859 179.725 165.473L177.594 100.026Z" fill="#FFBE9D"/>
<path d="M133.929 119.502C133.945 120.027 134.166 120.525 134.544 120.889C134.922 121.254 135.427 121.456 135.952 121.454C136.209 121.464 136.465 121.422 136.706 121.332C136.946 121.241 137.166 121.103 137.353 120.926C137.539 120.75 137.688 120.537 137.792 120.302C137.895 120.066 137.95 119.813 137.953 119.556C137.937 119.031 137.717 118.533 137.34 118.168C136.962 117.803 136.457 117.6 135.932 117.602C135.675 117.592 135.419 117.634 135.178 117.724C134.937 117.815 134.717 117.953 134.53 118.13C134.343 118.307 134.194 118.519 134.091 118.755C133.987 118.991 133.932 119.245 133.929 119.502Z" fill="#263238"/>
<path d="M131.021 115.577C131.281 115.828 132.761 114.638 134.928 114.556C137.089 114.443 138.724 115.492 138.948 115.218C139.059 115.096 138.786 114.632 138.073 114.156C137.11 113.545 135.98 113.246 134.84 113.302C133.714 113.344 132.63 113.743 131.746 114.442C131.1 114.981 130.894 115.461 131.021 115.577Z" fill="#263238"/>
<path d="M154.41 118.81C154.426 119.334 154.647 119.832 155.024 120.197C155.402 120.561 155.908 120.764 156.433 120.761C156.689 120.771 156.946 120.73 157.186 120.639C157.427 120.549 157.647 120.411 157.834 120.234C158.02 120.057 158.169 119.844 158.272 119.609C158.376 119.373 158.43 119.119 158.434 118.862C158.418 118.338 158.198 117.84 157.82 117.475C157.442 117.11 156.937 116.908 156.412 116.91C156.155 116.9 155.899 116.941 155.658 117.032C155.417 117.122 155.197 117.26 155.01 117.437C154.824 117.614 154.674 117.827 154.571 118.063C154.468 118.298 154.413 118.552 154.41 118.81Z" fill="#263238"/>
<path d="M152.329 115.116C152.589 115.369 154.071 114.178 156.234 114.097C158.397 113.984 160.032 115.033 160.256 114.758C160.366 114.636 160.095 114.173 159.38 113.697C158.417 113.085 157.288 112.786 156.148 112.842C155.022 112.884 153.938 113.283 153.053 113.982C152.408 114.52 152.2 115.004 152.329 115.116Z" fill="#263238"/>
<path d="M145.119 131.497C143.961 131.186 142.769 131.021 141.571 131.005C141.016 130.971 140.487 130.882 140.379 130.508C140.309 129.938 140.414 129.361 140.682 128.853C141.147 127.495 141.635 126.069 142.146 124.576C144.175 118.488 145.618 113.492 145.372 113.412C145.127 113.333 143.283 118.207 141.255 124.29C140.769 125.792 140.304 127.225 139.861 128.591C139.54 129.272 139.469 130.044 139.661 130.773C139.75 130.964 139.88 131.134 140.044 131.267C140.207 131.401 140.399 131.496 140.604 131.545C140.913 131.616 141.23 131.648 141.548 131.64C142.74 131.744 143.94 131.696 145.119 131.497Z" fill="#263238"/>
<path d="M144.127 157.24C151.696 157.051 159.07 154.799 165.452 150.727C165.452 150.727 160.428 161.97 144.127 161.191V157.24Z" fill="#EB996E"/>
<path d="M146.246 136.679C146.637 136.144 147.158 135.717 147.76 135.439C148.362 135.16 149.024 135.04 149.686 135.088C150.165 135.112 150.635 135.232 151.067 135.442C151.499 135.651 151.884 135.946 152.199 136.308C152.504 136.657 152.694 137.091 152.743 137.552C152.793 138.013 152.699 138.477 152.476 138.883C152.143 139.286 151.698 139.58 151.198 139.728C150.697 139.877 150.164 139.872 149.666 139.716C148.628 139.395 147.665 138.872 146.831 138.176C146.579 138.013 146.361 137.804 146.186 137.561C146.102 137.444 146.054 137.305 146.049 137.162C146.044 137.018 146.081 136.876 146.157 136.754" fill="#EB996E"/>
<path d="M162.322 108.677C162.196 108.064 160.014 108.026 157.542 107.355C155.057 106.734 153.131 105.7 152.725 106.174C152.539 106.403 152.812 107.003 153.551 107.688C154.545 108.54 155.719 109.155 156.986 109.485C158.253 109.815 159.578 109.853 160.862 109.594C161.84 109.357 162.372 108.967 162.322 108.677Z" fill="#263238"/>
<path d="M137.267 107.117C136.586 106.915 135.032 108.288 132.894 109.414C130.784 110.596 128.775 111.159 128.592 111.834C128.523 112.15 129.035 112.442 130.043 112.446C131.427 112.394 132.777 112.011 133.982 111.328C135.202 110.698 136.249 109.779 137.032 108.652C137.56 107.81 137.578 107.23 137.267 107.117Z" fill="#263238"/>
<path d="M171.865 85.0596L148.194 86.922L128.585 93.6803C131.11 99.1707 131.589 103.69 137.6 104.28C140.621 104.542 143.659 104.026 146.424 102.781C149.189 101.536 151.588 99.6039 153.394 97.1682C154.404 101.62 159.422 103.881 163.944 104.517C167.138 105.096 170.43 104.798 173.469 103.654C176.442 102.386 178.944 99.7173 179.355 96.5161C179.767 93.3149 175.05 85.5832 171.865 85.0596Z" fill="#263238"/>
<path d="M190.615 100.788C189.294 98.3402 187.134 96.4517 184.532 95.4688C184.334 93.9389 184.135 92.4095 183.933 90.8809L166.391 96.4116C162.239 103.029 164.139 112.538 170.542 117.191L170.615 120.519C170.69 124.008 171.653 127.421 173.413 130.436L178.975 142.548C183.065 142.644 183.997 138.233 185.615 134.607C187.233 130.981 187.256 126.906 187.115 122.964C187.046 121.036 186.946 119.111 186.815 117.187C188.056 115.072 189.836 113.107 190.875 110.867C191.598 109.277 191.95 107.543 191.905 105.797C191.86 104.051 191.419 102.338 190.615 100.788Z" fill="#263238"/>
<path d="M172.959 121.544C173.193 121.415 182.527 117.731 183.114 127.545C183.701 137.36 173.727 135.924 173.692 135.644C173.658 135.364 172.959 121.544 172.959 121.544Z" fill="#FFBE9D"/>
<path d="M176.468 131.747C176.509 131.712 176.646 131.856 176.943 131.971C177.36 132.121 177.819 132.102 178.222 131.92C179.236 131.478 180.011 129.78 179.949 128.009C179.924 127.165 179.71 126.339 179.323 125.589C179.213 125.288 179.032 125.018 178.794 124.803C178.556 124.588 178.27 124.434 177.96 124.354C177.76 124.313 177.553 124.344 177.374 124.441C177.194 124.537 177.055 124.693 176.979 124.882C176.864 125.17 176.937 125.362 176.883 125.377C176.857 125.403 176.662 125.226 176.717 124.815C176.757 124.569 176.881 124.344 177.067 124.177C177.324 123.957 177.659 123.846 177.997 123.87C178.405 123.926 178.791 124.085 179.12 124.333C179.448 124.581 179.708 124.908 179.874 125.285C180.342 126.11 180.602 127.037 180.631 127.986C180.685 129.967 179.784 131.878 178.389 132.373C178.13 132.465 177.854 132.498 177.581 132.47C177.307 132.441 177.044 132.351 176.81 132.207C176.496 131.983 176.435 131.764 176.468 131.747Z" fill="#EB996E"/>
<path d="M189.583 99.6214C189.74 99.6559 189.835 100.108 189.679 100.904C189.414 102.03 188.869 103.071 188.094 103.93C186.926 105.275 185.35 106.2 183.607 106.564C181.578 106.992 179.547 106.548 177.846 106.74C176.953 106.872 176.074 107.087 175.221 107.382C174.757 107.521 174.275 107.658 173.776 107.765C173.296 107.861 172.827 107.943 172.361 108.003C170.672 108.261 168.946 108.119 167.322 107.59C166.22 107.218 165.238 106.561 164.474 105.684C163.957 105.07 163.83 104.624 163.944 104.52C164.226 104.232 165.439 105.469 167.788 105.887C169.188 106.095 170.615 106.042 171.997 105.731C172.396 105.65 172.81 105.552 173.224 105.444C173.62 105.337 174.036 105.201 174.481 105.05C175.481 104.671 176.521 104.405 177.58 104.257C179.917 104.056 181.761 104.538 183.213 104.297C184.555 104.103 185.816 103.54 186.857 102.671C188.721 101.145 189.213 99.5198 189.583 99.6214Z" fill="white"/>
<path d="M153.696 135.493C153.755 135.781 151.842 136.356 149.707 137.494C147.562 138.613 146.006 139.867 145.805 139.66C145.613 139.483 146.945 137.814 149.241 136.61C151.537 135.406 153.661 135.233 153.696 135.493Z" fill="#263238"/>
<path d="M155.413 136.986C155.286 136.924 155.521 136.242 155.323 135.426C155.151 134.604 154.647 134.089 154.736 133.977C154.794 133.851 155.588 134.302 155.81 135.319C156.033 136.337 155.52 137.075 155.413 136.986Z" fill="#EB996E"/>
<path d="M159.972 121.137C160.091 121.193 159.619 122.12 158.51 122.636C158.201 122.829 157.85 122.945 157.487 122.976C157.124 123.006 156.759 122.949 156.422 122.811C156.431 122.665 157.334 122.651 158.297 122.185C159.269 121.739 159.854 121.051 159.972 121.137Z" fill="#EB996E"/>
<path d="M160.885 121.899C160.995 121.975 160.631 122.617 159.858 123.037C159.085 123.457 158.352 123.421 158.347 123.288C158.342 123.156 158.949 122.972 159.618 122.599C160.288 122.226 160.774 121.809 160.885 121.899Z" fill="#EB996E"/>
<path d="M134.018 123.976C134.018 124.11 133.489 124.195 132.93 123.905C132.371 123.615 132.131 123.138 132.24 123.06C132.349 122.982 132.701 123.232 133.159 123.461C133.616 123.69 134.026 123.835 134.018 123.976Z" fill="#EB996E"/>
<path d="M133.939 125.141C133.918 125.274 133.32 125.285 132.666 124.985C132.012 124.685 131.625 124.229 131.713 124.126C131.8 124.024 132.282 124.265 132.873 124.53C133.464 124.796 133.963 125.003 133.939 125.141Z" fill="#EB996E"/>
<path d="M147.869 105.954C146.768 106.842 145.431 107.39 144.023 107.531C142.615 107.671 141.196 107.398 139.941 106.744C141.271 106.988 142.623 107.084 143.974 107.032C145.308 106.817 146.614 106.455 147.869 105.954Z" fill="#EB996E"/>
<path d="M148.796 106.961C148.91 107.027 148.178 108.069 146.749 108.516C146.341 108.692 145.899 108.775 145.455 108.76C145.011 108.746 144.575 108.634 144.179 108.432C144.992 108.343 145.799 108.213 146.598 108.041C147.349 107.719 148.083 107.359 148.796 106.961Z" fill="#EB996E"/>
<path d="M131.621 100.912C131.607 100.923 131.525 100.828 131.381 100.636C131.172 100.354 130.99 100.053 130.837 99.7375C130.288 98.5577 130.022 97.2663 130.059 95.9656C130.044 92.6771 131.967 88.1831 135.775 84.9157C139.03 82.0928 143.219 80.5833 147.526 80.6816C148.812 80.7027 150.091 80.8755 151.336 81.1966C151.674 81.2818 152.008 81.3848 152.335 81.5055C152.559 81.587 152.673 81.6378 152.668 81.6541C150.979 81.274 149.255 81.0665 147.523 81.0346C145.651 81.044 143.793 81.3466 142.015 81.9313C139.841 82.651 137.831 83.7941 136.101 85.2946C132.397 88.4756 130.485 92.8028 130.412 95.9752C130.347 97.2318 130.552 98.4877 131.015 99.6579C131.363 100.479 131.663 100.884 131.621 100.912Z" fill="#455A64"/>
<path d="M167.002 104.443C166.715 104.427 166.432 104.362 166.166 104.252C165.428 103.996 164.716 103.672 164.039 103.284C161.774 102.015 159.837 100.236 158.38 98.087C157.652 96.8454 157.184 95.4688 157.004 94.0408C156.832 92.8953 156.765 91.7365 156.804 90.5787C156.824 89.8007 156.899 89.0251 157.03 88.2579C157.055 87.9712 157.128 87.6907 157.246 87.4283C157.328 87.4418 157.131 88.6386 157.157 90.5816C157.169 91.7159 157.27 92.8474 157.458 93.966C157.653 95.3262 158.109 96.6359 158.8 97.8232C160.224 99.9026 162.068 101.66 164.213 102.981C165.867 104.01 167.034 104.361 167.002 104.443Z" fill="#455A64"/>
<path d="M139.112 100.775C138.963 100.478 138.862 100.16 138.811 99.8315C138.616 98.9485 138.526 98.0455 138.544 97.1414C138.562 94.1104 139.652 91.1835 141.622 88.8792C143.591 86.5749 146.312 85.0418 149.303 84.5513C150.194 84.3933 151.1 84.3411 152.003 84.396C152.335 84.395 152.665 84.4455 152.981 84.5456C151.771 84.5756 150.564 84.6935 149.37 84.8985C146.499 85.4621 143.902 86.979 142.001 89.2033C140.1 91.4277 139.006 94.229 138.897 97.1529C138.88 98.364 138.952 99.5746 139.112 100.775Z" fill="#455A64"/>
<path d="M170.883 82.2535C168.836 81.8805 166.734 81.9275 164.705 82.3916C162.677 82.8556 160.763 83.7271 159.082 84.9531C159.454 84.4488 159.925 84.0248 160.465 83.7064C162.992 81.9859 166.074 81.2811 169.097 81.7327C169.721 81.7847 170.329 81.9618 170.883 82.2535Z" fill="#455A64"/>
<path d="M205.504 129.763C205.011 130.282 202.496 128.595 199.061 127.59C195.646 126.517 192.618 126.523 192.497 125.818C192.448 125.49 193.197 125.038 194.537 124.799C196.295 124.547 198.087 124.684 199.786 125.2C201.485 125.715 203.051 126.596 204.373 127.781C205.355 128.724 205.726 129.517 205.504 129.763Z" fill="white"/>
<path d="M204.004 132.317C203.988 132.275 204.437 132.102 205.18 131.669C206.222 131.055 207.149 130.262 207.917 129.327C209.061 127.954 209.779 126.278 209.984 124.502C210.2 122.327 209.621 120.146 208.353 118.365C207.052 116.605 205.144 115.391 202.999 114.957C201.246 114.582 199.433 114.579 197.679 114.95C196.061 115.339 194.474 115.846 192.929 116.466C193.296 116.201 193.694 115.982 194.115 115.814C195.233 115.29 196.403 114.885 197.606 114.605C199.408 114.173 201.282 114.14 203.098 114.509C205.365 114.944 207.385 116.217 208.756 118.075C209.982 119.768 210.593 121.83 210.489 123.918C210.384 126.006 209.57 127.996 208.181 129.558C207.367 130.501 206.377 131.277 205.267 131.843C204.968 131.996 204.658 132.127 204.34 132.234C204.234 132.281 204.12 132.31 204.004 132.317Z" fill="#263238"/>
<rect x="118" y="269" width="84" height="12" fill="#D2DC02"/>
<path d="M160.106 200.692L159.434 168.67C159.101 164.557 155.543 165.321 155.543 165.321C155.543 165.321 155.32 176.676 154.362 183.056C153.404 189.435 149.983 196.467 149.872 197.912C149.761 199.357 149.317 211.477 148.872 215.366C148.335 218.655 147.516 221.891 146.425 225.04L155.543 232.041L158.324 228.149C158.324 228.149 161.438 225.925 162.177 223.146C162.917 220.366 160.106 200.692 160.106 200.692Z" fill="#FFBE9D"/>
<path d="M160.106 200.692C160.106 200.692 160.151 200.864 160.208 201.204L160.445 202.712C160.645 204.036 160.925 205.986 161.248 208.487C161.571 210.988 161.955 214.041 162.258 217.581C162.338 218.466 162.4 219.382 162.444 220.331C162.451 220.811 162.493 221.285 162.471 221.779C162.482 222.288 162.433 222.797 162.325 223.294C162.009 224.302 161.494 225.237 160.81 226.042C160.114 226.891 159.32 227.655 158.444 228.318L158.49 228.271L155.719 232.169L155.592 232.348L155.419 232.214L146.289 225.226L146.158 225.13L146.211 224.97C147.692 220.948 148.589 216.736 148.877 212.46C149.173 208.005 149.357 203.385 149.584 198.656C149.588 198.253 149.63 197.852 149.711 197.457C149.812 197.068 149.937 196.7 150.065 196.332L150.862 194.171C151.398 192.744 151.916 191.326 152.383 189.909C153.339 187.154 153.996 184.304 154.341 181.408C154.981 175.74 155.181 170.315 155.328 165.321L155.332 165.138L155.501 165.11C156.241 164.976 157.005 165.064 157.696 165.361C158.373 165.667 158.913 166.213 159.211 166.895C159.495 167.535 159.645 168.226 159.651 168.926C159.662 169.589 159.674 170.243 159.686 170.89C159.733 173.48 159.782 175.931 159.819 178.241C159.896 182.853 159.962 186.884 160.017 190.219C160.06 193.523 160.093 196.134 160.113 197.949C160.117 198.821 160.12 199.501 160.122 199.991C160.122 200.206 160.122 200.375 160.116 200.516C160.119 200.575 160.114 200.635 160.102 200.694C160.087 200.637 160.08 200.578 160.081 200.518C160.073 200.38 160.064 200.211 160.053 199.997C160.035 199.508 160.01 198.829 159.977 197.96C159.924 196.146 159.849 193.539 159.755 190.237C159.671 186.903 159.569 182.873 159.454 178.262C159.399 175.952 159.341 173.497 159.28 170.911C159.198 169.629 159.397 168.238 158.825 167.075C158.569 166.486 158.102 166.014 157.515 165.752C156.907 165.497 156.239 165.422 155.59 165.538L155.763 165.328C155.636 170.337 155.45 175.759 154.817 181.464C154.473 184.392 153.814 187.275 152.85 190.062C152.381 191.489 151.86 192.914 151.325 194.344L150.532 196.495C150.407 196.856 150.285 197.218 150.191 197.575C150.119 197.94 150.082 198.31 150.079 198.681C149.852 203.403 149.665 208.027 149.362 212.491C149.065 216.808 148.151 221.061 146.646 225.118L146.568 224.859L155.672 231.88L155.372 231.925C156.343 230.57 157.29 229.253 158.161 228.04L158.178 228.016L158.207 227.994C159.919 226.814 161.232 225.141 161.972 223.199C162.074 222.731 162.121 222.254 162.114 221.776C162.14 221.297 162.101 220.817 162.096 220.347C162.059 219.407 162.004 218.495 161.933 217.61C161.66 214.077 161.303 211.023 161.019 208.519C160.721 206.037 160.487 204.089 160.324 202.732C160.247 202.087 160.188 201.581 160.145 201.217C160.111 200.87 160.106 200.692 160.106 200.692Z" fill="#EB996E"/>
<path d="M159.473 171.519C159.224 171.151 158.954 170.799 158.664 170.464C158.31 170.105 157.895 169.813 157.438 169.6C157.175 169.45 156.87 169.389 156.57 169.429C156.269 169.468 155.99 169.605 155.775 169.819L155.82 169.665C155.94 170.664 156.141 171.775 156.227 173.005C156.327 174.306 156.356 175.612 156.315 176.917C156.196 179.805 155.84 182.679 155.251 185.509C155.036 186.594 154.841 187.467 154.697 188.068C154.646 188.388 154.553 188.698 154.42 188.993C154.505 187.801 154.666 186.616 154.9 185.445C155.382 182.618 155.687 179.764 155.813 176.9C155.855 175.546 155.829 174.245 155.753 173.036C155.676 171.826 155.509 170.708 155.419 169.714L155.41 169.618L155.464 169.554C155.6 169.398 155.769 169.272 155.958 169.186C156.147 169.1 156.352 169.055 156.56 169.055C156.912 169.055 157.26 169.139 157.573 169.3C158.054 169.551 158.481 169.893 158.83 170.307C159.052 170.567 159.234 170.858 159.372 171.17C159.467 171.389 159.49 171.512 159.473 171.519Z" fill="#EB996E"/>
<path d="M159.733 183.948C159.628 183.452 159.553 182.95 159.507 182.445C159.43 181.887 159.234 181.352 158.932 180.877C158.462 180.329 157.799 179.982 157.081 179.909L157.338 179.711C157.284 181.534 157.168 183.719 156.939 186.05C156.624 189.329 156.155 192.277 155.745 194.393C155.537 195.448 155.35 196.303 155.204 196.887C155.153 197.197 155.06 197.5 154.927 197.785C155.016 196.626 155.173 195.473 155.397 194.333C155.716 192.207 156.128 189.265 156.441 186.001C156.67 183.681 156.814 181.511 156.921 179.693L156.935 179.442L157.178 179.497C157.987 179.608 158.72 180.033 159.22 180.68C159.527 181.207 159.709 181.798 159.75 182.406C159.827 182.918 159.821 183.439 159.733 183.948Z" fill="#EB996E"/>
<path d="M154.983 201.254C154.898 201.361 154.366 200.955 154.297 200.199C154.228 199.443 154.67 198.942 154.776 199.03C154.897 199.105 154.733 199.577 154.796 200.152C154.839 200.726 155.088 201.158 154.983 201.254Z" fill="#EB996E"/>
<path d="M153.549 193.353C153.427 193.403 153.057 192.677 153.126 191.705C153.195 190.734 153.651 190.061 153.765 190.128C153.895 190.19 153.675 190.876 153.623 191.739C153.572 192.601 153.686 193.309 153.549 193.353Z" fill="#EB996E"/>
<path d="M173.074 218.859C172.356 215.008 171.06 202.95 170.849 201.517C170.638 200.083 166.725 193.309 165.325 187.012C163.924 180.715 162.901 169.405 162.901 169.405C162.901 169.405 159.298 168.892 159.257 173.019L160.842 205.009C160.842 205.009 159.419 224.837 160.352 227.558C161.285 230.279 164.548 232.278 164.548 232.278L167.594 235.965L176.196 228.337C174.886 225.273 173.841 222.102 173.074 218.859Z" fill="#FFBE9D"/>
<path d="M173.072 218.858C173.096 218.909 173.113 218.963 173.123 219.019C173.154 219.147 173.191 219.307 173.239 219.498C173.346 219.922 173.509 220.553 173.755 221.363C174.485 223.713 175.337 226.023 176.308 228.284L176.344 228.368L176.276 228.428L167.708 236.094L167.571 236.217L167.453 236.075L164.395 232.398L164.443 232.44C163.542 231.86 162.71 231.178 161.965 230.408C161.159 229.607 160.537 228.638 160.143 227.572C159.915 226.421 159.81 225.25 159.83 224.078C159.81 222.9 159.819 221.702 159.844 220.484C159.949 215.612 160.235 210.419 160.6 204.988V205.017C160.335 199.705 160.054 194.084 159.765 188.302C159.582 184.589 159.402 180.943 159.227 177.399C159.184 176.513 159.141 175.634 159.099 174.761C159.013 173.885 159.011 173.003 159.091 172.126C159.142 171.672 159.283 171.232 159.505 170.832C159.727 170.432 160.027 170.081 160.386 169.797C161.13 169.282 162.038 169.057 162.937 169.166L163.123 169.182L163.142 169.381C163.483 173.047 163.883 176.584 164.344 179.953C164.72 183.165 165.34 186.344 166.199 189.462C167.086 192.2 168.143 194.88 169.364 197.487C169.908 198.719 170.481 199.871 170.898 201.066C171.039 201.665 171.132 202.274 171.177 202.888C171.241 203.476 171.305 204.052 171.369 204.614C171.868 209.095 172.275 212.658 172.58 215.098C172.738 216.295 172.86 217.228 172.947 217.891L173.048 218.61C173.064 218.692 173.071 218.774 173.07 218.857C173.04 218.78 173.019 218.7 173.007 218.618C172.971 218.436 172.924 218.201 172.865 217.904C172.752 217.273 172.597 216.337 172.422 215.122C172.065 212.687 171.612 209.129 171.072 204.652C171.004 204.093 170.934 203.52 170.863 202.931C170.813 202.339 170.719 201.75 170.582 201.172C170.17 200.03 169.582 198.863 169.032 197.639C167.787 195.025 166.708 192.334 165.803 189.584C164.922 186.448 164.284 183.25 163.895 180.016C163.42 176.639 163.01 173.101 162.659 169.425L162.864 169.639C162.089 169.551 161.308 169.745 160.665 170.186C160.357 170.433 160.102 170.738 159.913 171.083C159.724 171.429 159.606 171.809 159.565 172.2C159.493 173.048 159.499 173.901 159.582 174.748C159.626 175.621 159.67 176.5 159.714 177.385C159.891 180.927 160.072 184.573 160.257 188.283C160.545 194.062 160.817 199.682 161.078 204.991V205.021C160.704 210.442 160.407 215.635 160.284 220.492C160.255 221.706 160.241 222.9 160.257 224.069C160.234 225.199 160.327 226.328 160.534 227.439C160.906 228.45 161.492 229.368 162.254 230.129C162.972 230.878 163.773 231.542 164.641 232.11L164.67 232.129L164.689 232.151L167.724 235.847L167.469 235.827L176.113 228.242L176.08 228.386C175.128 226.108 174.31 223.776 173.632 221.402C173.404 220.582 173.262 219.946 173.177 219.516L173.094 219.027C173.079 218.972 173.072 218.915 173.072 218.858Z" fill="#EB996E"/>
<path d="M159.399 175.941C159.476 175.63 159.606 175.335 159.782 175.067C159.963 174.735 160.171 174.419 160.405 174.122C160.713 173.686 161.164 173.372 161.679 173.234C162.019 173.186 162.366 173.254 162.662 173.428C162.959 173.602 163.187 173.872 163.31 174.193C163.488 174.881 163.546 175.595 163.482 176.303C163.482 177.742 163.556 179.318 163.709 180.97C163.995 183.791 164.438 186.594 165.034 189.367C165.323 190.51 165.551 191.669 165.716 192.837C165.564 192.555 165.451 192.255 165.381 191.943C165.2 191.359 164.956 190.504 164.69 189.449C163.987 186.68 163.493 183.862 163.212 181.019C163.064 179.452 163 177.878 163.02 176.304C163.09 175.652 163.058 174.994 162.924 174.352C162.841 174.11 162.679 173.902 162.463 173.763C162.248 173.624 161.992 173.561 161.737 173.585C161.292 173.693 160.895 173.947 160.612 174.307C160.369 174.58 160.145 174.868 159.941 175.17C159.787 175.445 159.605 175.704 159.399 175.941Z" fill="#EB996E"/>
<path d="M160.033 188.746C160.009 188.746 159.983 188.599 159.953 188.319C159.917 187.911 159.914 187.502 159.943 187.094C159.975 186.446 160.128 185.81 160.394 185.218C160.575 184.821 160.839 184.468 161.168 184.182C161.496 183.895 161.883 183.683 162.301 183.558L162.544 183.488L162.577 183.74C162.798 185.502 163.083 187.584 163.455 189.797C164.001 193.088 164.626 196.044 165.103 198.178C165.41 199.321 165.652 200.48 165.829 201.65C165.674 201.37 165.558 201.07 165.485 200.758C165.293 200.174 165.044 199.32 164.76 198.265C164.194 196.145 163.513 193.187 162.962 189.881C162.589 187.658 162.327 185.565 162.149 183.79L162.424 183.972C162.055 184.072 161.712 184.249 161.416 184.491C161.121 184.733 160.879 185.035 160.709 185.377C160.438 185.925 160.263 186.515 160.193 187.122C160.056 188.142 160.097 188.745 160.033 188.746Z" fill="#EB996E"/>
<path d="M166.02 205.111C165.91 205.022 166.127 204.573 166.132 203.995C166.155 203.419 165.959 202.957 166.074 202.874C166.17 202.778 166.649 203.244 166.631 204.006C166.613 204.769 166.113 205.212 166.02 205.111Z" fill="#EB996E"/>
<path d="M166.896 197.128C166.756 197.094 166.832 196.376 166.705 195.523C166.577 194.669 166.326 193.997 166.451 193.926C166.56 193.852 167.07 194.488 167.2 195.455C167.329 196.421 167.021 197.17 166.896 197.128Z" fill="#EB996E"/>
<g opacity="0.3">
<g opacity="0.3">
<g opacity="0.3">
<path opacity="0.3" d="M170.831 235.666C169.052 233.617 166.815 231.55 164.101 231.568C161.698 231.584 159.645 233.245 157.934 234.934C152.443 240.57 147.946 247.094 144.634 254.232C141.198 261.289 137.021 269.759 134.402 277.158C140.178 275.95 145.259 272.363 149.145 267.921C153.031 263.479 155.831 258.201 158.327 252.853C159.19 251.012 160.422 248.872 162.45 248.826C163.952 248.795 165.18 249.976 166.112 251.158C168.809 254.562 170.619 258.565 172.523 262.47C174.427 266.374 176.496 270.29 179.583 273.346C182.669 276.402 186.956 278.525 191.274 278.045C186.355 263.038 181.196 247.591 170.831 235.666Z" fill="black"/>
</g>
</g>
</g>
<path d="M112.025 180.642C112.025 180.642 99.4491 188.569 99.0779 204.168C98.7068 219.766 99.6351 261.364 102.42 266.935C105.205 272.506 107.249 292.561 125.261 284.205C135.381 279.506 146.347 264.29 153.553 251.522C156.925 245.557 159.849 239.35 162.302 232.952L145.315 221.995L123.96 247.251L123.299 222.967L112.025 180.642Z" fill="#D2DC02"/>
<path d="M123.962 247.25C123.968 247.338 123.195 247.389 122.021 247.714C120.495 248.156 119.068 248.887 117.819 249.869C116.571 250.866 115.435 251.995 114.43 253.237C114.043 253.785 113.604 254.295 113.12 254.759C113.373 254.13 113.72 253.544 114.151 253.021C115.097 251.684 116.23 250.489 117.515 249.473C118.811 248.446 120.323 247.726 121.937 247.37C122.597 247.19 123.286 247.149 123.962 247.25Z" fill="#263238"/>
<path d="M123.856 247.059C122.186 247.016 120.514 247.083 118.853 247.26C117.218 247.605 115.607 248.058 114.032 248.616C115.462 247.666 117.079 247.036 118.775 246.767C120.47 246.499 122.203 246.598 123.856 247.059Z" fill="#263238"/>
<path d="M162.303 232.952C162.275 233.129 162.226 233.303 162.155 233.468C162.019 233.851 161.849 234.331 161.64 234.913C161.192 236.169 160.474 237.961 159.53 240.149C157.038 245.844 154.115 251.34 150.788 256.591C147.446 261.83 143.759 266.841 139.75 271.59C138.216 273.412 136.933 274.856 136.022 275.829C135.597 276.281 135.248 276.649 134.967 276.945C134.852 277.083 134.72 277.206 134.575 277.312C134.662 277.154 134.769 277.009 134.892 276.878C135.153 276.566 135.477 276.176 135.874 275.699C136.737 274.689 137.974 273.206 139.475 271.366C143.39 266.564 147.025 261.541 150.362 256.32C153.672 251.085 156.625 245.633 159.203 240.002C160.188 237.838 160.955 236.07 161.458 234.839L162.059 233.428C162.12 233.26 162.202 233.1 162.303 232.952Z" fill="#263238"/>
<path d="M123.299 222.967C123.333 223.117 123.35 223.271 123.35 223.425C123.369 223.768 123.393 224.208 123.424 224.756C123.473 225.968 123.541 227.655 123.626 229.761C123.767 234.099 123.963 240.152 124.193 247.24L123.784 247.097L133.132 236.015L145.15 221.85L145.275 221.702L145.436 221.807L157.69 229.819L161.115 232.1L162.009 232.717C162.117 232.781 162.216 232.859 162.304 232.948C162.187 232.903 162.075 232.845 161.972 232.775L161.042 232.214L157.55 230.035L145.198 222.171L145.486 222.129L133.516 236.333L124.133 247.399L123.738 247.866L123.725 247.257C123.569 240.167 123.437 234.111 123.341 229.773C123.312 227.663 123.289 225.977 123.271 224.764V223.432C123.263 223.276 123.273 223.121 123.299 222.967Z" fill="#263238"/>
<path d="M214.224 175.783C214.224 175.783 224.851 181.163 225.319 206.139C225.786 231.116 227.653 260.762 225.319 265.897C223.556 269.774 219.411 281.481 211.884 285.489C209.625 286.693 207.905 286.751 204.82 286.301C194.559 284.801 181.089 272.803 170.854 253.106C163.066 238.119 162.59 231.172 162.59 231.172L176.879 216.775L204.773 251.374L205.29 218.202L214.224 175.783Z" fill="#D2DC02"/>
<path d="M205.081 219.218C205.081 219.218 205.098 219.409 205.104 219.793C205.104 220.193 205.11 220.752 205.115 221.471C205.115 222.967 205.109 225.133 205.105 227.902C205.071 233.498 205.024 241.533 204.966 251.382V251.912L204.632 251.499L176.688 216.931L177.056 216.952L166.005 228.089L162.766 231.35L162.833 231.12C165.459 242.261 170.157 252.809 176.681 262.214C181.858 269.923 188.327 276.682 195.802 282.192C197.288 283.326 198.889 284.301 200.578 285.1C201.356 285.454 202.166 285.734 202.996 285.937C203.783 286.1 204.578 286.221 205.377 286.298C208.032 286.621 210.72 286.097 213.058 284.8C214.488 283.912 215.723 282.744 216.69 281.366C217.029 280.899 217.272 280.532 217.431 280.283C217.591 280.033 217.685 279.912 217.685 279.912C217.414 280.435 217.108 280.939 216.771 281.422C215.826 282.841 214.594 284.046 213.156 284.961C210.793 286.312 208.06 286.876 205.355 286.569C204.541 286.497 203.731 286.381 202.93 286.221C202.08 286.019 201.25 285.739 200.453 285.383C198.737 284.586 197.11 283.609 195.599 282.47C188.055 276.975 181.526 270.208 176.304 262.472C169.721 253.032 164.984 242.431 162.342 231.229L162.311 231.097L162.407 231.001L165.645 227.74L176.702 216.607L176.894 216.415L177.068 216.632C187.617 229.754 197.19 241.656 204.916 251.265L204.579 251.381C204.708 241.532 204.812 233.498 204.885 227.903C204.933 225.134 204.972 222.969 204.998 221.473C205.016 220.753 205.03 220.195 205.041 219.795C205.061 219.411 205.081 219.218 205.081 219.218Z" fill="#263238"/>
<path d="M216.183 264.261C215.656 263.608 215.176 262.919 214.744 262.199C213.604 260.539 212.355 258.956 211.004 257.463C209.641 255.977 208.2 254.565 206.688 253.232C206.028 252.712 205.41 252.141 204.84 251.522C205.587 251.917 206.284 252.4 206.916 252.961C208.51 254.228 210 255.621 211.37 257.127C212.742 258.635 213.968 260.268 215.033 262.006C215.514 262.704 215.9 263.462 216.183 264.261Z" fill="#263238"/>
<path d="M213.085 180.791C213.151 180.845 212.318 181.877 211.158 183.668C208.12 188.33 206.134 193.597 205.337 199.103C205.029 201.213 204.974 202.536 204.888 202.533C204.827 202.226 204.81 201.912 204.837 201.599C204.84 200.75 204.891 199.902 204.987 199.059C205.601 193.45 207.623 188.088 210.865 183.471C211.35 182.774 211.872 182.103 212.429 181.463C212.827 181.007 213.058 180.77 213.085 180.791Z" fill="#263238"/>
<path d="M120.961 206.376C120.884 206.385 120.707 205.096 120.328 203.034C119.356 197.66 117.765 192.416 115.586 187.409C115.09 186.388 114.645 185.343 114.254 184.278C114.456 184.51 114.624 184.768 114.755 185.046C115.052 185.555 115.447 186.31 115.906 187.259C118.281 192.227 119.889 197.525 120.676 202.975C120.822 204.018 120.913 204.867 120.949 205.456C120.997 205.76 121.001 206.07 120.961 206.376Z" fill="#263238"/>
<g opacity="0.3">
<g opacity="0.3">
<g opacity="0.3">
<path opacity="0.3" d="M217.568 264.205C217.116 262.183 216.064 260.345 214.549 258.931C211.742 255.919 208.438 253.412 204.782 251.519C209.319 255.142 213.223 259.494 216.332 264.397C216.575 264.781 217.043 265.212 217.399 264.935C217.486 264.838 217.548 264.72 217.578 264.592C217.607 264.465 217.604 264.331 217.568 264.205Z" fill="black"/>
</g>
</g>
</g>
<g opacity="0.3">
<g opacity="0.3">
<g opacity="0.3">
<path opacity="0.3" d="M123.78 247.217C120.844 246.773 117.844 247.329 115.262 248.794C112.68 250.259 110.664 252.549 109.54 255.297C109.305 255.793 109.186 256.336 109.194 256.884C109.201 257.158 109.285 257.425 109.434 257.654C109.584 257.884 109.795 258.067 110.042 258.185C110.345 258.27 110.667 258.262 110.965 258.163C111.264 258.064 111.526 257.877 111.718 257.628C112.093 257.123 112.384 256.561 112.581 255.964C113.597 253.592 115.227 251.533 117.303 250.001C119.378 248.468 121.825 247.517 124.391 247.244L123.78 247.217Z" fill="black"/>
</g>
</g>
</g>
<path d="M200.261 250.171C200.207 250.186 200.009 249.534 199.57 248.534C198.425 245.921 196.635 243.642 194.367 241.91C193.501 241.247 192.914 240.9 192.942 240.851C193.503 241.063 194.03 241.355 194.506 241.72C196.901 243.382 198.74 245.725 199.788 248.445C200.029 248.994 200.188 249.575 200.261 250.171Z" fill="#263238"/>
<path d="M190.228 200.341C189.902 200.246 189.613 200.056 189.396 199.796C189.179 199.536 189.044 199.217 189.009 198.88C188.974 198.544 189.04 198.204 189.199 197.905C189.358 197.606 189.603 197.361 189.901 197.201C190.2 197.041 190.54 196.974 190.877 197.009C191.214 197.043 191.533 197.177 191.793 197.393C192.054 197.61 192.244 197.899 192.34 198.224C192.435 198.549 192.432 198.895 192.329 199.218C192.2 199.646 191.905 200.004 191.511 200.215C191.117 200.425 190.655 200.47 190.228 200.341Z" fill="#263238"/>
<path d="M203.076 194.829C202.769 195.059 202.4 195.191 202.017 195.206C201.633 195.222 201.255 195.12 200.93 194.915C200.606 194.71 200.352 194.412 200.202 194.059C200.051 193.706 200.012 193.316 200.088 192.94C200.164 192.564 200.353 192.221 200.63 191.955C200.906 191.689 201.257 191.513 201.635 191.451C202.014 191.389 202.402 191.444 202.749 191.608C203.096 191.772 203.384 192.037 203.576 192.369C203.835 192.762 203.927 193.241 203.833 193.702C203.739 194.163 203.467 194.568 203.076 194.829Z" fill="#263238"/>
<path d="M207.026 180.402C206.719 180.633 206.35 180.764 205.967 180.78C205.583 180.795 205.205 180.694 204.88 180.489C204.556 180.284 204.302 179.985 204.152 179.632C204.001 179.28 203.961 178.889 204.038 178.514C204.114 178.138 204.303 177.794 204.58 177.528C204.856 177.262 205.207 177.087 205.585 177.025C205.964 176.963 206.352 177.018 206.699 177.181C207.045 177.345 207.334 177.611 207.526 177.943C207.785 178.336 207.877 178.815 207.783 179.276C207.689 179.736 207.417 180.141 207.026 180.402Z" fill="#263238"/>
<path d="M198.521 215.114C197.603 215.05 196.925 214.074 197.007 212.938C197.089 211.801 197.899 210.938 198.817 211.004C199.736 211.069 200.413 212.043 200.331 213.18C200.249 214.316 199.438 215.178 198.521 215.114Z" fill="#263238"/>
<path d="M220.521 267.114C219.603 267.05 218.925 266.074 219.007 264.938C219.089 263.801 219.899 262.938 220.817 263.004C221.736 263.069 222.413 264.043 222.331 265.18C222.249 266.316 221.438 267.178 220.521 267.114Z" fill="#263238"/>
<path d="M220.361 217.124C220.07 217.265 219.742 217.317 219.421 217.273C219.1 217.229 218.799 217.091 218.556 216.877C218.313 216.662 218.139 216.38 218.055 216.067C217.972 215.753 217.983 215.422 218.087 215.115C218.192 214.808 218.384 214.539 218.641 214.341C218.898 214.144 219.208 214.026 219.531 214.004C219.855 213.982 220.178 214.056 220.459 214.216C220.741 214.377 220.969 214.617 221.114 214.907C221.21 215.102 221.267 215.314 221.281 215.531C221.295 215.748 221.267 215.966 221.197 216.171C221.127 216.377 221.017 216.567 220.874 216.731C220.73 216.894 220.556 217.028 220.361 217.124Z" fill="#263238"/>
<path d="M213.361 206.124C213.07 206.265 212.742 206.317 212.421 206.273C212.1 206.229 211.799 206.091 211.556 205.877C211.313 205.662 211.139 205.38 211.055 205.067C210.972 204.753 210.983 204.422 211.087 204.115C211.192 203.808 211.384 203.539 211.641 203.341C211.898 203.144 212.208 203.026 212.531 203.004C212.855 202.982 213.178 203.056 213.459 203.216C213.741 203.377 213.969 203.617 214.114 203.907C214.21 204.102 214.267 204.314 214.281 204.531C214.295 204.748 214.267 204.966 214.197 205.171C214.127 205.377 214.017 205.567 213.874 205.731C213.73 205.894 213.556 206.028 213.361 206.124Z" fill="#263238"/>
<path d="M195.528 224.427C195.302 224.696 195 224.89 194.662 224.986C194.324 225.082 193.965 225.074 193.632 224.964C193.298 224.853 193.005 224.646 192.791 224.367C192.577 224.089 192.451 223.752 192.43 223.402C192.409 223.051 192.493 222.702 192.672 222.4C192.851 222.098 193.117 221.856 193.435 221.707C193.753 221.557 194.108 221.506 194.455 221.56C194.802 221.615 195.125 221.772 195.382 222.011C195.721 222.313 195.927 222.736 195.954 223.189C195.982 223.642 195.828 224.087 195.528 224.427Z" fill="#263238"/>
<path d="M201.101 238.888C200.875 239.157 200.574 239.351 200.236 239.447C199.898 239.543 199.539 239.535 199.205 239.425C198.871 239.314 198.579 239.107 198.364 238.828C198.15 238.55 198.024 238.213 198.003 237.863C197.982 237.512 198.066 237.163 198.246 236.861C198.425 236.559 198.69 236.317 199.008 236.167C199.326 236.018 199.681 235.967 200.029 236.021C200.376 236.075 200.698 236.233 200.955 236.472C201.295 236.773 201.5 237.197 201.528 237.65C201.555 238.103 201.402 238.548 201.101 238.888Z" fill="#263238"/>
<path d="M214.514 226.264C214.777 226.441 214.982 226.691 215.104 226.983C215.226 227.276 215.259 227.598 215.199 227.909C215.139 228.221 214.989 228.507 214.767 228.734C214.545 228.96 214.261 229.116 213.951 229.182C213.641 229.249 213.319 229.222 213.024 229.106C212.729 228.99 212.474 228.79 212.292 228.53C212.11 228.271 212.009 227.963 212.001 227.646C211.992 227.329 212.077 227.017 212.245 226.748C212.363 226.568 212.514 226.412 212.691 226.289C212.869 226.167 213.069 226.081 213.279 226.036C213.49 225.991 213.707 225.988 213.919 226.027C214.131 226.066 214.333 226.147 214.514 226.264Z" fill="#263238"/>
<path d="M179.521 187.114C178.603 187.05 177.925 186.074 178.007 184.938C178.089 183.801 178.899 182.938 179.817 183.004C180.736 183.069 181.413 184.043 181.331 185.18C181.249 186.316 180.438 187.178 179.521 187.114Z" fill="#263238"/>
<path d="M192.521 184.114C191.603 184.05 190.925 183.074 191.007 181.938C191.089 180.801 191.899 179.938 192.817 180.004C193.736 180.069 194.413 181.043 194.331 182.18C194.249 183.316 193.438 184.178 192.521 184.114Z" fill="#263238"/>
<path d="M178.528 201.427C178.302 201.696 178 201.89 177.662 201.986C177.324 202.082 176.965 202.074 176.632 201.964C176.298 201.853 176.005 201.646 175.791 201.367C175.577 201.089 175.451 200.752 175.43 200.402C175.409 200.051 175.493 199.702 175.672 199.4C175.851 199.098 176.117 198.856 176.435 198.707C176.753 198.557 177.108 198.506 177.455 198.56C177.802 198.615 178.125 198.772 178.382 199.011C178.721 199.313 178.927 199.736 178.954 200.189C178.982 200.642 178.828 201.087 178.528 201.427Z" fill="#263238"/>
<path d="M186.514 209.264C186.777 209.441 186.982 209.691 187.104 209.983C187.226 210.276 187.259 210.598 187.199 210.909C187.139 211.221 186.989 211.507 186.767 211.734C186.545 211.96 186.261 212.116 185.951 212.182C185.641 212.249 185.319 212.222 185.024 212.106C184.729 211.99 184.474 211.79 184.292 211.53C184.11 211.271 184.009 210.963 184.001 210.646C183.992 210.329 184.077 210.017 184.245 209.748C184.363 209.568 184.514 209.412 184.691 209.289C184.869 209.167 185.069 209.081 185.279 209.036C185.49 208.991 185.707 208.988 185.919 209.027C186.131 209.066 186.333 209.147 186.514 209.264Z" fill="#263238"/>
<path d="M221.219 242.783C220.956 242.749 220.708 242.641 220.505 242.472C220.301 242.303 220.149 242.079 220.068 241.827C219.986 241.575 219.978 241.305 220.044 241.049C220.11 240.793 220.248 240.56 220.441 240.379C220.634 240.198 220.874 240.075 221.134 240.025C221.394 239.975 221.663 240 221.91 240.097C222.156 240.195 222.37 240.36 222.526 240.574C222.682 240.788 222.774 241.041 222.791 241.306C222.775 241.709 222.601 242.089 222.307 242.365C222.013 242.641 221.622 242.791 221.219 242.783Z" fill="#263238"/>
<path d="M212.219 247.783C211.956 247.749 211.708 247.641 211.505 247.472C211.301 247.303 211.149 247.079 211.068 246.827C210.986 246.575 210.978 246.305 211.044 246.049C211.11 245.793 211.248 245.56 211.441 245.379C211.634 245.198 211.874 245.075 212.134 245.025C212.394 244.975 212.663 245 212.91 245.097C213.156 245.195 213.37 245.36 213.526 245.574C213.682 245.788 213.774 246.041 213.791 246.306C213.775 246.709 213.601 247.089 213.307 247.365C213.013 247.641 212.622 247.791 212.219 247.783Z" fill="#263238"/>
<path d="M217.114 193.906C216.839 193.837 216.589 193.689 216.396 193.482C216.203 193.274 216.073 193.015 216.023 192.736C215.973 192.457 216.005 192.169 216.114 191.907C216.223 191.646 216.406 191.421 216.639 191.26C216.873 191.099 217.148 191.009 217.432 191.001C217.715 190.992 217.995 191.066 218.238 191.212C218.481 191.359 218.677 191.572 218.801 191.827C218.926 192.082 218.975 192.367 218.941 192.649C218.864 193.057 218.629 193.419 218.287 193.654C217.944 193.89 217.523 193.981 217.114 193.906Z" fill="#263238"/>
<path d="M203.958 261.066C203.697 261.305 203.371 261.46 203.022 261.511C202.672 261.563 202.315 261.508 201.997 261.354C201.679 261.201 201.414 260.955 201.237 260.649C201.06 260.343 200.979 259.991 201.005 259.639C201.03 259.286 201.16 258.95 201.379 258.672C201.598 258.395 201.895 258.189 202.231 258.083C202.568 257.976 202.929 257.972 203.268 258.073C203.607 258.174 203.907 258.374 204.131 258.647C204.429 258.991 204.577 259.439 204.545 259.893C204.512 260.346 204.301 260.768 203.958 261.066Z" fill="#263238"/>
<path d="M198.532 271.485C198.938 271.436 199.349 271.513 199.71 271.705C200.071 271.898 200.364 272.196 200.55 272.56C200.735 272.925 200.805 273.338 200.748 273.743C200.691 274.148 200.512 274.525 200.234 274.825C199.955 275.125 199.592 275.332 199.192 275.418C198.792 275.504 198.375 275.465 197.998 275.307C197.621 275.149 197.302 274.879 197.084 274.533C196.865 274.187 196.758 273.783 196.777 273.374C196.763 272.892 196.939 272.423 197.267 272.07C197.595 271.716 198.05 271.506 198.532 271.485Z" fill="#263238"/>
<path d="M186.122 256.918C186.117 257.143 186.057 257.363 185.947 257.559C185.837 257.755 185.68 257.922 185.491 258.043C185.266 258.174 185.015 258.256 184.755 258.282C184.496 258.308 184.233 258.279 183.986 258.197C183.738 258.114 183.511 257.98 183.319 257.803C183.128 257.626 182.976 257.411 182.874 257.17C182.795 256.959 182.77 256.732 182.8 256.509C182.829 256.286 182.913 256.074 183.044 255.89C183.292 255.543 183.636 255.275 184.033 255.118C184.186 255.036 184.354 254.986 184.528 254.972C184.701 254.957 184.875 254.978 185.04 255.033C185.205 255.088 185.357 255.176 185.486 255.291C185.616 255.407 185.721 255.547 185.795 255.705C186.019 256.069 186.132 256.49 186.122 256.918Z" fill="#263238"/>
<path d="M184.726 244.566C184.499 244.446 184.311 244.265 184.183 244.043C184.054 243.821 183.991 243.568 184.001 243.312C184.01 243.055 184.092 242.807 184.236 242.595C184.381 242.383 184.582 242.217 184.817 242.114C185.051 242.011 185.31 241.977 185.564 242.015C185.817 242.053 186.055 242.162 186.249 242.329C186.444 242.496 186.587 242.714 186.663 242.959C186.739 243.204 186.744 243.465 186.678 243.713C186.528 244.082 186.24 244.377 185.875 244.536C185.511 244.696 185.098 244.706 184.726 244.566Z" fill="#263238"/>
<path d="M174.546 238.793C174.44 238.998 174.284 239.174 174.092 239.304C173.9 239.433 173.679 239.513 173.448 239.535C172.881 239.577 172.318 239.406 171.869 239.057C171.42 238.708 171.116 238.205 171.016 237.645C170.981 237.416 171.003 237.183 171.082 236.965C171.16 236.747 171.291 236.553 171.464 236.399C171.819 236.135 172.251 235.995 172.693 236C173.136 236.005 173.564 236.155 173.913 236.426C174.262 236.698 174.513 237.076 174.627 237.503C174.74 237.931 174.711 238.383 174.543 238.793H174.546Z" fill="#263238"/>
<path d="M215.385 272.11C215.603 272.231 215.784 272.411 215.906 272.629C216.027 272.848 216.085 273.096 216.073 273.345C216.054 274.05 215.817 274.731 215.394 275.295C214.971 275.858 214.384 276.277 213.713 276.492C213.477 276.574 213.222 276.588 212.979 276.532C212.735 276.476 212.512 276.353 212.334 276.177C212.189 275.989 212.087 275.771 212.037 275.538C211.986 275.306 211.988 275.065 212.042 274.833C212.152 274.276 212.386 273.751 212.727 273.297C213.068 272.843 213.506 272.471 214.01 272.209C214.217 272.091 214.448 272.021 214.686 272.004C214.924 271.987 215.162 272.023 215.385 272.11Z" fill="#263238"/>
<path d="M126.374 251.171C126.43 251.186 126.637 250.534 127.096 249.534C128.295 246.921 130.168 244.642 132.542 242.91C133.449 242.247 134.063 241.9 134.034 241.851C133.446 242.063 132.895 242.355 132.396 242.72C129.89 244.382 127.965 246.725 126.869 249.445C126.616 249.994 126.449 250.575 126.374 251.171Z" fill="#263238"/>
<path d="M136.875 201.341C137.215 201.246 137.518 201.056 137.745 200.796C137.973 200.536 138.113 200.217 138.15 199.88C138.187 199.544 138.117 199.204 137.951 198.905C137.785 198.606 137.529 198.361 137.216 198.201C136.903 198.041 136.548 197.974 136.195 198.009C135.843 198.043 135.509 198.177 135.236 198.393C134.963 198.61 134.764 198.899 134.664 199.224C134.564 199.549 134.568 199.895 134.675 200.218C134.811 200.646 135.119 201.004 135.531 201.215C135.944 201.425 136.427 201.47 136.875 201.341Z" fill="#263238"/>
<path d="M123.427 195.829C123.748 196.059 124.134 196.191 124.536 196.206C124.937 196.222 125.333 196.12 125.672 195.915C126.012 195.71 126.278 195.412 126.435 195.059C126.593 194.706 126.634 194.316 126.554 193.94C126.474 193.564 126.276 193.221 125.987 192.955C125.698 192.689 125.331 192.513 124.935 192.451C124.539 192.389 124.132 192.444 123.769 192.608C123.406 192.772 123.104 193.037 122.903 193.369C122.633 193.762 122.536 194.241 122.634 194.702C122.733 195.163 123.017 195.568 123.427 195.829Z" fill="#263238"/>
<path d="M128.194 216.114C129.156 216.05 129.865 215.074 129.779 213.938C129.694 212.801 128.846 211.938 127.884 212.004C126.923 212.069 126.214 213.043 126.3 214.18C126.386 215.316 127.235 216.178 128.194 216.114Z" fill="#263238"/>
<path d="M105.167 268.114C106.129 268.05 106.838 267.074 106.752 265.938C106.667 264.801 105.818 263.938 104.857 264.004C103.896 264.069 103.187 265.043 103.273 266.18C103.359 267.316 104.207 268.178 105.167 268.114Z" fill="#263238"/>
<path d="M105.335 218.124C105.64 218.265 105.982 218.317 106.319 218.273C106.655 218.229 106.97 218.091 107.224 217.877C107.479 217.662 107.661 217.38 107.748 217.067C107.836 216.753 107.824 216.422 107.715 216.115C107.606 215.808 107.404 215.539 107.135 215.341C106.866 215.144 106.542 215.026 106.203 215.004C105.865 214.982 105.527 215.056 105.232 215.216C104.937 215.377 104.699 215.617 104.547 215.907C104.446 216.102 104.387 216.314 104.372 216.531C104.357 216.748 104.387 216.966 104.46 217.171C104.533 217.377 104.648 217.567 104.798 217.731C104.948 217.894 105.131 218.028 105.335 218.124Z" fill="#263238"/>
<path d="M112.661 207.124C112.967 207.265 113.309 207.317 113.645 207.273C113.981 207.229 114.297 207.091 114.551 206.877C114.805 206.662 114.988 206.38 115.075 206.067C115.162 205.753 115.151 205.422 115.041 205.115C114.932 204.808 114.731 204.539 114.462 204.341C114.193 204.144 113.869 204.026 113.53 204.004C113.191 203.982 112.853 204.056 112.559 204.216C112.264 204.377 112.026 204.617 111.873 204.907C111.773 205.102 111.713 205.314 111.699 205.531C111.684 205.748 111.714 205.966 111.787 206.171C111.86 206.377 111.975 206.567 112.125 206.731C112.275 206.894 112.457 207.028 112.661 207.124Z" fill="#263238"/>
<path d="M131.327 225.427C131.564 225.696 131.88 225.89 132.233 225.986C132.587 226.082 132.963 226.074 133.312 225.964C133.661 225.853 133.968 225.646 134.192 225.367C134.416 225.089 134.548 224.752 134.57 224.402C134.592 224.051 134.504 223.702 134.316 223.4C134.129 223.098 133.851 222.856 133.518 222.707C133.185 222.557 132.813 222.506 132.45 222.56C132.087 222.615 131.749 222.772 131.48 223.011C131.125 223.313 130.909 223.736 130.881 224.189C130.852 224.642 131.013 225.087 131.327 225.427Z" fill="#263238"/>
<path d="M125.494 239.888C125.73 240.157 126.046 240.351 126.4 240.447C126.754 240.543 127.129 240.535 127.478 240.425C127.828 240.314 128.134 240.107 128.358 239.828C128.583 239.55 128.714 239.213 128.736 238.863C128.759 238.512 128.67 238.163 128.483 237.861C128.295 237.559 128.017 237.317 127.684 237.167C127.352 237.018 126.98 236.967 126.617 237.021C126.253 237.075 125.915 237.233 125.646 237.472C125.291 237.773 125.076 238.197 125.047 238.65C125.019 239.103 125.179 239.548 125.494 239.888Z" fill="#263238"/>
<path d="M111.455 227.264C111.18 227.441 110.965 227.691 110.837 227.983C110.71 228.276 110.675 228.598 110.738 228.909C110.801 229.221 110.958 229.507 111.19 229.734C111.422 229.96 111.719 230.116 112.044 230.182C112.368 230.249 112.706 230.222 113.015 230.106C113.324 229.99 113.59 229.79 113.78 229.53C113.971 229.271 114.077 228.963 114.086 228.646C114.094 228.329 114.005 228.017 113.829 227.748C113.707 227.568 113.548 227.412 113.362 227.289C113.177 227.167 112.968 227.081 112.747 227.036C112.527 226.991 112.299 226.988 112.078 227.027C111.856 227.066 111.644 227.147 111.455 227.264Z" fill="#263238"/>
<path d="M148.081 196.114C149.043 196.05 149.752 195.074 149.666 193.938C149.581 192.801 148.733 191.938 147.771 192.004C146.81 192.069 146.101 193.043 146.187 194.18C146.273 195.316 147.121 196.178 148.081 196.114Z" fill="#263238"/>
<path d="M134.474 185.114C135.436 185.05 136.145 184.074 136.059 182.938C135.974 181.801 135.126 180.938 134.164 181.004C133.203 181.069 132.494 182.043 132.58 183.18C132.666 184.316 133.515 185.178 134.474 185.114Z" fill="#263238"/>
<path d="M163.875 275.341C164.215 275.246 164.518 275.056 164.745 274.796C164.973 274.536 165.113 274.217 165.15 273.88C165.187 273.544 165.117 273.204 164.951 272.905C164.785 272.606 164.529 272.361 164.216 272.201C163.903 272.041 163.548 271.974 163.195 272.009C162.843 272.043 162.509 272.177 162.236 272.393C161.963 272.61 161.764 272.899 161.664 273.224C161.564 273.549 161.568 273.895 161.675 274.218C161.811 274.646 162.119 275.004 162.531 275.215C162.944 275.425 163.427 275.47 163.875 275.341Z" fill="#263238"/>
<path d="M150.427 269.829C150.748 270.059 151.134 270.191 151.536 270.206C151.937 270.222 152.333 270.12 152.672 269.915C153.012 269.71 153.278 269.412 153.435 269.059C153.593 268.706 153.634 268.316 153.554 267.94C153.474 267.564 153.276 267.221 152.987 266.955C152.698 266.689 152.331 266.513 151.935 266.451C151.539 266.389 151.132 266.444 150.769 266.608C150.406 266.772 150.104 267.037 149.903 267.369C149.633 267.762 149.536 268.241 149.634 268.702C149.733 269.163 150.017 269.568 150.427 269.829Z" fill="#263238"/>
<path d="M175.081 270.114C176.043 270.05 176.752 269.074 176.666 267.938C176.581 266.801 175.733 265.938 174.771 266.004C173.81 266.069 173.101 267.043 173.187 268.18C173.273 269.316 174.121 270.178 175.081 270.114Z" fill="#263238"/>
<path d="M161.474 259.114C162.436 259.05 163.145 258.074 163.059 256.938C162.974 255.801 162.126 254.938 161.164 255.004C160.203 255.069 159.494 256.043 159.58 257.18C159.666 258.316 160.515 259.178 161.474 259.114Z" fill="#263238"/>
<path d="M140.762 210.264C140.487 210.441 140.272 210.691 140.144 210.983C140.017 211.276 139.982 211.598 140.045 211.909C140.108 212.221 140.265 212.507 140.497 212.734C140.729 212.96 141.026 213.116 141.351 213.182C141.675 213.249 142.013 213.222 142.322 213.106C142.631 212.99 142.897 212.79 143.087 212.53C143.278 212.271 143.384 211.963 143.392 211.646C143.401 211.329 143.312 211.017 143.136 210.748C143.014 210.568 142.855 210.412 142.669 210.289C142.484 210.167 142.275 210.081 142.054 210.036C141.834 209.991 141.606 209.988 141.384 210.027C141.163 210.066 140.951 210.147 140.762 210.264Z" fill="#263238"/>
<path d="M104.437 243.783C104.712 243.749 104.971 243.641 105.184 243.472C105.398 243.303 105.556 243.079 105.642 242.827C105.727 242.575 105.736 242.305 105.667 242.049C105.597 241.793 105.454 241.56 105.252 241.379C105.049 241.198 104.798 241.075 104.525 241.025C104.253 240.975 103.972 241 103.714 241.097C103.456 241.195 103.232 241.36 103.069 241.574C102.906 241.788 102.809 242.041 102.791 242.306C102.809 242.709 102.991 243.089 103.298 243.365C103.606 243.641 104.015 243.791 104.437 243.783Z" fill="#263238"/>
<path d="M113.857 248.783C114.132 248.749 114.391 248.641 114.605 248.472C114.818 248.303 114.976 248.079 115.062 247.827C115.147 247.575 115.156 247.305 115.087 247.049C115.018 246.793 114.874 246.56 114.672 246.379C114.47 246.198 114.218 246.075 113.946 246.025C113.673 245.975 113.392 246 113.134 246.097C112.876 246.195 112.653 246.36 112.489 246.574C112.326 246.788 112.229 247.041 112.211 247.306C112.229 247.709 112.411 248.089 112.719 248.365C113.026 248.641 113.435 248.791 113.857 248.783Z" fill="#263238"/>
<path d="M108.734 194.906C109.022 194.837 109.282 194.689 109.485 194.482C109.687 194.274 109.823 194.015 109.875 193.736C109.928 193.457 109.895 193.169 109.78 192.907C109.666 192.646 109.475 192.421 109.23 192.26C108.986 192.099 108.698 192.009 108.401 192.001C108.104 191.992 107.811 192.066 107.557 192.212C107.302 192.359 107.098 192.572 106.967 192.827C106.837 193.082 106.786 193.367 106.821 193.649C106.901 194.057 107.148 194.419 107.506 194.654C107.864 194.89 108.306 194.981 108.734 194.906Z" fill="#263238"/>
<path d="M122.504 262.066C122.777 262.305 123.118 262.46 123.484 262.511C123.85 262.563 124.223 262.508 124.556 262.354C124.889 262.201 125.166 261.955 125.351 261.649C125.536 261.343 125.621 260.991 125.595 260.639C125.568 260.286 125.432 259.95 125.203 259.672C124.974 259.395 124.663 259.189 124.311 259.083C123.958 258.976 123.58 258.972 123.226 259.073C122.871 259.174 122.557 259.374 122.322 259.647C122.011 259.991 121.855 260.439 121.889 260.893C121.923 261.346 122.144 261.768 122.504 262.066Z" fill="#263238"/>
<path d="M128.183 272.485C127.758 272.436 127.328 272.513 126.95 272.705C126.572 272.898 126.265 273.196 126.071 273.56C125.877 273.925 125.804 274.338 125.863 274.743C125.923 275.148 126.111 275.525 126.402 275.825C126.693 276.125 127.074 276.332 127.492 276.418C127.911 276.504 128.347 276.465 128.741 276.307C129.136 276.149 129.47 275.879 129.699 275.533C129.928 275.187 130.04 274.783 130.02 274.374C130.035 273.892 129.851 273.423 129.507 273.07C129.163 272.716 128.688 272.506 128.183 272.485Z" fill="#263238"/>
<path d="M141.172 257.918C141.177 258.143 141.24 258.363 141.355 258.559C141.471 258.755 141.634 258.922 141.832 259.043C142.068 259.174 142.331 259.256 142.603 259.282C142.874 259.308 143.149 259.279 143.408 259.197C143.667 259.114 143.905 258.98 144.105 258.803C144.306 258.626 144.465 258.411 144.572 258.17C144.654 257.959 144.681 257.732 144.65 257.509C144.618 257.286 144.531 257.074 144.394 256.89C144.134 256.543 143.774 256.275 143.359 256.118C143.198 256.036 143.022 255.986 142.841 255.972C142.66 255.957 142.477 255.978 142.305 256.033C142.132 256.088 141.973 256.176 141.837 256.291C141.701 256.407 141.592 256.547 141.515 256.705C141.28 257.069 141.161 257.49 141.172 257.918Z" fill="#263238"/>
<path d="M142.633 245.566C142.871 245.446 143.068 245.265 143.202 245.043C143.336 244.821 143.402 244.568 143.392 244.312C143.382 244.055 143.297 243.807 143.146 243.595C142.995 243.383 142.784 243.217 142.538 243.114C142.293 243.011 142.021 242.977 141.756 243.015C141.491 243.053 141.242 243.162 141.039 243.329C140.835 243.496 140.685 243.714 140.606 243.959C140.526 244.204 140.521 244.465 140.59 244.713C140.747 245.082 141.049 245.377 141.43 245.536C141.812 245.696 142.244 245.706 142.633 245.566Z" fill="#263238"/>
<path d="M153.288 239.793C153.4 239.998 153.563 240.174 153.764 240.304C153.965 240.433 154.196 240.513 154.437 240.535C155.031 240.577 155.62 240.406 156.09 240.057C156.56 239.708 156.878 239.205 156.983 238.645C157.02 238.416 156.997 238.183 156.915 237.965C156.833 237.747 156.695 237.553 156.514 237.399C156.142 237.135 155.69 236.995 155.228 237C154.765 237.005 154.316 237.155 153.951 237.426C153.585 237.698 153.323 238.076 153.204 238.503C153.085 238.931 153.116 239.383 153.292 239.793H153.288Z" fill="#263238"/>
<path d="M110.544 273.11C110.315 273.231 110.126 273.411 109.998 273.629C109.871 273.848 109.81 274.096 109.823 274.345C109.843 275.05 110.091 275.731 110.534 276.295C110.976 276.858 111.591 277.277 112.293 277.492C112.541 277.574 112.807 277.588 113.062 277.532C113.317 277.476 113.551 277.353 113.736 277.177C113.888 276.989 113.995 276.771 114.048 276.538C114.101 276.306 114.099 276.065 114.042 275.833C113.927 275.276 113.682 274.751 113.325 274.297C112.969 273.843 112.51 273.471 111.983 273.209C111.766 273.091 111.524 273.021 111.275 273.004C111.026 272.987 110.776 273.023 110.544 273.11Z" fill="#263238"/>
</g>
<defs>
<clipPath id="clip0">
<rect width="320" height="320" fill="white"/>
</clipPath>
</defs>
</svg>
