<svg width="320" height="320" viewBox="0 0 320 320" fill="none" xmlns="http://www.w3.org/2000/svg">
<g clip-path="url(#clip0)">
<path d="M11.1784 154.202C11.1784 154.202 4.043 155.324 8.33869 170.918C12.6344 186.512 16.1851 194.525 16.1851 194.525C16.1851 194.525 16.7886 198.064 13.9259 198.006C11.0632 197.948 5.18989 195.729 3.26668 198.851C1.2718 202.089 3.13484 205.914 7.69357 209.871C12.2523 213.828 21.922 222.863 22.7931 223.685C23.6488 224.49 24.3169 226.217 22.3605 226.49C20.404 226.762 6.45133 225.377 6.19021 232.037C5.92909 238.697 20.443 247.635 22.011 248.64C23.579 249.645 23.8369 250.453 23.506 251.359C23.1752 252.266 18.5288 251.359 14.546 251.126C10.5633 250.893 5.90028 251.325 6.0718 255.18C6.24332 259.036 13.9502 268.646 36.0577 275.501L46.5064 278.008L54.0616 270.297C69.2245 252.81 70.7016 240.579 68.8117 237.214C66.9217 233.849 62.7368 235.942 59.4741 238.241C56.2113 240.54 52.7438 243.763 51.9861 243.169C51.2283 242.575 51.0209 241.754 51.8216 240.07C52.6222 238.387 60.2325 223.139 56.4968 217.619C52.7611 212.1 41.6392 220.637 39.8337 221.44C38.0283 222.243 37.6846 220.421 37.9867 219.286C38.2939 218.129 41.7397 205.35 43.5246 199.584C45.3096 193.818 44.8731 189.585 41.4702 187.887C38.1864 186.247 34.3701 191.232 31.9694 192.79C29.5688 194.349 28.2139 191.026 28.2139 191.026C28.2139 191.026 27.0017 182.346 22.4232 166.834C17.8446 151.322 11.0376 154.236 11.0376 154.236" fill="#EBEBEB"/>
<path d="M46.5431 280.595C43.2247 269.188 37.6689 248.816 32.8074 231.35C27.946 213.885 23.5332 198.086 20.2737 186.664C18.641 180.964 17.3181 176.347 16.3991 173.141C15.946 171.554 15.5927 170.317 15.3482 169.462C15.2349 169.052 15.1466 168.733 15.0833 168.502C15.0257 168.286 15.0039 168.173 15.0039 168.173C15.0039 168.173 15.0474 168.28 15.1159 168.493C15.1869 168.719 15.2855 169.035 15.4129 169.443C15.6689 170.293 16.0445 171.524 16.5239 173.103C17.4839 176.282 18.8439 180.893 20.5009 186.597C23.8186 198.004 28.2692 213.797 33.1287 231.26C37.9882 248.722 43.5101 269.107 46.7697 280.529" fill="#E0E0E0"/>
<path d="M11.3604 202.285C11.6034 202.377 11.8355 202.497 12.0522 202.641C12.4874 202.886 13.1056 203.26 13.866 203.729C15.384 204.669 17.45 206.022 19.6989 207.555L25.4455 211.501L27.1933 212.686C27.4186 212.816 27.6285 212.97 27.8192 213.147C27.5754 213.056 27.3425 212.939 27.1248 212.797C26.6903 212.549 26.0708 212.176 25.3156 211.699C23.8064 210.743 21.761 209.365 19.5108 207.831L13.738 203.927L11.9831 202.752C11.7586 202.62 11.5497 202.464 11.3604 202.285Z" fill="#E0E0E0"/>
<path d="M28.6775 212.621C28.5988 212.573 31.1998 208.195 34.4855 202.845C37.7713 197.494 40.5015 193.194 40.5783 193.242C40.6551 193.29 38.0567 197.667 34.7697 203.02C31.4826 208.372 28.7562 212.672 28.6775 212.621Z" fill="#E0E0E0"/>
<path d="M34.9316 239.775C35.0975 239.568 35.2855 239.38 35.4923 239.213L37.0923 237.764C38.4363 236.54 40.2923 234.84 42.2673 232.89C44.2424 230.94 45.9793 229.119 47.2209 227.789L48.6929 226.214C48.8618 226.009 49.0529 225.824 49.2625 225.661C49.129 225.891 48.9708 226.105 48.7908 226.301C48.4708 226.697 47.996 227.261 47.3944 227.948C46.1944 229.322 44.4856 231.176 42.499 233.128C40.5124 235.08 38.6347 236.762 37.2459 237.943C36.5489 238.531 35.9793 239.001 35.5768 239.314C35.379 239.491 35.1627 239.645 34.9316 239.775Z" fill="#E0E0E0"/>
<path d="M17.2109 233.873C17.4551 233.898 17.6954 233.952 17.9271 234.033L19.8426 234.589C21.4561 235.071 23.6769 235.76 26.1242 236.541C28.5716 237.322 30.7821 238.045 32.3764 238.589L34.2599 239.245C34.4957 239.313 34.7228 239.408 34.9364 239.529C34.6921 239.505 34.4516 239.451 34.2202 239.369L32.3047 238.814C30.6919 238.332 28.4705 237.642 26.0225 236.862C23.5745 236.082 21.3658 235.357 19.7709 234.814L17.8881 234.158C17.6519 234.09 17.4246 233.995 17.2109 233.873Z" fill="#E0E0E0"/>
<path d="M19.6904 258.547C20.0012 258.59 20.3074 258.662 20.605 258.761L23.0626 259.465C25.133 260.072 27.9867 260.932 31.1323 261.903C34.2779 262.873 37.1221 263.77 39.1752 264.435L41.6008 265.238C41.9028 265.324 42.1961 265.437 42.477 265.576C42.1661 265.534 41.8599 265.462 41.5624 265.363L39.1055 264.659C37.0351 264.052 34.1807 263.191 31.0338 262.221C27.8869 261.251 25.046 260.354 22.9928 259.69L20.5666 258.886C20.2646 258.8 19.9713 258.687 19.6904 258.547Z" fill="#E0E0E0"/>
<path d="M41.9766 265.253C42.1856 264.99 42.4173 264.746 42.669 264.524L44.6281 262.613C46.2806 260.999 48.5538 258.76 50.9942 256.218C53.4345 253.676 55.59 251.322 57.1382 249.606L58.9705 247.574C59.184 247.314 59.4195 247.072 59.6745 246.853C59.4973 247.138 59.2955 247.408 59.0716 247.658C58.6671 248.163 58.0706 248.883 57.318 249.761C55.8159 251.52 53.6879 253.906 51.238 256.449C48.7881 258.993 46.4905 261.212 44.7945 262.785C43.9446 263.57 43.2508 264.197 42.7612 264.62C42.5182 264.853 42.2557 265.065 41.9766 265.253Z" fill="#E0E0E0"/>
<path d="M158.244 132.881C157.867 132.873 157.495 132.782 157.156 132.616C157.512 132.49 157.891 132.443 158.267 132.479C158.875 132.472 159.364 132.591 159.355 132.743C159.346 132.895 158.848 132.957 158.244 132.881Z" fill="#E0E0E0"/>
<path d="M157.183 134.992C156.77 134.544 156.472 134.141 156.52 134.09C156.567 134.04 156.989 134.313 157.459 134.7C157.93 135.086 158.227 135.49 158.123 135.601C158.018 135.713 157.597 135.438 157.183 134.992Z" fill="#E0E0E0"/>
<path d="M155.014 135.93C154.957 135.556 154.982 135.175 155.086 134.812C155.271 135.142 155.383 135.507 155.414 135.884C155.525 136.481 155.493 136.982 155.341 137C155.189 137.018 155.043 136.537 155.014 135.93Z" fill="#E0E0E0"/>
<path d="M152.747 135.253C153.116 134.769 153.463 134.405 153.521 134.444C153.451 134.814 153.302 135.166 153.083 135.474C152.785 136.004 152.438 136.37 152.31 136.284C152.183 136.197 152.379 135.737 152.747 135.253Z" fill="#E0E0E0"/>
<path d="M151.447 133.281C151.805 133.161 152.185 133.118 152.56 133.157C152.268 133.397 151.928 133.571 151.563 133.668C150.994 133.884 150.494 133.94 150.45 133.797C150.406 133.653 150.854 133.416 151.447 133.281Z" fill="#E0E0E0"/>
<path d="M151.719 130.932C152.26 131.21 152.679 131.488 152.652 131.551C152.274 131.547 151.902 131.462 151.56 131.301C150.984 131.099 150.568 130.821 150.628 130.681C150.688 130.541 151.178 130.653 151.719 130.932Z" fill="#E0E0E0"/>
<path d="M153.435 129.307C153.617 129.638 153.726 130.004 153.755 130.381C153.691 130.412 153.39 130.011 153.079 129.485C152.768 128.959 152.625 128.48 152.759 128.411C152.893 128.342 153.199 128.746 153.435 129.307Z" fill="#E0E0E0"/>
<path d="M155.796 129.165C155.721 129.534 155.569 129.883 155.348 130.189C155.286 129.816 155.305 129.435 155.404 129.071C155.501 128.47 155.701 128.009 155.852 128.047C156.002 128.085 155.975 128.584 155.796 129.165Z" fill="#E0E0E0"/>
<path d="M157.695 130.573C157.401 130.809 157.06 130.98 156.694 131.073C156.652 131.017 156.994 130.648 157.455 130.251C157.916 129.853 158.365 129.629 158.457 129.752C158.549 129.874 158.207 130.24 157.695 130.573Z" fill="#E0E0E0"/>
<path d="M190.995 66.0519C189.541 65.8682 188.365 65.5834 188.374 65.4157C188.383 65.248 189.585 65.1002 191.051 65.0848C192.516 65.0695 193.691 65.3543 193.671 65.721C193.65 66.0877 192.448 66.2349 190.995 66.0519Z" fill="#E0E0E0"/>
<path d="M188.442 71.1366C187.447 70.0608 186.729 69.0886 186.842 68.9645C186.955 68.8403 187.971 69.5027 189.104 70.4326C190.237 71.3626 190.954 72.3366 190.704 72.6042C190.455 72.8717 189.436 72.2112 188.442 71.1366Z" fill="#E0E0E0"/>
<path d="M183.214 73.3952C183.145 71.9315 183.223 70.7239 183.388 70.704C183.554 70.6842 183.907 71.8432 184.176 73.2839C184.445 74.7245 184.368 75.9309 184.001 75.9719C183.635 76.0128 183.283 74.8583 183.214 73.3952Z" fill="#E0E0E0"/>
<path d="M177.758 71.7658C178.646 70.5997 179.481 69.7248 179.621 69.8157C179.76 69.9066 179.286 71.0215 178.567 72.2982C177.847 73.575 177.012 74.4493 176.704 74.2477C176.396 74.0461 176.871 72.9312 177.758 71.7658Z" fill="#E0E0E0"/>
<path d="M174.626 67.017C176.056 66.6931 177.258 66.5581 177.306 66.7168C177.354 66.8755 176.276 67.4259 174.905 67.9437C173.534 68.4615 172.332 68.5965 172.225 68.2432C172.118 67.8899 173.198 67.3402 174.626 67.017Z" fill="#E0E0E0"/>
<path d="M175.279 61.3594C176.582 62.0301 177.59 62.6995 177.525 62.8519C177.461 63.0042 176.28 62.7315 174.897 62.2471C173.514 61.7626 172.506 61.0951 172.652 60.7546C172.797 60.4141 173.976 60.6893 175.279 61.3594Z" fill="#E0E0E0"/>
<path d="M179.413 57.4458C179.982 58.7962 180.326 59.9565 180.181 60.0314C180.035 60.1063 179.301 59.1411 178.552 57.8816C177.802 56.6221 177.459 55.4631 177.784 55.2967C178.109 55.1303 178.844 56.096 179.413 57.4458Z" fill="#E0E0E0"/>
<path d="M185.097 57.1034C184.666 58.5037 184.183 59.6135 184.021 59.5763C183.86 59.5392 183.92 58.3296 184.155 56.8826C184.39 55.4355 184.871 54.327 185.231 54.4102C185.591 54.4934 185.529 55.7037 185.097 57.1034Z" fill="#E0E0E0"/>
<path d="M189.671 60.4941C188.441 61.2903 187.358 61.8311 187.257 61.6979C187.157 61.5648 187.981 60.6739 189.091 59.7203C190.201 58.7667 191.283 58.2234 191.504 58.5171C191.725 58.8109 190.9 59.6986 189.671 60.4941Z" fill="#E0E0E0"/>
<path d="M284.017 134.016C283.421 134.003 282.835 133.861 282.3 133.599C282.862 133.401 283.46 133.327 284.053 133.382C285.013 133.373 285.781 133.559 285.77 133.799C285.759 134.039 284.969 134.134 284.017 134.016Z" fill="#E0E0E0"/>
<path d="M282.345 137.344C281.692 136.64 281.222 136 281.297 135.921C281.372 135.843 282.037 136.273 282.779 136.881C283.521 137.489 283.991 138.129 283.826 138.304C283.661 138.479 282.996 138.048 282.345 137.344Z" fill="#E0E0E0"/>
<path d="M278.919 138.825C278.829 138.236 278.869 137.634 279.033 137.062C279.325 137.582 279.501 138.158 279.549 138.752C279.725 139.695 279.677 140.486 279.435 140.515C279.193 140.543 278.964 139.784 278.919 138.825Z" fill="#E0E0E0"/>
<path d="M275.346 137.757C275.927 136.994 276.475 136.42 276.566 136.477C276.455 137.063 276.219 137.618 275.875 138.104C275.404 138.94 274.857 139.512 274.655 139.384C274.454 139.256 274.765 138.521 275.346 137.757Z" fill="#E0E0E0"/>
<path d="M273.293 134.646C273.857 134.456 274.456 134.389 275.049 134.45C274.588 134.827 274.051 135.101 273.475 135.253C272.579 135.592 271.79 135.681 271.72 135.45C271.649 135.218 272.357 134.858 273.293 134.646Z" fill="#E0E0E0"/>
<path d="M273.721 130.94C274.574 131.379 275.234 131.818 275.193 131.917C274.597 131.91 274.01 131.775 273.471 131.521C272.566 131.201 271.905 130.765 271.999 130.544C272.093 130.323 272.868 130.501 273.721 130.94Z" fill="#E0E0E0"/>
<path d="M276.429 128.376C276.716 128.898 276.887 129.476 276.93 130.07C276.833 130.119 276.354 129.487 275.864 128.662C275.374 127.837 275.148 127.077 275.363 126.968C275.578 126.858 276.056 127.492 276.429 128.376Z" fill="#E0E0E0"/>
<path d="M280.153 128.152C280.037 128.736 279.796 129.288 279.449 129.772C279.351 129.184 279.381 128.582 279.536 128.007C279.69 127.06 280.005 126.333 280.24 126.387C280.475 126.442 280.436 127.232 280.153 128.152Z" fill="#E0E0E0"/>
<path d="M283.149 130.373C282.685 130.747 282.145 131.015 281.568 131.162C281.504 131.074 282.042 130.493 282.769 129.866C283.496 129.238 284.205 128.885 284.35 129.078C284.494 129.27 283.954 129.852 283.149 130.373Z" fill="#E0E0E0"/>
<path d="M382.32 64.4115C376.156 38.6783 361.278 15.8708 340.21 -0.139347C325.366 -11.3916 305.763 -20.6285 283.447 -17.1919C233.627 -9.52318 180.697 59.004 125.15 48.2863C69.603 37.5687 24.9272 81.2971 32.2713 150.334C39.6153 219.371 161.622 273.172 269.845 243.291C362.831 217.617 399.469 135.511 382.32 64.4115Z" fill="#EBEBEB"/>
<path d="M296.485 280.595C296.485 280.687 235.374 280.762 160.007 280.762C84.6145 280.762 23.5156 280.687 23.5156 280.595C23.5156 280.503 84.6132 280.429 160.007 280.429C235.374 280.429 296.485 280.503 296.485 280.595Z" fill="#263238"/>
<path d="M177.14 156.295C179.752 155.192 182.517 154.494 185.34 154.226C188.935 153.783 193.028 153.818 195.613 156.357C198.045 158.746 198.478 162.779 201.223 164.799C203.346 166.36 206.207 166.251 208.822 166.571C214.608 167.387 219.883 170.328 223.617 174.823C227.308 179.322 229.609 184.8 230.237 190.586C231.045 197.314 229.974 204.618 233.389 210.473C236.431 215.689 242.374 218.473 248.185 220.114C244.567 225.965 224.158 238.403 217.778 240.978L211.814 190.882C211.814 190.882 188.386 163.861 180.096 164.212L177.14 156.295Z" fill="#A3AB01"/>
<g opacity="0.4">
<g opacity="0.4">
<path opacity="0.4" d="M177.14 156.295C179.752 155.192 182.517 154.494 185.34 154.226C188.935 153.783 193.028 153.818 195.613 156.357C198.045 158.746 198.478 162.779 201.223 164.799C203.346 166.36 206.207 166.251 208.822 166.571C214.608 167.387 219.883 170.328 223.617 174.823C227.308 179.322 229.609 184.8 230.237 190.586C231.045 197.314 229.974 204.618 233.389 210.473C236.431 215.689 242.374 218.473 248.185 220.114C244.567 225.965 224.158 238.403 217.778 240.978L211.814 190.882C211.814 190.882 188.386 163.861 180.096 164.212L177.14 156.295Z" fill="black"/>
</g>
</g>
<path d="M229.768 187.754C229.779 187.76 229.753 187.823 229.694 187.939C229.608 188.109 229.51 188.272 229.401 188.428C228.996 189.004 228.494 189.505 227.919 189.912C227.061 190.514 226.088 190.933 225.061 191.144C223.811 191.364 222.54 191.45 221.272 191.4C219.928 191.379 218.661 191.322 217.513 191.384C216.497 191.425 215.49 191.588 214.513 191.868C213.62 192.155 212.773 192.57 211.999 193.099C211.992 193.09 212.037 193.039 212.131 192.95C212.269 192.819 212.416 192.698 212.57 192.587C213.144 192.181 213.774 191.864 214.441 191.644C215.43 191.324 216.456 191.134 217.494 191.078C218.662 190.998 219.942 191.046 221.276 191.067C222.522 191.116 223.769 191.041 225 190.845C225.993 190.654 226.939 190.272 227.786 189.719C228.552 189.18 229.223 188.516 229.768 187.754Z" fill="#FAFAFA"/>
<path d="M230.953 202.868C230.77 203.041 230.568 203.191 230.351 203.316C230.111 203.484 229.861 203.639 229.604 203.779C229.305 203.946 228.971 204.152 228.58 204.331C227.671 204.782 226.73 205.162 225.764 205.469C223.392 206.224 220.904 206.547 218.418 206.422C217.407 206.371 216.401 206.243 215.41 206.038C214.984 205.965 214.609 205.852 214.277 205.767C213.992 205.697 213.712 205.611 213.437 205.511C213.194 205.446 212.961 205.352 212.74 205.233C212.759 205.169 213.769 205.515 215.453 205.809C216.439 205.977 217.434 206.08 218.433 206.116C220.882 206.205 223.33 205.887 225.675 205.177C226.632 204.886 227.568 204.533 228.478 204.119C230.03 203.403 230.919 202.814 230.953 202.868Z" fill="#FAFAFA"/>
<path d="M239.115 216.243C239.115 216.273 238.765 216.266 238.147 216.354C237.278 216.491 236.444 216.793 235.689 217.245C234.576 217.934 233.536 218.735 232.585 219.635C231.423 220.765 230.187 221.818 228.887 222.786C227.55 223.724 226.079 224.455 224.525 224.956C223.253 225.361 221.925 225.565 220.591 225.563C219.693 225.556 218.8 225.43 217.935 225.188C217.63 225.105 217.403 225.004 217.247 224.948C217.091 224.893 217.013 224.85 217.017 224.84C218.182 225.155 219.383 225.319 220.59 225.327C221.896 225.296 223.19 225.073 224.43 224.664C225.948 224.156 227.385 223.431 228.696 222.513C229.985 221.552 231.215 220.514 232.379 219.406C233.354 218.502 234.426 217.708 235.574 217.038C236.361 216.591 237.233 216.314 238.134 216.224C238.376 216.201 238.62 216.196 238.864 216.209C238.949 216.205 239.034 216.217 239.115 216.243Z" fill="#FAFAFA"/>
<path d="M223.617 174.823C223.627 174.827 223.609 174.9 223.562 175.036C223.494 175.234 223.41 175.427 223.312 175.612C222.942 176.298 222.427 176.896 221.803 177.364C220.873 178.046 219.821 178.544 218.704 178.831C217.351 179.182 215.966 179.402 214.571 179.487C213.099 179.61 211.697 179.702 210.451 179.935C209.345 180.124 208.271 180.463 207.256 180.942C206.332 181.411 205.497 182.036 204.786 182.79C204.777 182.783 204.816 182.719 204.899 182.602C205.02 182.43 205.153 182.268 205.298 182.116C205.835 181.557 206.46 181.089 207.149 180.732C208.172 180.211 209.265 179.841 210.393 179.633C211.767 179.399 213.152 179.24 214.543 179.156C215.918 179.072 217.284 178.865 218.622 178.536C219.71 178.272 220.74 177.811 221.661 177.176C222.275 176.74 222.797 176.187 223.197 175.549C223.48 175.093 223.586 174.81 223.617 174.823Z" fill="#FAFAFA"/>
<path d="M196.35 174.834C196.36 174.824 196.402 174.872 196.501 174.901C196.653 174.923 196.808 174.886 196.933 174.797C197.144 174.652 197.338 174.485 197.513 174.299L198.27 173.59C199.718 172.199 201.254 170.901 202.868 169.705C204.496 168.503 206.323 167.598 208.266 167.03C208.856 166.867 209.459 166.757 210.069 166.7C210.291 166.663 210.518 166.66 210.741 166.691C210.748 166.755 209.79 166.804 208.332 167.256C206.443 167.88 204.664 168.799 203.061 169.977C201.166 171.336 199.596 172.769 198.427 173.765L197.637 174.438C197.444 174.623 197.227 174.781 196.993 174.911C196.916 174.956 196.83 174.984 196.741 174.994C196.652 175.003 196.562 174.992 196.478 174.964C196.365 174.905 196.343 174.837 196.35 174.834Z" fill="#FAFAFA"/>
<path d="M196.107 158.108C195.994 158.326 195.85 158.526 195.679 158.701C195.244 159.209 194.75 159.664 194.207 160.054C193.399 160.646 192.481 161.07 191.507 161.302C190.305 161.532 189.069 161.522 187.871 161.272C186.701 161.034 185.516 160.885 184.324 160.824C183.353 160.802 182.382 160.878 181.427 161.051C179.791 161.354 178.837 161.779 178.815 161.721C179.018 161.584 179.24 161.476 179.473 161.401C180.091 161.155 180.729 160.961 181.381 160.821C182.349 160.611 183.338 160.51 184.329 160.518C185.537 160.561 186.739 160.703 187.923 160.943C189.082 161.186 190.277 161.206 191.443 161.002C192.385 160.792 193.278 160.405 194.074 159.861C194.798 159.333 195.478 158.747 196.107 158.108Z" fill="#FAFAFA"/>
<path d="M193.782 161.943C189.311 160.727 186.004 159.394 181.435 159.191L131.888 165.537L126.736 199.641C126.736 199.641 143.184 233.254 146.305 237.325C152.151 244.948 131.562 276.335 132.229 281.165H220.982C220.982 281.165 220.114 213.512 214.838 182.28C213.911 176.793 210.775 171.124 206.602 168.141C202.711 165.364 198.376 163.268 193.782 161.943Z" fill="#D2DC02"/>
<path d="M180.912 264.532C180.808 264.463 180.713 264.382 180.629 264.291L179.861 263.555C179.204 262.908 178.244 261.982 177.045 260.852C174.648 258.589 171.251 255.555 167.307 252.439C163.363 249.323 159.616 246.728 156.859 244.924C155.481 244.021 154.357 243.302 153.575 242.812L152.679 242.239C152.571 242.178 152.47 242.104 152.379 242.02C152.497 242.06 152.609 242.114 152.714 242.182L153.64 242.701C154.444 243.156 155.588 243.844 156.985 244.724C164.261 249.326 171.037 254.673 177.205 260.68C178.385 261.832 179.322 262.786 179.951 263.462L180.672 264.242C180.763 264.329 180.844 264.427 180.912 264.532Z" fill="#263238"/>
<path d="M175.075 194.217C174.349 193.65 174.328 192.465 175.028 191.567C175.727 190.669 176.884 190.4 177.61 190.966C178.335 191.533 178.356 192.718 177.656 193.616C176.956 194.514 175.801 194.783 175.075 194.217Z" fill="#263238"/>
<path d="M193.453 166.573C193.014 167.382 192.211 167.794 191.661 167.496C191.112 167.197 191.021 166.299 191.464 165.49C191.906 164.682 192.705 164.269 193.256 164.568C193.806 164.866 193.893 165.764 193.453 166.573Z" fill="#263238"/>
<path d="M186.214 205.754C185.961 205.685 185.732 205.545 185.555 205.352C185.378 205.158 185.26 204.919 185.213 204.66C185.167 204.402 185.195 204.136 185.293 203.893C185.392 203.65 185.558 203.44 185.771 203.287C185.985 203.135 186.237 203.046 186.499 203.031C186.761 203.016 187.021 203.075 187.251 203.202C187.48 203.33 187.669 203.519 187.795 203.749C187.921 203.979 187.979 204.241 187.962 204.502C187.893 204.898 187.67 205.251 187.344 205.485C187.017 205.719 186.611 205.815 186.214 205.754Z" fill="#263238"/>
<path d="M163.156 191.801C162.888 191.977 162.574 192.07 162.253 192.068C161.932 192.067 161.619 191.97 161.353 191.791C161.087 191.612 160.88 191.359 160.757 191.063C160.634 190.766 160.602 190.44 160.663 190.126C160.725 189.811 160.878 189.522 161.103 189.293C161.329 189.065 161.617 188.909 161.93 188.844C162.244 188.778 162.571 188.807 162.868 188.926C163.166 189.046 163.422 189.25 163.604 189.514C163.725 189.694 163.809 189.895 163.852 190.108C163.895 190.32 163.895 190.538 163.854 190.751C163.812 190.963 163.729 191.165 163.609 191.345C163.49 191.526 163.335 191.681 163.156 191.801Z" fill="#263238"/>
<path d="M148.265 224.364C147.433 223.963 147.198 222.743 147.732 221.638C148.267 220.532 149.372 219.961 150.201 220.362C151.029 220.763 151.268 221.983 150.733 223.089C150.197 224.194 149.093 224.762 148.265 224.364Z" fill="#263238"/>
<path d="M157.866 227.266C157.043 227.678 156.133 227.526 155.833 226.927C155.533 226.328 155.961 225.509 156.781 225.098C157.602 224.686 158.515 224.838 158.814 225.437C159.114 226.036 158.689 226.855 157.866 227.266Z" fill="#263238"/>
<path d="M153.709 238.292C153.562 238.465 153.378 238.601 153.17 238.691C152.962 238.781 152.736 238.822 152.51 238.81C152.284 238.799 152.063 238.736 151.865 238.626C151.667 238.516 151.497 238.362 151.368 238.175C151.239 237.989 151.155 237.776 151.122 237.552C151.088 237.328 151.107 237.099 151.176 236.883C151.245 236.668 151.362 236.471 151.52 236.308C151.677 236.145 151.869 236.02 152.082 235.943C152.474 235.791 152.9 235.746 153.315 235.815C153.477 235.819 153.636 235.861 153.778 235.938C153.92 236.015 154.043 236.124 154.135 236.257C154.227 236.391 154.286 236.544 154.308 236.704C154.33 236.864 154.314 237.028 154.26 237.181C154.18 237.594 153.989 237.978 153.709 238.292Z" fill="#263238"/>
<path d="M168.349 242.809C168.479 243.034 168.543 243.291 168.534 243.55C168.524 243.81 168.441 244.061 168.295 244.275C168.148 244.49 167.944 244.658 167.706 244.761C167.467 244.864 167.205 244.898 166.948 244.858C166.692 244.818 166.452 244.706 166.256 244.535C166.061 244.365 165.917 244.142 165.843 243.893C165.768 243.645 165.766 243.38 165.836 243.13C165.905 242.88 166.045 242.655 166.237 242.481C166.562 242.249 166.965 242.154 167.36 242.216C167.754 242.277 168.109 242.49 168.349 242.809Z" fill="#263238"/>
<path d="M145.549 273.04C145.25 273.057 144.952 272.987 144.691 272.837C144.431 272.688 144.22 272.465 144.084 272.198C143.948 271.93 143.893 271.629 143.926 271.33C143.959 271.032 144.078 270.75 144.269 270.518C144.46 270.286 144.714 270.115 145 270.025C145.287 269.936 145.593 269.932 145.882 270.014C146.171 270.096 146.429 270.26 146.626 270.486C146.823 270.713 146.949 270.992 146.99 271.289C147.03 271.712 146.901 272.134 146.631 272.462C146.361 272.79 145.972 272.998 145.549 273.04Z" fill="#263238"/>
<path d="M155.344 255.127C155.414 255.356 155.417 255.6 155.355 255.831C155.292 256.062 155.165 256.27 154.989 256.433C154.505 256.862 153.874 257.088 153.228 257.063C152.582 257.038 151.97 256.765 151.52 256.3C151.357 256.125 151.246 255.908 151.201 255.673C151.155 255.438 151.177 255.195 151.264 254.971C151.449 254.566 151.766 254.235 152.164 254.033C152.523 253.821 152.936 253.717 153.353 253.733C153.771 253.749 154.174 253.884 154.516 254.123C154.898 254.355 155.189 254.709 155.344 255.127Z" fill="#263238"/>
<path d="M158.969 269.986C158.553 270.091 158.115 270.065 157.715 269.911C157.315 269.758 156.972 269.484 156.734 269.128C156.495 268.772 156.373 268.35 156.383 267.922C156.394 267.494 156.536 267.079 156.792 266.735C157.047 266.39 157.403 266.133 157.81 265.999C158.217 265.865 158.655 265.86 159.065 265.985C159.475 266.11 159.837 266.358 160.1 266.697C160.363 267.035 160.515 267.446 160.535 267.874C160.602 268.361 160.475 268.855 160.183 269.25C159.89 269.645 159.454 269.909 158.969 269.986Z" fill="#263238"/>
<path d="M173.04 263.476C172.89 263.647 172.702 263.779 172.49 263.86C172.278 263.941 172.049 263.97 171.824 263.943C171.562 263.902 171.311 263.809 171.086 263.67C170.86 263.531 170.665 263.349 170.511 263.133C170.357 262.917 170.247 262.673 170.189 262.415C170.13 262.156 170.124 261.889 170.17 261.628C170.218 261.407 170.318 261.2 170.463 261.026C170.608 260.852 170.793 260.716 171.002 260.63C171.407 260.468 171.853 260.445 172.272 260.566C172.654 260.651 172.992 260.875 173.219 261.194C173.447 261.513 173.549 261.904 173.506 262.294C173.486 262.729 173.322 263.145 173.04 263.476Z" fill="#263238"/>
<path d="M173.6 276.662C172.832 276.15 172.76 274.918 173.434 273.91C174.108 272.902 175.275 272.493 176.041 273.005C176.807 273.516 176.881 274.748 176.207 275.757C175.533 276.765 174.364 277.172 173.6 276.662Z" fill="#263238"/>
<path d="M192.776 277.521C192.456 277.237 192.232 276.86 192.135 276.443C192.038 276.027 192.072 275.59 192.233 275.193C192.394 274.797 192.673 274.46 193.033 274.228C193.393 273.997 193.815 273.882 194.243 273.9C194.67 273.918 195.082 274.068 195.421 274.329C195.76 274.59 196.01 274.949 196.137 275.358C196.263 275.767 196.26 276.205 196.129 276.612C195.997 277.019 195.742 277.375 195.4 277.632C195.035 277.96 194.555 278.132 194.065 278.111C193.575 278.091 193.112 277.879 192.776 277.521Z" fill="#263238"/>
<path d="M215.908 277.932C215.049 278.264 214.161 278.036 213.924 277.423C213.687 276.81 214.191 276.045 215.049 275.713C215.907 275.38 216.795 275.608 217.033 276.221C217.27 276.834 216.765 277.6 215.908 277.932Z" fill="#263238"/>
<path d="M134.429 104.213C132.749 106.431 131.051 108.68 129.987 111.253C128.922 113.826 128.543 116.794 129.56 119.381C130.056 120.648 130.873 121.802 131.13 123.138C131.619 125.683 130.001 128.091 129.201 130.557C128.618 132.408 128.484 134.372 128.809 136.286C129.134 138.2 129.909 140.009 131.07 141.565C133.021 144.13 135.934 145.816 138.974 146.894C144.584 148.883 151.664 148.603 155.503 144.056" fill="#263238"/>
<path d="M179.375 99.3113C180.445 104.947 188.523 107.229 189.29 112.914C189.62 115.353 188.444 117.768 188.516 120.228C188.612 123.536 190.894 126.324 192.052 129.424C194.439 135.81 191.663 143.354 186.523 147.832C181.384 152.311 174.345 154.089 167.528 154.193" fill="#263238"/>
<path d="M181.01 102.401C180.668 99.63 177.792 97.8873 175.069 97.2684C172.346 96.6495 169.437 96.7033 166.91 95.5109C164.675 94.4556 162.988 92.5356 161.006 91.0572C158.562 89.2336 155.676 88.0933 152.646 87.7534C149.615 87.4135 146.548 87.8863 143.761 89.1232C140.973 90.3601 138.565 92.3165 136.783 94.7917C135.002 97.2668 133.911 100.172 133.623 103.208C133.235 107.287 134.617 111.829 138.112 113.968C142.169 116.45 147.392 114.965 151.857 113.32C156.322 111.675 161.393 109.951 165.648 112.07C168.216 113.35 169.95 115.798 171.741 118.038C173.532 120.277 175.695 122.513 178.516 123.03C181.337 123.547 184.735 121.395 184.404 118.546" fill="#263238"/>
<path d="M154.133 172.254C153.13 165.93 152.153 159.767 152.155 159.8C152.155 159.8 141.841 159.64 137.784 146.823C135.767 140.449 134.487 129.694 133.724 120.86C133.038 112.908 136.805 102.46 144.779 102.112L170.217 104.626C171.385 104.575 172.53 104.964 173.425 105.717C174.32 106.469 174.901 107.53 175.052 108.689L181.872 168.476C182.288 172.122 181.255 175.786 178.997 178.679C176.738 181.571 173.434 183.461 169.796 183.942C166.177 184.421 162.514 183.467 159.588 181.283C156.662 179.1 154.704 175.86 154.133 172.254Z" fill="#FFBE9D"/>
<path d="M143.882 127.282C143.64 127.094 142.506 128.229 140.692 128.498C138.886 128.791 137.416 128.058 137.252 128.31C137.17 128.422 137.444 128.786 138.084 129.122C138.95 129.548 139.926 129.695 140.879 129.545C141.822 129.407 142.696 128.972 143.375 128.305C143.87 127.791 143.999 127.365 143.882 127.282Z" fill="#263238"/>
<path d="M161.063 125.697C160.807 125.523 159.746 126.726 157.954 127.105C156.169 127.508 154.657 126.867 154.509 127.128C154.435 127.245 154.726 127.593 155.391 127.887C156.281 128.259 157.265 128.347 158.207 128.138C159.139 127.942 159.985 127.455 160.623 126.746C161.081 126.202 161.185 125.772 161.063 125.697Z" fill="#263238"/>
<path d="M150.187 138.17C150.18 138.065 149.024 138.042 147.164 138.08C146.694 138.102 146.242 138.075 146.117 137.772C146.006 137.3 146.042 136.805 146.22 136.354C146.486 135.169 146.766 133.926 147.059 132.625C148.206 127.323 148.962 122.992 148.748 122.948C148.535 122.904 147.431 127.165 146.284 132.466C146.013 133.772 145.753 135.019 145.506 136.208C145.299 136.81 145.31 137.466 145.538 138.06C145.63 138.213 145.755 138.343 145.905 138.44C146.054 138.538 146.224 138.6 146.401 138.622C146.668 138.653 146.937 138.65 147.203 138.613C149.055 138.436 150.195 138.273 150.187 138.17Z" fill="#263238"/>
<path d="M152.156 159.802C158.353 158.967 164.197 156.429 169.036 152.47C168.893 152.524 165.587 162.333 152.799 162.875L152.156 159.802Z" fill="#EB996E"/>
<path d="M160.033 120.685C159.686 120.285 158.062 121.158 155.962 121.684C153.871 122.251 152.028 122.283 151.921 122.802C151.878 123.048 152.328 123.378 153.155 123.578C154.24 123.795 155.36 123.764 156.431 123.484C157.502 123.205 158.495 122.685 159.336 121.965C159.959 121.385 160.19 120.878 160.033 120.685Z" fill="#263238"/>
<path d="M143.683 123.54C143.375 123.114 142.099 123.502 140.581 123.471C139.062 123.492 137.789 123.096 137.478 123.52C137.342 123.727 137.53 124.15 138.078 124.563C138.81 125.072 139.682 125.341 140.574 125.331C141.021 125.415 141.481 125.39 141.916 125.26C142.351 125.129 142.749 124.896 143.076 124.58C143.627 124.17 143.818 123.748 143.683 123.54Z" fill="#263238"/>
<path d="M182.466 147.69C178.967 148.97 178.365 147.178 175.286 145.083C173.751 144.019 172.485 142.611 171.591 140.97C170.696 139.33 170.198 137.504 170.134 135.636C170.05 132.351 171.286 128.806 169.706 125.925C167.613 122.116 161.77 121.737 159.658 117.94C158.429 115.734 158.795 112.877 157.457 110.735C156.198 108.721 153.741 107.825 151.411 107.363C149.082 106.901 146.63 106.712 144.557 105.553C142.483 104.395 140.913 101.851 141.8 99.6485C151.783 99.3308 161.768 100.202 171.544 102.245C173.808 102.719 176.205 103.338 177.761 105.048C179.409 106.859 179.741 109.471 179.997 111.906L183.734 147.514" fill="#263238"/>
<path d="M186.639 119.654C186.516 117.44 187.118 115.247 188.355 113.406C189.591 111.566 191.394 110.179 193.49 109.455C195.586 108.732 197.861 108.713 199.969 109.399C202.077 110.086 203.904 111.442 205.172 113.261C207.562 116.69 207.618 121.297 206.488 125.322C205.144 130.103 201.624 134.822 196.686 135.347C192.038 135.841 187.706 132.355 185.702 128.134C183.697 123.914 183.512 119.089 183.361 114.419" fill="#263238"/>
<path d="M191.951 137.24C192.203 136.997 192.399 136.701 192.522 136.373C192.915 135.501 193.112 134.554 193.098 133.597C193.079 132.188 192.826 130.792 192.348 129.465C191.845 127.961 191.078 126.423 190.437 124.762C189.776 123.243 189.428 121.606 189.413 119.949C189.459 118.447 189.957 117.1 190.084 115.9C190.239 114.947 190.118 113.97 189.735 113.084C189.429 112.468 189.104 112.244 189.087 112.267C189.047 112.299 189.304 112.572 189.525 113.173C189.805 114.036 189.857 114.956 189.676 115.844C189.509 116.984 188.963 118.305 188.876 119.932C188.857 121.666 189.205 123.385 189.895 124.976C190.55 126.669 191.331 128.2 191.843 129.648C192.326 130.916 192.611 132.251 192.689 133.606C192.718 134.857 192.465 136.099 191.951 137.24Z" fill="#455A64"/>
<path d="M189.738 121.448C190.376 122.168 191.166 122.737 192.051 123.112C194.144 124.161 196.505 124.556 198.825 124.243C201.145 123.931 203.318 122.927 205.059 121.362C205.814 120.766 206.426 120.009 206.851 119.146C206.77 119.082 206.137 119.972 204.794 121.046C203.059 122.46 200.967 123.367 198.748 123.665C196.53 123.964 194.273 123.643 192.226 122.738C190.645 122.056 189.8 121.366 189.738 121.448Z" fill="#455A64"/>
<path d="M190.703 123.406C191.049 124.124 191.534 124.767 192.129 125.298C193.49 126.663 195.109 127.743 196.891 128.476C198.674 129.209 200.584 129.58 202.512 129.567C203.308 129.609 204.104 129.493 204.855 129.226C204.079 129.162 203.299 129.138 202.52 129.154C198.777 128.956 195.213 127.49 192.413 124.998C191.871 124.438 191.3 123.907 190.703 123.406Z" fill="#455A64"/>
<path d="M190.158 142.01C190.167 142.014 190.207 141.952 190.277 141.825C190.384 141.638 190.478 141.444 190.559 141.244C190.872 140.472 191.045 139.65 191.071 138.817C191.12 137.49 190.845 136.17 190.269 134.973C189.514 133.36 188.209 132.069 186.588 131.33C184.86 130.47 182.719 130.014 181.165 128.463C180.773 128.076 180.465 127.612 180.262 127.101C180.058 126.589 179.963 126.04 179.982 125.49C180.067 124.279 180.276 123.079 180.605 121.91C180.928 120.585 180.973 119.206 180.738 117.862C180.504 116.518 179.994 115.237 179.241 114.099C178.445 112.882 177.356 111.884 176.074 111.197C174.737 110.547 173.279 110.187 171.793 110.141C170.321 110.034 168.876 110.062 167.499 109.866C166.148 109.727 164.852 109.255 163.729 108.492C162.711 107.678 161.995 106.547 161.694 105.279C161.376 104.013 160.975 102.77 160.494 101.557C159.55 99.2888 157.996 97.3264 156.005 95.8873C154.249 94.6494 152.155 93.9806 150.007 93.9711C148.233 93.9475 146.498 94.4871 145.05 95.5122C143.969 96.2847 143.095 97.3108 142.503 98.5004C142.131 99.2468 141.898 100.055 141.816 100.884C141.78 101.171 141.78 101.461 141.816 101.748C141.905 100.652 142.206 99.5844 142.704 98.6041C143.407 97.29 144.462 96.1983 145.752 95.452C147.042 94.7057 148.514 94.3344 150.004 94.3801C152.06 94.4173 154.055 95.0799 155.725 96.2796C157.626 97.6816 159.104 99.5796 159.999 101.766C160.464 102.964 160.852 104.191 161.16 105.44C161.491 106.824 162.274 108.058 163.385 108.947C164.584 109.772 165.97 110.284 167.417 110.437C168.86 110.643 170.31 110.614 171.75 110.72C173.156 110.76 174.537 111.097 175.804 111.708C177.001 112.348 178.019 113.278 178.765 114.413C179.48 115.487 179.965 116.696 180.191 117.966C180.417 119.236 180.379 120.539 180.078 121.794C179.747 123 179.543 124.238 179.468 125.487C179.454 126.102 179.567 126.714 179.799 127.284C180.032 127.854 180.379 128.37 180.82 128.801C182.539 130.465 184.738 130.881 186.409 131.7C187.967 132.38 189.233 133.591 189.981 135.117C190.558 136.262 190.855 137.528 190.847 138.81C190.817 139.91 190.583 140.995 190.158 142.01Z" fill="#455A64"/>
<path d="M183.693 105.498C183.762 105.295 183.786 105.08 183.762 104.867C183.716 104.246 183.469 103.657 183.058 103.19C182.418 102.44 181.55 101.92 180.586 101.709C179.306 101.505 177.995 101.66 176.798 102.157C175.461 102.628 174.12 103.394 172.604 103.935C171.116 104.464 169.292 104.785 167.74 103.912C166.183 103.064 165.203 101.333 164.209 99.6159C163.194 97.7743 161.892 96.1059 160.352 94.6732C157.365 91.8641 153.523 90.1354 149.44 89.7625C147.647 89.6239 145.849 89.9464 144.216 90.6995C142.793 91.3711 141.592 92.4357 140.754 93.7676C140.061 94.8713 139.738 96.1674 139.831 97.4674C139.894 98.4409 140.193 99.3846 140.7 100.218C141.012 100.744 141.425 101.202 141.916 101.567C142.078 101.704 142.262 101.812 142.46 101.887C141.833 101.394 141.302 100.789 140.896 100.103C140.448 99.2887 140.197 98.3812 140.162 97.4527C140.107 96.227 140.438 95.0149 141.111 93.9884C141.926 92.7448 143.077 91.7573 144.43 91.1398C145.993 90.4439 147.706 90.1558 149.411 90.3026C153.36 90.6971 157.069 92.3845 159.962 95.1026C161.459 96.4963 162.728 98.1172 163.721 99.9058C164.723 101.606 165.737 103.437 167.49 104.386C168.331 104.832 169.28 105.032 170.229 104.962C171.1 104.896 171.956 104.703 172.771 104.389C174.339 103.805 175.655 103.022 176.945 102.543C178.068 102.048 179.306 101.869 180.523 102.026C181.432 102.199 182.261 102.658 182.891 103.335C183.294 103.76 183.557 104.297 183.648 104.875C183.708 105.274 183.657 105.494 183.693 105.498Z" fill="#455A64"/>
<path d="M193.002 138.849C192.97 139.079 192.909 139.304 192.82 139.519C192.613 140.117 192.356 140.697 192.052 141.252C191.052 143.105 189.617 144.686 187.871 145.861C186.124 147.035 184.117 147.767 182.025 147.994C181.396 148.065 180.762 148.084 180.13 148.051C179.898 148.052 179.666 148.023 179.44 147.967C179.44 147.909 180.431 148.008 182 147.79C184.044 147.513 185.998 146.77 187.709 145.619C189.421 144.469 190.846 142.94 191.874 141.152C192.669 139.782 192.949 138.829 193.002 138.849Z" fill="#455A64"/>
<path d="M163.818 149.341C163.553 149.399 163.282 149.422 163.012 149.409C162.273 149.412 161.536 149.326 160.818 149.153C159.745 148.903 158.721 148.475 157.79 147.887C156.639 147.168 155.663 146.2 154.935 145.055C154.228 143.893 153.811 142.578 153.719 141.22C153.638 140.118 153.777 139.01 154.128 137.962C154.36 137.257 154.703 136.594 155.145 135.997C155.263 135.835 155.392 135.682 155.532 135.538C155.625 135.437 155.679 135.389 155.687 135.396C155.116 136.206 154.666 137.094 154.352 138.033C154.011 139.172 153.913 140.369 154.062 141.549C154.211 142.728 154.605 143.863 155.218 144.881C155.921 145.986 156.855 146.925 157.956 147.633C158.855 148.217 159.84 148.655 160.876 148.93C161.842 149.155 162.827 149.293 163.818 149.341Z" fill="#EB996E"/>
<path d="M150.885 122.337C150.897 122.377 150.718 122.486 150.387 122.516C149.949 122.549 149.512 122.429 149.153 122.175C148.794 121.922 148.534 121.551 148.418 121.127C148.336 120.807 148.378 120.6 148.418 120.598C148.508 120.576 148.61 121.387 149.344 121.903C149.817 122.165 150.345 122.314 150.885 122.337Z" fill="#EB996E"/>
<path d="M145.387 123.465C145.308 123.409 145.635 122.89 145.699 122.168C145.779 121.448 145.561 120.875 145.65 120.834C145.72 120.781 146.118 121.372 146.034 122.202C145.949 123.031 145.445 123.532 145.387 123.465Z" fill="#EB996E"/>
<path d="M146.451 122.298C146.367 122.251 146.552 121.796 146.539 121.216C146.539 120.636 146.344 120.186 146.427 120.137C146.495 120.08 146.868 120.529 146.875 121.212C146.882 121.896 146.525 122.354 146.451 122.298Z" fill="#EB996E"/>
<path d="M154.992 159.876C156.741 160.97 159.024 160.612 160.969 159.921C164.911 158.52 168.322 155.953 172.094 154.143C175.867 152.332 180.431 151.337 184.17 153.214C184.596 153.378 184.977 153.64 185.285 153.977C185.592 154.314 185.817 154.719 185.941 155.158C185.957 155.882 185.805 156.599 185.498 157.255C184.247 161.206 186.874 165.228 187.701 169.287C188.233 172.191 187.859 175.188 186.628 177.872C185.397 180.556 183.37 182.795 180.822 184.287C177.87 185.937 174.405 186.463 171.024 186.444C164.405 186.404 157.612 184.204 152.983 179.468C151.902 178.44 151.062 177.185 150.524 175.794C150.05 174.152 149.974 172.422 150.301 170.745C150.918 166.589 152.494 162.634 154.905 159.193" fill="#A3AB01"/>
<g opacity="0.4">
<g opacity="0.4">
<path opacity="0.4" d="M154.992 159.876C156.741 160.97 159.024 160.612 160.969 159.921C164.911 158.52 168.322 155.953 172.094 154.143C175.867 152.332 180.431 151.337 184.17 153.214C184.596 153.378 184.977 153.64 185.285 153.977C185.592 154.314 185.817 154.719 185.941 155.158C185.957 155.882 185.805 156.599 185.498 157.255C184.247 161.206 186.874 165.228 187.701 169.287C188.233 172.191 187.859 175.188 186.628 177.872C185.397 180.556 183.37 182.795 180.822 184.287C177.87 185.937 174.405 186.463 171.024 186.444C164.405 186.404 157.612 184.204 152.983 179.468C151.902 178.44 151.062 177.185 150.524 175.794C150.05 174.152 149.974 172.422 150.301 170.745C150.918 166.589 152.494 162.634 154.905 159.193" fill="black"/>
</g>
</g>
<path d="M185.528 180.066C185.502 180.05 185.736 179.657 186.104 178.92C186.631 177.884 187.066 176.804 187.403 175.693C187.917 174.054 188.096 172.329 187.93 170.619C187.808 169.617 187.554 168.635 187.175 167.698C186.798 166.712 186.332 165.714 185.95 164.639C185.218 162.608 185.026 160.421 185.394 158.294C185.629 157.417 185.675 156.501 185.53 155.606C185.317 154.85 184.876 154.18 184.266 153.686C183.376 152.949 182.3 152.472 181.156 152.306C180.345 152.187 179.886 152.242 179.884 152.207C179.992 152.177 180.103 152.161 180.215 152.16C180.534 152.133 180.856 152.138 181.175 152.177C182.362 152.298 183.488 152.759 184.419 153.505C185.081 154.021 185.563 154.731 185.799 155.536C185.969 156.468 185.935 157.426 185.699 158.344C185.357 160.42 185.552 162.549 186.265 164.529C186.64 165.581 187.104 166.581 187.481 167.583C187.866 168.547 188.12 169.557 188.236 170.587C188.393 172.336 188.187 174.098 187.63 175.763C187.27 176.881 186.799 177.959 186.222 178.982C186.017 179.343 185.85 179.618 185.727 179.798C185.673 179.896 185.606 179.986 185.528 180.066Z" fill="#263238"/>
<path d="M182.109 160.267C181.867 160.521 181.605 160.754 181.325 160.964C180.804 161.393 180.031 161.988 179.046 162.692C176.468 164.5 173.72 166.055 170.842 167.334C167.964 168.618 164.965 169.612 161.891 170.302C160.953 170.512 159.992 170.595 159.033 170.546C158.773 170.529 158.514 170.495 158.258 170.443C158.167 170.432 158.079 170.406 157.996 170.366C158.001 170.337 158.369 170.408 159.038 170.417C159.983 170.414 160.924 170.298 161.841 170.072C164.879 169.319 167.845 168.301 170.706 167.029C173.565 165.754 176.311 164.238 178.913 162.497C179.91 161.826 180.701 161.259 181.245 160.863C181.516 160.641 181.805 160.442 182.109 160.267Z" fill="#263238"/>
<path d="M175.607 170.002C175.426 170.138 175.228 170.25 175.019 170.335C174.635 170.534 174.059 170.786 173.333 171.067C169.532 172.517 165.448 173.074 161.397 172.696C160.624 172.619 160.002 172.53 159.577 172.44C159.353 172.414 159.132 172.359 158.922 172.276C158.931 172.221 159.877 172.365 161.418 172.458C165.432 172.704 169.456 172.155 173.258 170.843C174.709 170.345 175.58 169.951 175.607 170.002Z" fill="#263238"/>
<path d="M165.205 185.95C165.187 185.965 165.053 185.822 164.825 185.542C164.505 185.148 164.222 184.726 163.977 184.281C163.606 183.625 163.301 182.932 163.066 182.215C162.489 180.449 162.322 178.574 162.579 176.734C162.684 175.987 162.862 175.251 163.111 174.539C163.273 174.058 163.478 173.593 163.723 173.149C163.899 172.836 164.005 172.669 164.025 172.68C164.082 172.709 163.702 173.405 163.335 174.612C163.123 175.318 162.972 176.041 162.884 176.774C162.667 178.57 162.829 180.392 163.359 182.122C163.576 182.827 163.852 183.512 164.185 184.17C164.759 185.294 165.255 185.914 165.205 185.95Z" fill="#FAFAFA"/>
<path d="M167.236 168.51C167.608 169.126 167.792 169.837 167.765 170.557C167.737 171.276 167.499 171.971 167.081 172.557C167.235 171.893 167.352 171.221 167.432 170.544C167.404 169.863 167.338 169.184 167.236 168.51Z" fill="#FAFAFA"/>
<path d="M160.595 160.237C160.326 160.656 160.109 161.105 159.948 161.576C159.654 162.747 159.533 163.955 159.59 165.16C159.702 166.872 160.019 168.565 160.533 170.201C160.248 169.775 160.035 169.304 159.903 168.808C159.513 167.633 159.295 166.408 159.258 165.17C159.195 163.929 159.353 162.687 159.724 161.501C159.862 160.992 160.169 160.546 160.595 160.237Z" fill="#FAFAFA"/>
<path d="M174.784 165.177C174.37 164.807 174.018 164.372 173.743 163.889C172.289 161.607 171.648 158.9 171.924 156.209C171.954 155.653 172.073 155.106 172.278 154.589C171.719 158.311 172.616 162.104 174.784 165.18V165.177Z" fill="#FAFAFA"/>
<path d="M177.127 169.709C177.272 168.726 177.362 167.735 177.396 166.742C177.317 165.752 177.182 164.766 176.991 163.791C177.454 164.705 177.706 165.71 177.729 166.734C177.753 167.758 177.547 168.775 177.127 169.709Z" fill="#FAFAFA"/>
<path d="M179.366 183.708C179.182 183.652 179.009 183.566 178.854 183.452C178.411 183.179 177.994 182.865 177.608 182.516C176.315 181.361 175.344 179.89 174.789 178.247C174.235 176.604 174.116 174.845 174.444 173.142C174.54 172.631 174.682 172.129 174.868 171.643C174.923 171.46 175.008 171.287 175.12 171.131C175.177 171.151 174.864 171.905 174.676 173.179C174.42 174.843 174.567 176.544 175.105 178.139C175.643 179.733 176.557 181.175 177.769 182.343C178.695 183.247 179.399 183.658 179.366 183.708Z" fill="#FAFAFA"/>
<path d="M183.364 160.238C183.099 161.228 183.077 162.267 183.3 163.266C183.562 164.347 183.946 165.394 184.445 166.387C185.072 167.623 185.545 168.931 185.853 170.281C186.371 172.763 186.2 175.34 185.36 177.732C185.102 178.448 184.782 179.14 184.403 179.801C184.272 180.047 184.113 180.278 183.931 180.49C184.387 179.569 184.79 178.623 185.137 177.656C185.893 175.295 186.028 172.778 185.526 170.35C185.224 169.021 184.767 167.733 184.166 166.51C183.671 165.492 183.303 164.417 183.069 163.31C182.919 162.555 182.921 161.778 183.074 161.023C183.119 160.82 183.181 160.621 183.26 160.429C183.318 160.299 183.353 160.233 183.364 160.238Z" fill="#FAFAFA"/>
<path d="M153.966 180.39C153.828 180.154 153.716 179.904 153.632 179.645C153.509 179.35 153.402 179.048 153.312 178.742C153.203 178.385 153.06 177.982 152.959 177.522C152.686 176.452 152.495 175.363 152.388 174.264C152.124 171.564 152.346 168.839 153.042 166.218C153.325 165.151 153.689 164.107 154.13 163.095C154.305 162.657 154.51 162.283 154.676 161.948C154.815 161.66 154.969 161.38 155.138 161.109C155.263 160.867 155.413 160.638 155.586 160.427C155.643 160.459 155.044 161.457 154.346 163.186C153.94 164.198 153.603 165.237 153.336 166.294C152.682 168.888 152.464 171.572 152.69 174.237C152.783 175.323 152.948 176.403 153.184 177.467C153.597 179.286 154.027 180.367 153.966 180.39Z" fill="#FAFAFA"/>
<path d="M186.809 220.628C186.809 220.628 186.489 214.09 184.544 211.163C182.6 208.237 172 195.416 172 195.416C171.5 195.169 170.938 195.074 170.383 195.143C169.829 195.211 169.307 195.439 168.881 195.8C167.455 197.073 168.951 199.324 170.225 201.725C171.499 204.125 173.169 206.845 173.169 206.845C173.169 206.845 155.401 187.236 153.316 188.102C151.23 188.969 151.604 190.019 152.336 191.025C153.069 192.03 159.12 199.576 159.12 199.576C159.12 199.576 150.155 188.128 147.753 189.4C145.352 190.671 146.793 191.467 147.598 193.073C148.402 194.679 153.769 201.5 153.769 201.5C153.769 201.5 147.492 194.182 145.961 195.59C144.431 196.997 144.984 197.537 146.45 199.549C147.917 201.56 151.232 205.949 151.232 205.949C151.232 205.949 148.109 204.561 147.296 205.879C146.484 207.197 147.247 207.977 149.134 209.449C151.021 210.921 158.911 216.889 161.98 220.043C165.049 223.196 172.292 230.347 172.292 230.347L188.612 224.116L186.809 220.628Z" fill="#FFBE9D"/>
<path d="M172.289 230.364L172.281 230.356C172.209 230.285 165.003 223.171 161.969 220.052C159.292 217.3 152.862 212.342 150.115 210.224C149.694 209.9 149.363 209.644 149.122 209.456C147.219 207.971 146.469 207.182 147.281 205.866C147.617 205.32 148.409 205.162 149.57 205.398C150.121 205.518 150.661 205.688 151.182 205.905C150.816 205.421 147.802 201.428 146.435 199.553L146.191 199.219C144.922 197.491 144.494 196.908 145.948 195.571C146.09 195.445 146.275 195.379 146.464 195.387C146.487 195.387 146.51 195.387 146.532 195.387C147.416 195.44 148.905 196.481 150.957 198.483C151.995 199.496 152.921 200.511 153.411 201.062C152.213 199.526 148.262 194.424 147.583 193.072C147.41 192.743 147.218 192.426 147.007 192.12C146.635 191.558 146.314 191.073 146.437 190.589C146.542 190.179 146.957 189.793 147.743 189.377C148.298 189.084 149.242 189.441 150.549 190.433C151.907 191.517 153.177 192.708 154.346 193.993C155.441 195.156 156.485 196.357 157.317 197.344C155.47 195.032 152.793 191.671 152.325 191.027C152.12 190.808 151.965 190.546 151.871 190.26C151.777 189.974 151.747 189.671 151.783 189.372C151.923 188.872 152.423 188.45 153.312 188.081C153.363 188.06 153.419 188.051 153.474 188.052C154.574 188.052 158.124 191.101 164.037 197.13C168.272 201.447 172.343 205.904 173.069 206.701C172.705 206.107 171.301 203.787 170.21 201.728C170.065 201.455 169.917 201.181 169.772 200.916C169.22 199.993 168.767 199.014 168.421 197.996C168.147 197.006 168.293 196.303 168.874 195.784C169.303 195.423 169.828 195.194 170.384 195.125C170.941 195.056 171.506 195.15 172.01 195.396L172.015 195.4C172.121 195.528 182.634 208.255 184.559 211.149C186.466 214.019 186.817 220.435 186.826 220.621L188.635 224.122L188.618 224.128L172.289 230.364ZM148.613 205.327C148.366 205.298 148.116 205.335 147.887 205.433C147.658 205.53 147.459 205.686 147.308 205.884C147.12 206.126 147.011 206.419 146.994 206.725C146.977 207.031 147.054 207.334 147.215 207.595C147.75 208.311 148.402 208.932 149.142 209.434C149.383 209.621 149.718 209.877 150.135 210.202C152.881 212.32 159.313 217.28 161.992 220.032C164.983 223.104 172.028 230.062 172.296 230.327L188.588 224.107L186.793 220.629C186.789 220.565 186.451 214.063 184.531 211.173C182.617 208.293 172.193 195.672 171.993 195.429C171.494 195.187 170.936 195.095 170.387 195.163C169.837 195.231 169.318 195.457 168.894 195.813C168.322 196.325 168.181 197.016 168.451 197.989C168.797 199.005 169.249 199.981 169.8 200.902C169.945 201.168 170.093 201.442 170.238 201.714C171.495 204.087 173.167 206.804 173.182 206.831L173.157 206.85C172.985 206.662 156.125 188.09 153.477 188.09C153.424 188.088 153.372 188.098 153.324 188.117C152.445 188.482 151.952 188.898 151.814 189.388C151.78 189.682 151.81 189.98 151.903 190.261C151.996 190.542 152.149 190.8 152.352 191.016C152.941 191.824 157.019 196.926 158.552 198.841C158.911 199.284 159.122 199.553 159.132 199.565L159.107 199.585C159.096 199.571 158.878 199.3 158.526 198.86C157.694 197.836 156.074 195.882 154.325 194.021C152.241 191.805 149.589 189.316 148.181 189.316C148.035 189.313 147.891 189.346 147.761 189.413C146.983 189.824 146.572 190.203 146.471 190.604C146.351 191.074 146.653 191.531 147.036 192.11C147.247 192.416 147.44 192.735 147.612 193.065C148.41 194.65 153.728 201.42 153.782 201.489L153.758 201.509C153.706 201.449 148.623 195.551 146.531 195.426C146.431 195.415 146.329 195.425 146.233 195.455C146.137 195.485 146.047 195.534 145.971 195.6C144.538 196.916 144.928 197.447 146.218 199.204L146.463 199.538C147.912 201.526 151.211 205.894 151.244 205.938L151.282 205.987L151.226 205.962C150.398 205.602 149.514 205.387 148.613 205.327Z" fill="#EB996E"/>
<path d="M163.677 206.32C163.313 205.807 162.98 205.272 162.679 204.72C161.891 203.43 161.026 202.188 160.089 201.002C158.994 199.612 157.864 198.463 157.126 197.551C156.694 197.085 156.332 196.559 156.051 195.99C156.092 195.962 156.52 196.54 157.304 197.398C158.078 198.26 159.24 199.387 160.35 200.795C161.3 201.991 162.147 203.265 162.882 204.603C163.214 205.142 163.481 205.718 163.677 206.32Z" fill="#EB996E"/>
<path d="M159.42 208.562C159.055 208.175 158.727 207.756 158.438 207.309C157.855 206.52 157.041 205.44 156.095 204.284C155.148 203.128 154.248 202.118 153.589 201.392C153.207 201.021 152.86 200.616 152.552 200.183C152.995 200.482 153.4 200.833 153.758 201.229C155.588 203.033 157.222 205.026 158.631 207.175C158.949 207.604 159.214 208.07 159.42 208.562Z" fill="#EB996E"/>
<path d="M157.038 212.12C155.946 211.217 154.939 210.214 154.03 209.126C153.241 208.262 152.539 207.469 152.034 206.893C151.746 206.594 151.478 206.278 151.23 205.946C151.33 205.834 152.709 207.167 154.277 208.902C155.266 209.914 156.188 210.989 157.038 212.12Z" fill="#EB996E"/>
<g opacity="0.3">
<path opacity="0.3" d="M168.891 233.29C168.891 233.29 181.721 265.193 190.71 271.44C199.698 277.686 210.884 275.781 216.868 270.183C216.868 270.183 208.779 277.491 199.972 270.809C191.166 264.128 168.891 233.29 168.891 233.29Z" fill="black"/>
</g>
<g opacity="0.3">
<g opacity="0.3">
<path opacity="0.3" d="M190.836 196.952C190.089 203.305 191.815 209.052 191.321 215.38C191.129 217.807 190.809 220.274 191.315 222.655C192.266 227.13 196.615 231.569 200.083 234.549C197.601 222.261 194.466 208.953 190.835 196.952" fill="black"/>
</g>
</g>
<path d="M190.53 267.137C190.262 267.277 189.958 267.336 189.656 267.306C189.355 267.276 189.069 267.158 188.833 266.968C188.597 266.777 188.422 266.522 188.33 266.234C188.237 265.945 188.23 265.636 188.311 265.344C188.391 265.052 188.556 264.79 188.783 264.59C189.011 264.389 189.292 264.26 189.592 264.217C189.892 264.175 190.197 264.22 190.472 264.349C190.746 264.478 190.977 264.684 191.136 264.942C191.346 265.313 191.4 265.753 191.287 266.165C191.173 266.576 190.901 266.926 190.53 267.137Z" fill="#263238"/>
<path d="M179.142 252.902C178.915 253.037 178.654 253.105 178.39 253.097C178.126 253.09 177.87 253.008 177.65 252.861C177.431 252.713 177.258 252.506 177.152 252.264C177.046 252.023 177.01 251.756 177.05 251.494C177.09 251.233 177.203 250.988 177.376 250.789C177.549 250.59 177.775 250.443 178.028 250.368C178.281 250.292 178.551 250.289 178.805 250.361C179.06 250.432 179.289 250.574 179.465 250.77C179.701 251.097 179.799 251.504 179.739 251.902C179.678 252.301 179.464 252.659 179.142 252.902Z" fill="#263238"/>
<path d="M207.261 168.685C205.982 167.566 204.391 166.867 202.701 166.682C194.693 165.492 185.504 170.546 187.958 184.065L194.645 212.193L200.085 234.549L188.195 223.545L167.528 231.435C167.528 231.435 190.469 262.876 197.846 269.147C205.224 275.419 210.435 274.126 216.869 270.183C216.869 270.183 224.78 266.576 224.714 243.928C224.657 224.377 220.386 181.485 207.261 168.685Z" fill="#D2DC02"/>
<path d="M221.485 264.161C221.485 264.161 221.437 264.289 221.329 264.527L220.839 265.59C219.051 269.097 215.992 271.79 212.286 273.118C210.879 273.631 209.393 273.895 207.896 273.898C206.21 273.868 204.551 273.475 203.032 272.746C199.827 271.257 196.855 268.677 194.129 265.6C191.357 262.549 188.566 259.144 185.671 255.528C179.892 248.286 173.732 240.164 167.391 231.528L167.263 231.353L167.468 231.275L168.435 230.905L188.136 223.391L188.228 223.355L188.302 223.423L200.182 234.436L199.94 234.578C198.504 228.603 197.188 223.116 196.015 218.244L192.917 205.633C192.061 202.14 191.388 199.387 190.924 197.496C190.701 196.563 190.53 195.846 190.412 195.346L190.284 194.793C190.267 194.731 190.255 194.668 190.249 194.604C190.273 194.663 190.292 194.725 190.307 194.787C190.343 194.921 190.392 195.101 190.456 195.335L191.013 197.474L193.085 205.591C193.964 209.087 195.063 213.321 196.25 218.187C197.436 223.053 198.771 228.539 200.226 234.507L200.34 234.978L199.984 234.649L188.084 223.656L188.25 223.688L168.555 231.214L167.587 231.583L167.662 231.327C173.998 239.956 180.15 248.082 185.912 255.327C188.798 258.946 191.58 262.354 194.335 265.405C197.043 268.481 199.976 271.037 203.132 272.523C204.619 273.244 206.244 273.637 207.897 273.675C209.371 273.679 210.836 273.427 212.224 272.93C214.463 272.148 216.489 270.855 218.141 269.154C219.186 268.082 220.074 266.868 220.779 265.547C221.003 265.094 221.175 264.747 221.297 264.5C221.416 264.278 221.485 264.161 221.485 264.161Z" fill="#263238"/>
<path d="M202.965 169.725C202.968 169.785 201.821 169.798 200.024 170.167C198.975 170.386 197.946 170.691 196.947 171.079C195.72 171.526 194.573 172.166 193.548 172.975C192.561 173.825 191.772 174.881 191.235 176.067C190.79 177.041 190.436 178.054 190.175 179.092C189.944 179.98 189.787 180.708 189.673 181.211C189.631 181.476 189.562 181.736 189.465 181.986C189.462 181.718 189.489 181.45 189.546 181.187C189.62 180.675 189.742 179.939 189.946 179.036C190.178 177.972 190.517 176.934 190.956 175.937C191.498 174.7 192.311 173.6 193.335 172.719C194.387 171.886 195.571 171.235 196.838 170.792C197.857 170.411 198.909 170.125 199.98 169.935C200.701 169.807 201.429 169.729 202.161 169.701C202.429 169.675 202.699 169.683 202.965 169.725Z" fill="#263238"/>
<path d="M216.489 241.261C216.13 240.357 215.667 239.498 215.11 238.701C213.671 236.839 211.691 235.468 209.442 234.775C207.181 234.12 204.818 233.893 202.474 234.105C201.572 234.169 200.842 234.254 200.338 234.314C200.078 234.363 199.814 234.384 199.55 234.378C199.798 234.285 200.055 234.221 200.318 234.186C200.818 234.087 201.546 233.966 202.454 233.871C204.832 233.585 207.244 233.784 209.543 234.455C211.858 235.162 213.88 236.603 215.303 238.561C215.722 239.155 216.056 239.804 216.297 240.49C216.397 240.737 216.461 240.997 216.489 241.261Z" fill="#263238"/>
<path d="M206.606 243.857C206.552 243.873 206.354 243.22 205.915 242.221C204.77 239.607 202.98 237.328 200.712 235.597C199.846 234.933 199.259 234.586 199.287 234.538C199.848 234.749 200.375 235.042 200.851 235.406C203.246 237.068 205.085 239.411 206.133 242.131C206.374 242.68 206.533 243.262 206.606 243.857Z" fill="#263238"/>
<path d="M192.981 187.503C192.655 187.409 192.366 187.219 192.149 186.959C191.932 186.699 191.797 186.38 191.762 186.043C191.727 185.706 191.793 185.367 191.952 185.067C192.111 184.768 192.356 184.523 192.654 184.364C192.953 184.204 193.293 184.137 193.63 184.171C193.967 184.206 194.286 184.34 194.546 184.556C194.807 184.772 194.997 185.062 195.093 185.387C195.188 185.712 195.184 186.058 195.082 186.381C194.952 186.808 194.658 187.167 194.264 187.377C193.87 187.588 193.408 187.633 192.981 187.503Z" fill="#263238"/>
<path d="M209.42 188.515C209.114 188.745 208.744 188.877 208.361 188.892C207.978 188.908 207.599 188.806 207.275 188.601C206.951 188.397 206.697 188.098 206.546 187.745C206.396 187.392 206.356 187.002 206.432 186.626C206.509 186.251 206.698 185.907 206.974 185.641C207.251 185.375 207.601 185.2 207.98 185.138C208.358 185.076 208.747 185.13 209.093 185.294C209.44 185.458 209.729 185.724 209.921 186.056C210.179 186.449 210.271 186.928 210.178 187.388C210.084 187.849 209.812 188.254 209.42 188.515Z" fill="#263238"/>
<path d="M202.232 201.53C201.313 201.466 200.636 200.49 200.718 199.354C200.8 198.217 201.61 197.354 202.528 197.419C203.447 197.485 204.124 198.459 204.042 199.595C203.96 200.732 203.149 201.594 202.232 201.53Z" fill="#263238"/>
<path d="M214.486 207.189C214.195 207.33 213.867 207.382 213.546 207.338C213.225 207.295 212.924 207.157 212.681 206.942C212.438 206.727 212.264 206.446 212.18 206.132C212.097 205.819 212.108 205.488 212.212 205.181C212.317 204.874 212.509 204.604 212.766 204.407C213.023 204.209 213.333 204.091 213.656 204.069C213.98 204.047 214.303 204.121 214.584 204.282C214.866 204.442 215.094 204.683 215.239 204.973C215.335 205.168 215.392 205.38 215.406 205.596C215.42 205.813 215.392 206.031 215.322 206.237C215.252 206.443 215.142 206.633 214.999 206.796C214.855 206.959 214.681 207.093 214.486 207.189Z" fill="#263238"/>
<path d="M201.873 218.113C201.647 218.382 201.345 218.577 201.007 218.673C200.669 218.768 200.31 218.761 199.976 218.65C199.643 218.54 199.35 218.332 199.136 218.054C198.922 217.775 198.796 217.439 198.775 217.088C198.753 216.738 198.838 216.389 199.017 216.086C199.196 215.784 199.462 215.543 199.78 215.393C200.098 215.243 200.453 215.192 200.8 215.247C201.147 215.301 201.47 215.458 201.727 215.698C202.066 215.999 202.272 216.422 202.299 216.875C202.327 217.328 202.173 217.773 201.873 218.113Z" fill="#263238"/>
<path d="M212.645 223.757C212.909 223.933 213.114 224.184 213.236 224.476C213.358 224.769 213.391 225.091 213.331 225.402C213.271 225.714 213.121 226 212.899 226.227C212.677 226.453 212.393 226.609 212.083 226.675C211.773 226.742 211.45 226.715 211.155 226.599C210.86 226.483 210.606 226.283 210.424 226.023C210.242 225.764 210.141 225.456 210.132 225.139C210.124 224.822 210.209 224.51 210.377 224.241C210.494 224.06 210.646 223.904 210.823 223.782C211.001 223.66 211.2 223.574 211.411 223.529C211.622 223.484 211.839 223.481 212.051 223.52C212.263 223.559 212.465 223.64 212.645 223.757Z" fill="#263238"/>
<path d="M219.99 235.917C219.728 235.883 219.48 235.775 219.276 235.606C219.072 235.437 218.921 235.213 218.839 234.961C218.758 234.709 218.75 234.439 218.816 234.183C218.882 233.926 219.019 233.694 219.212 233.513C219.405 233.331 219.646 233.209 219.906 233.159C220.166 233.109 220.435 233.134 220.681 233.231C220.927 233.328 221.141 233.494 221.297 233.708C221.453 233.921 221.545 234.175 221.563 234.44C221.546 234.843 221.372 235.223 221.078 235.499C220.784 235.775 220.394 235.925 219.99 235.917Z" fill="#263238"/>
<path d="M211.449 245.987C211.174 245.917 210.924 245.77 210.731 245.562C210.538 245.355 210.408 245.096 210.358 244.817C210.308 244.538 210.34 244.25 210.449 243.988C210.558 243.726 210.741 243.501 210.974 243.341C211.208 243.18 211.483 243.09 211.767 243.081C212.05 243.073 212.33 243.146 212.573 243.293C212.816 243.439 213.012 243.653 213.136 243.908C213.261 244.162 213.31 244.448 213.276 244.729C213.199 245.138 212.964 245.499 212.622 245.735C212.279 245.971 211.858 246.061 211.449 245.987Z" fill="#263238"/>
<path d="M205.903 254.641C205.643 254.88 205.316 255.035 204.967 255.086C204.617 255.138 204.26 255.083 203.942 254.929C203.624 254.775 203.359 254.53 203.183 254.224C203.006 253.918 202.925 253.566 202.95 253.214C202.975 252.861 203.106 252.525 203.324 252.247C203.543 251.97 203.84 251.764 204.177 251.657C204.514 251.551 204.875 251.547 205.213 251.648C205.552 251.749 205.853 251.949 206.076 252.222C206.374 252.566 206.523 253.014 206.49 253.467C206.458 253.921 206.246 254.343 205.903 254.641Z" fill="#263238"/>
<path d="M204.877 265.171C205.283 265.122 205.694 265.199 206.055 265.391C206.416 265.584 206.709 265.882 206.895 266.247C207.081 266.611 207.15 267.024 207.093 267.429C207.037 267.834 206.857 268.212 206.579 268.511C206.3 268.811 205.937 269.018 205.537 269.104C205.137 269.19 204.721 269.152 204.344 268.993C203.967 268.835 203.647 268.565 203.429 268.219C203.21 267.873 203.103 267.469 203.122 267.06C203.108 266.578 203.284 266.109 203.612 265.756C203.941 265.402 204.395 265.192 204.877 265.171Z" fill="#263238"/>
<path d="M192.468 250.604C192.462 250.829 192.402 251.049 192.292 251.245C192.182 251.442 192.026 251.608 191.837 251.73C191.611 251.861 191.36 251.942 191.1 251.968C190.841 251.995 190.579 251.966 190.331 251.883C190.084 251.801 189.856 251.667 189.665 251.49C189.473 251.313 189.321 251.097 189.219 250.857C189.141 250.646 189.115 250.419 189.145 250.196C189.175 249.973 189.258 249.76 189.389 249.577C189.638 249.23 189.981 248.961 190.378 248.804C190.531 248.723 190.7 248.673 190.873 248.658C191.046 248.644 191.22 248.664 191.385 248.719C191.55 248.774 191.702 248.862 191.832 248.978C191.961 249.093 192.066 249.234 192.14 249.391C192.364 249.756 192.478 250.177 192.468 250.604Z" fill="#263238"/>
<path d="M196.572 241.883C196.346 241.764 196.158 241.582 196.029 241.361C195.901 241.139 195.838 240.885 195.848 240.629C195.857 240.373 195.939 240.124 196.083 239.913C196.227 239.701 196.428 239.534 196.663 239.431C196.898 239.329 197.157 239.294 197.411 239.332C197.664 239.37 197.902 239.479 198.096 239.646C198.29 239.813 198.434 240.032 198.51 240.277C198.585 240.521 198.591 240.783 198.524 241.03C198.375 241.399 198.087 241.694 197.722 241.854C197.357 242.013 196.945 242.024 196.572 241.883Z" fill="#263238"/>
<path d="M182.891 236.582C182.784 236.787 182.628 236.963 182.436 237.093C182.245 237.222 182.024 237.302 181.793 237.324C181.226 237.366 180.663 237.196 180.214 236.846C179.765 236.497 179.461 235.994 179.361 235.434C179.326 235.206 179.348 234.972 179.426 234.754C179.505 234.536 179.636 234.342 179.809 234.188C180.164 233.924 180.596 233.784 181.038 233.789C181.48 233.794 181.909 233.944 182.258 234.215C182.607 234.487 182.858 234.865 182.971 235.292C183.085 235.72 183.056 236.173 182.888 236.582H182.891Z" fill="#263238"/>
<path d="M218.542 256.766C218.761 256.887 218.941 257.067 219.063 257.285C219.185 257.503 219.243 257.752 219.23 258.001C219.211 258.706 218.974 259.387 218.551 259.95C218.128 260.514 217.541 260.933 216.87 261.148C216.634 261.23 216.379 261.243 216.136 261.188C215.892 261.132 215.669 261.009 215.491 260.833C215.346 260.645 215.245 260.427 215.194 260.194C215.143 259.962 215.145 259.721 215.199 259.489C215.309 258.932 215.544 258.407 215.884 257.953C216.225 257.499 216.663 257.127 217.167 256.865C217.374 256.747 217.605 256.677 217.843 256.66C218.081 256.643 218.32 256.679 218.542 256.766Z" fill="#263238"/>
<path d="M136.845 160.914C136.845 160.914 118.183 161.943 116.084 180.562C114.721 192.658 103.679 240.253 108.954 246.464C114.394 252.869 126.161 260.337 134.266 248.728C142.371 237.119 150.337 193.069 150.337 193.069L132.353 183.807L136.845 160.914Z" fill="#D2DC02"/>
<path d="M136.484 173.264C136.484 173.264 131.212 165.456 131.114 163.876C131.015 162.297 131.212 158.943 131.706 158.844C131.706 158.844 131.212 157.564 131.804 156.871C132.396 156.178 133.679 154.996 133.679 154.996C133.679 154.996 133.284 153.023 134.074 152.529C134.863 152.036 140.09 147.596 140.09 147.596C140.09 147.596 142.26 143.156 143.444 143.057C144.628 142.959 146.701 142.86 147.49 143.452C148.279 144.044 151.634 146.895 151.634 146.895C151.634 146.895 152.722 146.885 153.213 146.895C153.704 146.904 155.284 149.866 155.284 149.866C155.284 149.866 156.962 150.063 157.357 150.954C157.752 151.844 156.568 162.893 156.568 162.893L152.623 175.418L149.404 192.779L133.206 184.065L136.484 173.264Z" fill="#FFBE9D"/>
<path d="M136.484 173.264C136.475 173.326 136.46 173.386 136.441 173.446C136.403 173.579 136.354 173.757 136.29 173.986C136.146 174.478 135.94 175.184 135.674 176.098C135.12 177.963 134.315 180.67 133.296 184.094L133.251 183.983L149.468 192.655L149.263 192.754C150.233 187.49 151.311 181.632 152.463 175.391V175.381L152.466 175.371C153.726 171.365 155.048 167.162 156.407 162.84L156.401 162.872C156.489 161.998 156.584 161.057 156.679 160.112C156.871 158.134 157.045 156.176 157.172 154.243C157.227 153.28 157.295 152.31 157.254 151.378C157.249 151.167 157.179 150.962 157.055 150.791C156.931 150.619 156.758 150.49 156.559 150.418C156.152 150.219 155.715 150.087 155.265 150.029L155.179 150.016L155.139 149.943C154.73 149.17 154.279 148.42 153.788 147.697C153.67 147.525 153.538 147.362 153.395 147.21C153.365 147.174 153.33 147.143 153.292 147.115C153.271 147.094 153.245 147.077 153.217 147.067C153.12 147.056 153.022 147.052 152.924 147.057H151.58L151.535 147.019L148.455 144.455L147.699 143.826C147.481 143.606 147.214 143.443 146.919 143.349C146.311 143.192 145.685 143.121 145.057 143.137C144.742 143.137 144.428 143.146 144.115 143.165C143.822 143.158 143.529 143.197 143.249 143.282C142.762 143.628 142.348 144.065 142.029 144.569C141.356 145.556 140.752 146.589 140.224 147.66L140.21 147.688L140.187 147.707C138.749 148.92 137.359 150.078 136.018 151.18C135.355 151.721 134.662 152.278 134.027 152.738C133.807 153.05 133.696 153.426 133.712 153.807C133.702 154.198 133.732 154.589 133.802 154.973L133.814 155.042L133.765 155.088C133.158 155.652 132.57 156.21 132.042 156.781C131.462 157.297 131.598 158.155 131.811 158.806L131.855 158.942L131.727 158.954C131.69 158.954 131.594 159.126 131.559 159.256C131.514 159.398 131.477 159.543 131.449 159.69C131.388 159.984 131.35 160.281 131.316 160.575C131.252 161.162 131.216 161.738 131.198 162.298C131.174 162.838 131.18 163.379 131.216 163.919C131.328 164.405 131.503 164.875 131.736 165.317C132.616 167.073 133.514 168.505 134.227 169.677C134.953 170.829 135.516 171.725 135.906 172.341L136.343 173.027C136.395 173.103 136.442 173.183 136.483 173.265C136.422 173.196 136.366 173.122 136.316 173.044L135.854 172.375C135.452 171.782 134.863 170.903 134.126 169.741C133.39 168.578 132.483 167.156 131.582 165.393C131.334 164.935 131.149 164.444 131.033 163.936C130.991 163.389 130.981 162.84 131.001 162.292C131.016 161.728 131.047 161.147 131.109 160.552C131.141 160.255 131.179 159.953 131.237 159.648C131.266 159.492 131.304 159.339 131.352 159.188C131.377 159.107 131.409 159.03 131.447 158.955C131.469 158.904 131.501 158.858 131.541 158.82C131.582 158.783 131.63 158.755 131.683 158.737L131.602 158.885C131.467 158.518 131.399 158.13 131.401 157.739C131.396 157.531 131.435 157.324 131.515 157.132C131.596 156.94 131.715 156.767 131.866 156.625C132.402 156.039 132.986 155.479 133.594 154.907L133.557 155.021C133.482 154.618 133.448 154.208 133.457 153.798C133.439 153.355 133.573 152.918 133.837 152.561C134.536 152.039 135.168 151.531 135.845 150.973C137.182 149.871 138.565 148.705 139.998 147.488L139.962 147.534C140.495 146.447 141.103 145.399 141.783 144.398C142.126 143.851 142.578 143.38 143.109 143.014C143.426 142.906 143.76 142.854 144.094 142.862C144.414 142.844 144.734 142.833 145.054 142.832C145.714 142.813 146.372 142.888 147.011 143.054C147.179 143.105 147.341 143.177 147.491 143.268C147.629 143.363 147.76 143.467 147.885 143.578L148.645 144.207L151.74 146.775L151.635 146.737H152.932C153.05 146.731 153.168 146.736 153.284 146.753C153.361 146.771 153.432 146.808 153.49 146.86C153.54 146.896 153.587 146.938 153.628 146.984C153.784 147.149 153.927 147.326 154.056 147.512C154.556 148.246 155.015 149.007 155.431 149.792L155.303 149.706C155.793 149.769 156.269 149.912 156.711 150.13C156.945 150.246 157.153 150.406 157.324 150.603C157.495 150.816 157.586 151.084 157.58 151.357C157.602 152.328 157.576 153.3 157.5 154.268C157.372 156.208 157.198 158.168 157.008 160.148C156.912 161.094 156.816 162.036 156.729 162.911V162.927L156.723 162.943L152.777 175.469L152.782 175.45L149.542 192.805L149.507 192.997L149.337 192.905L133.161 184.15L133.093 184.113L133.115 184.038L135.573 176.102C135.861 175.192 136.085 174.487 136.238 173.995L136.416 173.453C136.433 173.388 136.456 173.325 136.484 173.264Z" fill="#EB996E"/>
<path d="M154.225 155.105C153.967 155.172 153.697 155.178 153.437 155.123C153.176 155.067 152.932 154.951 152.724 154.785C152.255 154.461 151.851 154.054 151.533 153.582C151.108 153.038 150.748 152.448 150.458 151.822C150.244 151.156 150.172 150.453 150.248 149.757C150.242 149.189 150.335 148.625 150.525 148.09C150.666 147.724 150.911 147.408 151.229 147.179C151.461 147.028 151.613 147.007 151.621 147.025C151.215 147.305 150.908 147.707 150.745 148.173C150.598 148.691 150.533 149.228 150.553 149.766C150.498 150.419 150.57 151.076 150.767 151.702C151.048 152.301 151.387 152.871 151.781 153.403C152.069 153.856 152.432 154.257 152.854 154.589C153.261 154.873 153.733 155.05 154.225 155.105Z" fill="#EB996E"/>
<path d="M155.834 161.613C155.391 161.592 154.957 161.486 154.554 161.302C154.098 161.135 153.668 160.907 153.274 160.624C152.782 160.271 152.382 159.806 152.107 159.267C151.643 158.282 151.498 157.178 151.69 156.107C151.727 155.665 151.847 155.235 152.043 154.838C152.033 155.272 151.993 155.705 151.924 156.134C151.808 157.153 151.974 158.184 152.404 159.115C152.905 160.007 153.695 160.701 154.644 161.084C155.051 161.235 155.449 161.411 155.834 161.613Z" fill="#EB996E"/>
<path d="M150.871 172.154C149.447 169.474 147.46 167.134 145.047 165.295C145.468 165.458 145.86 165.69 146.206 165.979C147.966 167.268 149.397 168.954 150.384 170.899C150.613 171.288 150.777 171.712 150.871 172.154Z" fill="#EB996E"/>
<path d="M151.779 170.546C151.723 170.555 151.665 170.081 151.345 169.407C150.912 168.535 150.29 167.772 149.524 167.172C148.744 166.576 147.908 166.058 147.028 165.622C146.647 165.461 146.287 165.252 145.957 165.002C146.366 165.08 146.761 165.217 147.13 165.409C148.061 165.792 148.937 166.297 149.734 166.913C150.542 167.54 151.172 168.368 151.562 169.314C151.747 169.697 151.822 170.123 151.779 170.546Z" fill="#EB996E"/>
<path d="M149.405 175.653C149.436 175.674 149.255 176.037 148.783 176.478C148.158 177.054 147.377 177.435 146.538 177.573C145.699 177.712 144.838 177.602 144.061 177.258C143.471 176.991 143.184 176.706 143.207 176.676C143.526 176.781 143.84 176.902 144.146 177.038C144.896 177.303 145.7 177.374 146.484 177.244C147.268 177.115 148.006 176.789 148.631 176.298C149.117 175.924 149.361 175.62 149.405 175.653Z" fill="#EB996E"/>
<path d="M139.607 148.068C140.382 147.471 141.212 146.95 142.086 146.513C142.483 146.298 142.927 146.188 143.377 146.191C143.828 146.194 144.271 146.311 144.664 146.53C146.714 147.387 148.568 148.651 150.114 150.246C150.639 150.73 151.042 151.332 151.289 152.002C151.42 152.53 151.467 153.075 151.429 153.618C151.408 154.886 151.386 156.155 151.365 157.423C151.387 157.871 151.318 158.32 151.163 158.742C151.037 158.976 150.858 159.179 150.642 159.334C150.425 159.49 150.176 159.593 149.913 159.637C149.65 159.681 149.381 159.664 149.126 159.587C148.87 159.511 148.636 159.377 148.441 159.195" fill="#FFBE9D"/>
<path d="M148.44 159.195C148.689 159.383 148.979 159.511 149.285 159.569C149.642 159.621 150.007 159.566 150.333 159.412C150.546 159.318 150.734 159.174 150.879 158.992C151.024 158.809 151.122 158.594 151.165 158.365C151.238 157.777 151.264 157.185 151.242 156.593C151.249 155.941 151.256 155.249 151.263 154.523C151.306 153.775 151.283 153.024 151.194 152.279C150.976 151.517 150.544 150.835 149.948 150.312C148.37 148.7 146.48 147.427 144.394 146.57C143.873 146.314 143.278 146.256 142.718 146.406C141.9 146.674 141.129 147.068 140.433 147.574C140.178 147.768 139.902 147.933 139.61 148.068C139.845 147.85 140.095 147.649 140.358 147.468C141.042 146.908 141.819 146.472 142.652 146.18C142.942 146.085 143.249 146.049 143.553 146.074C143.876 146.11 144.192 146.19 144.494 146.312C145.143 146.564 145.775 146.859 146.385 147.195C147.788 147.963 149.069 148.935 150.187 150.079C150.827 150.646 151.288 151.387 151.513 152.212C151.605 152.981 151.624 153.757 151.57 154.529C151.552 155.254 151.535 155.946 151.519 156.598C151.53 157.207 151.489 157.817 151.395 158.419C151.338 158.678 151.218 158.92 151.047 159.123C150.876 159.325 150.657 159.483 150.411 159.582C150.049 159.737 149.649 159.777 149.263 159.697C149.023 159.649 148.797 159.541 148.608 159.385C148.482 159.274 148.433 159.201 148.44 159.195Z" fill="#EB996E"/>
<path d="M144.467 162.863C144.923 163.328 145.512 163.638 146.153 163.752C146.793 163.865 147.453 163.775 148.04 163.494C148.141 162.217 148.243 160.941 148.345 159.665C148.44 159.025 148.402 158.373 148.233 157.75C148.057 157.315 147.816 156.91 147.518 156.548C146.458 155.071 145.288 153.677 144.016 152.378C143.537 151.699 142.82 151.226 142.008 151.053C141.196 150.88 140.348 151.019 139.634 151.443C137.239 152.457 135.058 153.916 133.206 155.743" fill="#FFBE9D"/>
<path d="M133.206 155.743C133.197 155.734 133.263 155.656 133.398 155.513C133.532 155.37 133.733 155.165 134.003 154.913C134.771 154.201 135.598 153.555 136.474 152.981C137.078 152.582 137.704 152.217 138.349 151.887C139.086 151.49 139.862 151.168 140.664 150.927C141.122 150.805 141.604 150.8 142.065 150.911C142.535 151.044 142.974 151.27 143.355 151.576C144.116 152.212 144.818 152.914 145.454 153.674C146.158 154.481 146.79 155.306 147.39 156.106C147.702 156.494 147.982 156.907 148.229 157.34C148.447 157.782 148.554 158.27 148.542 158.762C148.444 160.603 148.262 162.189 148.154 163.506L148.149 163.57L148.092 163.596C147.648 163.803 147.162 163.904 146.672 163.892C146.182 163.88 145.702 163.754 145.269 163.525C145.039 163.404 144.827 163.251 144.64 163.072C144.518 162.944 144.462 162.871 144.469 162.865C144.735 163.075 145.021 163.259 145.323 163.415C145.741 163.61 146.197 163.71 146.659 163.707C147.12 163.703 147.575 163.597 147.99 163.395L147.926 163.487C148.001 162.18 148.158 160.552 148.236 158.765C148.243 158.321 148.143 157.882 147.944 157.485C147.702 157.07 147.429 156.675 147.127 156.303C146.526 155.509 145.893 154.692 145.2 153.894C144.577 153.151 143.892 152.463 143.152 151.837C142.806 151.556 142.408 151.346 141.98 151.221C141.569 151.119 141.139 151.122 140.73 151.228C139.948 151.458 139.191 151.762 138.468 152.137C137.827 152.453 137.202 152.802 136.597 153.183C135.718 153.735 134.879 154.346 134.084 155.014C133.804 155.271 133.511 155.515 133.206 155.743Z" fill="#EB996E"/>
<path d="M139.52 162.663C139.573 162.654 139.564 163.064 139.168 163.474C138.683 163.992 138.118 164.428 137.495 164.767C136.639 165.304 135.643 165.571 134.634 165.535C135.559 165.249 136.461 164.895 137.334 164.477C137.93 164.147 138.489 163.756 139.002 163.309C139.206 163.12 139.38 162.903 139.52 162.663Z" fill="#EB996E"/>
<path d="M138.896 161.362C139.005 161.66 139.194 161.924 139.44 162.124C139.687 162.325 139.983 162.455 140.298 162.502C140.275 162.955 140.353 163.407 140.528 163.825C140.703 164.244 140.969 164.618 141.308 164.92C141.559 165.166 141.888 165.318 142.238 165.35C142.933 165.373 143.441 164.721 143.799 164.125C144.222 163.423 144.611 162.702 144.969 161.963C145.082 161.786 145.159 161.589 145.195 161.382C145.231 161.175 145.226 160.963 145.179 160.758C145.081 160.547 144.938 160.359 144.761 160.209L142.136 157.634C141.726 157.107 141.158 156.725 140.515 156.543C139.872 156.361 139.187 156.389 138.561 156.623C136.118 157.049 133.889 157.606 131.804 158.95" fill="#FFBE9D"/>
<path d="M131.8 158.95C131.794 158.94 131.868 158.881 132.015 158.777C132.162 158.673 132.386 158.529 132.684 158.358C133.531 157.884 134.427 157.503 135.357 157.223C136.735 156.805 138.147 156.506 139.576 156.331C140.012 156.292 140.451 156.347 140.863 156.493C141.278 156.673 141.654 156.931 141.972 157.252L143.921 159.152L144.579 159.798C144.812 160.007 145.026 160.237 145.219 160.483C145.311 160.628 145.369 160.792 145.389 160.963C145.41 161.133 145.392 161.306 145.337 161.469C145.249 161.755 145.127 162.029 144.973 162.287C144.699 162.789 144.433 163.278 144.173 163.753C143.945 164.235 143.637 164.675 143.263 165.054C143.071 165.241 142.835 165.376 142.577 165.448C142.321 165.514 142.052 165.494 141.809 165.393C141.395 165.203 141.04 164.903 140.785 164.526C140.362 163.937 140.158 163.219 140.209 162.497L140.281 162.585C140.04 162.545 139.809 162.457 139.604 162.325C139.398 162.193 139.221 162.02 139.085 161.817C139.015 161.714 138.958 161.602 138.916 161.485C138.891 161.405 138.884 161.362 138.891 161.36C138.909 161.352 138.962 161.517 139.156 161.764C139.44 162.122 139.851 162.356 140.304 162.416L140.38 162.426V162.504C140.361 163.18 140.572 163.843 140.978 164.384C141.214 164.716 141.535 164.979 141.906 165.145C142.108 165.216 142.326 165.225 142.533 165.171C142.74 165.117 142.926 165.002 143.067 164.842C143.414 164.476 143.698 164.056 143.908 163.597C144.159 163.128 144.419 162.643 144.687 162.142C144.95 161.658 145.237 161.083 144.943 160.663C144.76 160.438 144.559 160.227 144.344 160.034L143.684 159.388L141.746 157.489C141.459 157.193 141.119 156.954 140.744 156.785C140.375 156.652 139.982 156.6 139.592 156.633C138.182 156.794 136.788 157.065 135.421 157.444C134.498 157.701 133.601 158.044 132.742 158.468C132.137 158.778 131.815 158.973 131.8 158.95Z" fill="#EB996E"/>
<path d="M139.318 162.804C139.335 162.841 139.139 162.984 138.764 163.065C138.273 163.158 137.767 163.125 137.292 162.971C136.623 162.794 136.015 162.439 135.532 161.943C135.586 161.842 136.373 162.317 137.388 162.652C137.821 162.788 138.275 162.849 138.728 162.832C139.082 162.816 139.299 162.757 139.318 162.804Z" fill="#EB996E"/>
<path d="M108.957 236.387C108.957 236.387 108.951 236.287 108.957 236.093C108.963 235.885 108.972 235.597 108.984 235.227C109.092 234.119 109.314 233.024 109.644 231.96C110.181 230.276 110.874 228.647 111.712 227.091C112.656 225.252 113.905 223.251 115.191 220.993C116.513 218.479 117.635 215.864 118.546 213.173C119.611 210.293 120.669 207.16 122.153 204.013C125.006 197.684 127.887 190.581 130.965 183.089L131.035 182.92L131.197 183.006L135.219 185.141L150.291 193.153L150.404 193.213L150.37 193.336C149.502 196.499 148.684 199.56 147.973 202.507C147.617 203.981 147.289 205.425 146.989 206.841C146.696 208.254 146.413 209.643 146.093 210.977C145.46 213.647 144.801 216.143 144.404 218.507C143.991 220.88 143.466 223.042 142.97 224.996C141.966 228.9 141.038 231.977 140.399 234.084L139.645 236.494C139.559 236.758 139.491 236.961 139.441 237.113C139.421 237.184 139.395 237.253 139.363 237.32C139.374 237.247 139.391 237.175 139.414 237.105L139.592 236.478C139.756 235.912 139.992 235.099 140.296 234.053C140.901 231.935 141.799 228.852 142.774 224.943C143.256 222.989 143.767 220.828 144.166 218.465C144.554 216.086 145.204 213.577 145.826 210.913C146.14 209.579 146.414 208.201 146.704 206.78C146.994 205.359 147.325 203.913 147.678 202.436C148.382 199.481 149.195 196.416 150.059 193.25L150.138 193.434L135.061 185.434L131.039 183.298L131.271 183.215C128.191 190.703 125.296 197.807 122.424 204.134C120.936 207.27 119.874 210.383 118.795 213.265C117.87 215.964 116.73 218.586 115.386 221.103C114.082 223.364 112.826 225.349 111.866 227.174C111.02 228.714 110.315 230.328 109.759 231.995C109.418 233.049 109.179 234.133 109.044 235.232C109.019 235.6 109 235.885 108.985 236.092C108.97 236.287 108.957 236.387 108.957 236.387Z" fill="#263238"/>
<path d="M119.69 238.824C118.817 239.115 117.808 238.447 117.436 237.331C117.064 236.216 117.47 235.076 118.344 234.785C119.217 234.493 120.226 235.162 120.598 236.277C120.97 237.393 120.563 238.532 119.69 238.824Z" fill="#263238"/>
<path d="M128.566 221.847C128.706 222.037 128.791 222.262 128.814 222.497C128.836 222.732 128.795 222.969 128.694 223.182C128.419 223.733 127.946 224.159 127.369 224.374C126.792 224.589 126.156 224.578 125.587 224.342C125.371 224.247 125.185 224.095 125.048 223.903C124.911 223.71 124.828 223.485 124.809 223.249C124.793 222.803 124.936 222.366 125.212 222.015C125.458 221.667 125.803 221.401 126.203 221.251C126.602 221.102 127.038 221.077 127.452 221.179C127.891 221.263 128.285 221.5 128.566 221.847Z" fill="#263238"/>
<path d="M131.538 239.631C131.116 239.685 130.688 239.607 130.312 239.409C129.937 239.21 129.632 238.9 129.439 238.521C129.246 238.143 129.174 237.714 129.235 237.293C129.295 236.872 129.484 236.48 129.775 236.171C130.066 235.862 130.446 235.65 130.862 235.564C131.279 235.479 131.711 235.524 132.101 235.694C132.49 235.864 132.818 236.15 133.039 236.513C133.26 236.876 133.363 237.299 133.335 237.723C133.345 238.213 133.162 238.687 132.826 239.044C132.49 239.401 132.027 239.612 131.538 239.631Z" fill="#263238"/>
<path d="M140.154 210.819C140.325 210.971 140.455 211.163 140.531 211.378C140.608 211.593 140.629 211.824 140.593 212.049C140.54 212.318 140.432 212.572 140.277 212.798C140.122 213.024 139.923 213.216 139.692 213.363C139.461 213.51 139.203 213.609 138.933 213.654C138.663 213.698 138.386 213.688 138.12 213.623C137.901 213.56 137.701 213.443 137.539 213.283C137.377 213.122 137.258 212.923 137.192 212.705C137.074 212.287 137.092 211.842 137.243 211.435C137.347 211.07 137.582 210.755 137.903 210.551C138.223 210.347 138.608 210.268 138.983 210.328C139.416 210.364 139.826 210.536 140.154 210.819Z" fill="#263238"/>
<path d="M131.268 200.856C131.447 201.195 131.518 201.58 131.473 201.961C131.428 202.341 131.268 202.698 131.015 202.986C130.761 203.273 130.427 203.477 130.055 203.569C129.683 203.662 129.292 203.64 128.934 203.505C128.575 203.37 128.266 203.13 128.047 202.816C127.829 202.501 127.711 202.128 127.709 201.745C127.707 201.362 127.822 200.987 128.039 200.671C128.255 200.355 128.562 200.112 128.92 199.974C129.348 199.782 129.836 199.766 130.276 199.932C130.715 200.097 131.072 200.429 131.268 200.856Z" fill="#263238"/>
<path d="M139.885 196.817C139.717 197.014 139.494 197.156 139.244 197.224C138.995 197.292 138.73 197.285 138.485 197.201C137.739 196.979 137.085 196.524 136.618 195.902C136.151 195.279 135.896 194.523 135.892 193.745C135.881 193.487 135.948 193.231 136.083 193.01C136.219 192.79 136.418 192.616 136.654 192.509C136.887 192.448 137.13 192.438 137.368 192.48C137.605 192.521 137.831 192.614 138.029 192.751C139.009 193.362 139.726 194.318 140.038 195.43C140.114 195.659 140.14 195.901 140.113 196.14C140.087 196.38 140.009 196.611 139.885 196.817Z" fill="#263238"/>
<path d="M117.805 205.165C118.117 205.491 118.299 205.92 118.317 206.371C118.356 206.814 118.272 207.259 118.073 207.657C117.874 208.054 117.569 208.389 117.191 208.623C116.819 208.878 116.366 208.989 115.918 208.935C115.682 208.891 115.463 208.782 115.286 208.622C115.108 208.461 114.979 208.254 114.912 208.024C114.74 207.403 114.804 206.741 115.092 206.166C115.38 205.59 115.871 205.142 116.47 204.907C116.695 204.822 116.938 204.801 117.174 204.847C117.41 204.892 117.628 205.002 117.805 205.165Z" fill="#263238"/>
<path d="M120.229 194.664C119.961 194.952 119.612 195.152 119.228 195.237C118.843 195.322 118.442 195.288 118.078 195.138C117.714 194.989 117.404 194.732 117.19 194.402C116.976 194.072 116.868 193.684 116.88 193.291C116.892 192.898 117.024 192.518 117.258 192.201C117.492 191.885 117.817 191.648 118.19 191.521C118.562 191.395 118.965 191.385 119.343 191.493C119.721 191.601 120.057 191.823 120.307 192.127C120.63 192.475 120.804 192.937 120.789 193.411C120.774 193.886 120.573 194.336 120.229 194.664Z" fill="#263238"/>
<path d="M123.718 178.511C124.573 178.171 125.747 179.1 126.342 180.588C126.937 182.076 126.726 183.558 125.869 183.899C125.011 184.241 123.84 183.311 123.245 181.823C122.649 180.335 122.863 178.852 123.718 178.511Z" fill="#263238"/>
<path d="M128.582 171.284C128.69 171.66 128.68 172.059 128.555 172.429C128.43 172.799 128.195 173.122 127.881 173.355C127.568 173.588 127.19 173.72 126.8 173.733C126.41 173.745 126.025 173.639 125.696 173.427C125.368 173.216 125.112 172.909 124.963 172.548C124.813 172.187 124.777 171.79 124.86 171.408C124.942 171.026 125.139 170.679 125.425 170.412C125.71 170.145 126.07 169.971 126.456 169.914C126.919 169.816 127.403 169.905 127.801 170.162C128.199 170.419 128.48 170.822 128.582 171.284Z" fill="#263238"/>
<path d="M188.556 80.3135C187.985 80.3013 187.423 80.1648 186.91 79.9135C187.449 79.7238 188.023 79.6531 188.591 79.7062C189.511 79.6966 190.25 79.8751 190.237 80.1055C190.225 80.3359 189.469 80.4313 188.556 80.3135Z" fill="#263238"/>
<path d="M186.953 83.5135C186.328 82.8377 185.877 82.2252 185.949 82.149C186.021 82.0729 186.659 82.4869 187.37 83.0713C188.081 83.6556 188.532 84.2668 188.374 84.4351C188.216 84.6034 187.578 84.1855 186.953 83.5135Z" fill="#263238"/>
<path d="M183.669 84.9292C183.583 84.3642 183.621 83.7874 183.779 83.2383C184.058 83.7367 184.227 84.2894 184.274 84.8588C184.443 85.7631 184.394 86.5228 184.164 86.549C183.934 86.5753 183.709 85.8482 183.669 84.9292Z" fill="#263238"/>
<path d="M180.241 83.9058C180.799 83.173 181.324 82.6258 181.412 82.6802C181.305 83.2416 181.079 83.7735 180.749 84.2399C180.297 85.0412 179.773 85.5916 179.579 85.4649C179.386 85.3381 179.684 84.6373 180.241 83.9058Z" fill="#263238"/>
<path d="M178.274 80.9222C178.815 80.7387 179.389 80.6732 179.958 80.7301C179.515 81.092 179.001 81.3549 178.449 81.5014C177.588 81.8258 176.833 81.9116 176.765 81.6895C176.698 81.4674 177.377 81.1257 178.274 80.9222Z" fill="#263238"/>
<path d="M178.684 77.3695C179.502 77.7906 180.135 78.2111 180.092 78.3071C179.521 78.2997 178.958 78.1701 178.441 77.9269C177.572 77.6223 176.939 77.2018 177.033 76.9893C177.127 76.7769 177.866 76.9471 178.684 77.3695Z" fill="#263238"/>
<path d="M181.28 74.9093C181.555 75.4102 181.719 75.9644 181.761 76.5343C181.668 76.581 181.209 75.9749 180.737 75.1833C180.264 74.3916 180.05 73.6639 180.256 73.5596C180.462 73.4553 180.923 74.062 181.28 74.9093Z" fill="#263238"/>
<path d="M184.851 74.6943C184.74 75.2547 184.51 75.7847 184.176 76.2482C184.082 75.6847 184.111 75.1077 184.26 74.5561C184.407 73.6479 184.708 72.9503 184.935 73.0028C185.163 73.0553 185.123 73.8156 184.851 74.6943Z" fill="#263238"/>
<path d="M187.725 76.8249C187.28 77.183 186.762 77.4408 186.208 77.5807C186.144 77.4969 186.663 76.9407 187.36 76.3385C188.058 75.7362 188.738 75.3977 188.876 75.5826C189.014 75.7676 188.497 76.3244 187.725 76.8249Z" fill="#263238"/>
<path d="M117.236 109.408C116.667 109.366 116.112 109.22 115.597 108.977C116.142 108.812 116.713 108.75 117.281 108.793C118.201 108.78 118.938 108.973 118.92 109.224C118.902 109.474 118.144 109.556 117.236 109.408Z" fill="#263238"/>
<path d="M115.22 112.367C114.899 111.896 114.666 111.371 114.534 110.817C114.608 110.767 115.145 111.307 115.729 112.018C116.313 112.73 116.625 113.426 116.415 113.569C116.204 113.711 115.671 113.169 115.22 112.367Z" fill="#263238"/>
<path d="M111.651 112.637C111.819 112.093 112.084 111.584 112.434 111.134C112.473 111.702 112.408 112.273 112.242 112.818C112.05 113.718 111.7 114.394 111.458 114.321C111.216 114.247 111.304 113.489 111.651 112.637Z" fill="#263238"/>
<path d="M109.212 110.017C109.743 109.808 110.307 109.698 110.876 109.691C110.456 110.075 109.969 110.378 109.44 110.587C108.617 111 107.87 111.147 107.776 110.913C107.682 110.678 108.33 110.278 109.212 110.017Z" fill="#263238"/>
<path d="M109.738 106.476C110.232 106.76 110.669 107.133 111.029 107.574C110.466 107.485 109.924 107.294 109.429 107.01C108.597 106.626 108.014 106.131 108.139 105.912C108.264 105.693 108.984 105.949 109.738 106.476Z" fill="#263238"/>
<path d="M112.832 104.678C112.918 105.241 112.9 105.815 112.779 106.372C112.498 105.877 112.309 105.335 112.223 104.772C112.004 103.876 112.026 103.117 112.275 103.078C112.523 103.04 112.773 103.76 112.832 104.678Z" fill="#263238"/>
<path d="M116.169 105.973C115.783 106.393 115.324 106.737 114.813 106.991C115.024 106.461 115.33 105.975 115.716 105.556C116.277 104.827 116.886 104.369 117.071 104.539C117.256 104.708 116.849 105.354 116.169 105.973Z" fill="#263238"/>
<path d="M203.306 89.2428C202.75 89.1414 202.205 88.9864 201.679 88.7801C202.236 88.6875 202.801 88.649 203.366 88.6649C204.286 88.6476 205.021 88.8569 204.993 89.1269C204.966 89.397 204.202 89.4501 203.306 89.2428Z" fill="#263238"/>
<path d="M200.881 91.4258C200.807 90.8657 200.785 90.2998 200.817 89.7356C201.076 90.238 201.286 90.7636 201.447 91.3055C201.748 92.1746 201.778 92.9375 201.511 92.9957C201.243 93.054 200.959 92.3455 200.881 91.4258Z" fill="#263238"/>
<path d="M198.053 89.7951C198.563 89.5509 199.094 89.3554 199.641 89.2114C199.244 89.6145 198.81 89.9788 198.344 90.2994C197.611 90.855 196.895 91.1206 196.756 90.8831C196.618 90.6457 197.206 90.1542 198.053 89.7951Z" fill="#263238"/>
<path d="M198.731 86.6028C199.121 87.0116 199.471 87.4572 199.775 87.9334C199.27 87.6811 198.79 87.3811 198.342 87.0374C197.588 86.5106 197.116 85.9116 197.298 85.7068C197.48 85.502 198.127 85.9084 198.731 86.6028Z" fill="#263238"/>
<path d="M201.974 86.2578C201.705 86.7554 201.39 87.2268 201.033 87.6658C201.119 87.1073 201.257 86.5582 201.445 86.0255C201.712 85.1449 202.135 84.5093 202.386 84.6175C202.637 84.7257 202.449 85.47 201.974 86.2578Z" fill="#263238"/>
<path d="M129.61 148.83C129.303 148.878 128.992 148.897 128.681 148.888C128.083 148.901 127.218 148.906 126.148 148.897C124.01 148.88 121.059 148.803 117.8 148.694L109.455 148.394L106.927 148.296C106.617 148.301 106.306 148.277 106 148.224C106.307 148.176 106.618 148.157 106.929 148.167C107.526 148.153 108.392 148.148 109.461 148.157C111.599 148.174 114.551 148.251 117.811 148.36L126.154 148.661L128.682 148.758C128.993 148.753 129.303 148.777 129.61 148.83Z" fill="#263238"/>
<path d="M128.958 145.74C128.922 145.825 125.238 144.351 120.731 142.448C116.224 140.545 112.598 138.933 112.634 138.849C112.67 138.764 116.352 140.237 120.861 142.141C125.37 144.044 128.993 145.658 128.958 145.74Z" fill="#263238"/>
<path d="M129.279 152.294C127.855 153.264 126.37 154.14 124.834 154.918C123.349 155.793 121.81 156.572 120.226 157.249C121.649 156.279 123.134 155.403 124.671 154.625C126.155 153.75 127.695 152.971 129.279 152.294Z" fill="#263238"/>
<g style="mix-blend-mode:multiply">
<path d="M156.424 86.2831C147.159 86.2831 139.306 89.8144 133.406 95.6489C134.042 96.849 135.23 97.7291 136.678 98.286C140.439 99.732 147.67 97.5622 151.286 96.8392C154.902 96.1161 156.825 95.6001 161.287 96.5083C165.749 97.4164 173.415 101.756 178.766 99.4426C178.925 99.3741 179.079 99.2934 179.226 99.2014C179.273 99.1719 179.311 99.1358 179.355 99.1045C179.444 99.0444 179.529 98.9796 179.61 98.9102C179.659 98.8669 179.696 98.8177 179.74 98.7725C179.804 98.709 179.865 98.6422 179.922 98.5724C179.964 98.5181 179.995 98.4583 180.031 98.4015C180.078 98.334 180.122 98.264 180.161 98.1919C180.195 98.1274 180.217 98.0571 180.244 97.9893C180.271 97.9215 180.306 97.8483 180.328 97.7732C180.35 97.6981 180.364 97.6169 180.379 97.5378C180.394 97.4649 180.486 97.3603 180.422 97.3191C178.923 96.3716 177.99 95.8355 177.992 95.7681C172.175 89.0593 166.359 86.2831 156.424 86.2831Z" fill="#99A6DB"/>
</g>
<path d="M155.966 81.6913C155.966 81.6913 138.666 78.1676 133.22 84.5746C127.774 90.9817 130.017 94.9864 134.181 96.588C138.346 98.1897 146.353 95.7863 150.36 94.9846C154.366 94.1828 156.494 93.6107 161.436 94.6201C166.378 95.6296 174.867 100.432 180.794 97.8698C186.72 95.3071 178.551 82.3341 155.966 81.6913Z" fill="#16B3AC"/>
<g style="mix-blend-mode:multiply">
<g style="mix-blend-mode:multiply">
<g style="mix-blend-mode:multiply">
<path d="M171.425 86.458C171.233 86.391 171.049 86.3062 170.873 86.2047C170.699 86.1227 170.498 86.0025 170.254 85.8982L169.427 85.552C169.12 85.4347 168.778 85.3356 168.423 85.2146C168.063 85.1093 167.675 85.0262 167.278 84.9289C166.438 84.7689 165.587 84.6722 164.732 84.6395C163.124 84.6036 161.515 84.6627 159.914 84.8166C158.597 84.9201 157.713 84.9686 157.713 84.9686C157.713 84.9686 156.832 85.0174 155.504 85.0007C154.174 84.969 152.426 84.8768 150.665 84.7091C149.047 84.5848 147.45 84.2656 145.909 83.7583C145.401 83.5822 144.92 83.337 144.48 83.0295C144.36 82.938 144.247 82.8387 144.141 82.7321C144.068 82.6592 144.032 82.6191 144.035 82.6136C144.208 82.717 144.373 82.8311 144.531 82.9551C144.982 83.2253 145.464 83.4398 145.967 83.594C147.508 84.0372 149.093 84.3053 150.694 84.3932C152.437 84.5178 154.203 84.5754 155.508 84.5856C156.817 84.5797 157.691 84.5185 157.691 84.5185C157.691 84.5185 158.566 84.4821 159.886 84.4023C161.504 84.2748 163.128 84.2478 164.749 84.3214C165.618 84.3747 166.481 84.4956 167.332 84.6829C167.732 84.7922 168.125 84.8902 168.487 85.0109C168.844 85.1461 169.187 85.2598 169.492 85.391L170.312 85.7791C170.555 85.8975 170.749 86.0305 170.918 86.1267C171.097 86.2208 171.267 86.3318 171.425 86.458Z" fill="#CFCFCF"/>
</g>
</g>
<g style="mix-blend-mode:multiply">
<g style="mix-blend-mode:multiply">
<path d="M165.658 93.3057C165.82 93.2378 165.993 93.1984 166.168 93.1891C166.496 93.1435 166.97 93.114 167.525 93.0404C167.822 93.0034 168.116 92.9447 168.405 92.8647C168.714 92.7916 168.996 92.6309 169.216 92.4019C169.308 92.274 169.367 92.1245 169.385 91.9676C169.403 91.8108 169.381 91.6519 169.32 91.5061C169.246 91.3577 169.139 91.2278 169.009 91.1256C168.878 91.0235 168.726 90.9518 168.564 90.9158C167.864 90.7555 167.141 90.7213 166.429 90.8148C165.734 90.8782 165.087 90.9857 164.531 91.0798C163.979 91.1832 163.49 91.2346 163.18 91.3086L162.679 91.4096L162.178 91.501C161.858 91.552 161.41 91.6924 160.866 91.8261C159.782 92.1093 158.358 92.5892 156.918 93.0389C155.602 93.4736 154.253 93.8049 152.885 94.0298C152.631 94.0771 152.374 94.1044 152.116 94.1114L151.52 94.145C151.348 94.1644 151.174 94.165 151.002 94.1468C151.169 94.0973 151.341 94.0662 151.514 94.0542L152.101 93.9788C152.355 93.9561 152.608 93.9155 152.857 93.8571C154.202 93.5744 155.526 93.1997 156.819 92.7357C158.241 92.2499 159.659 91.7361 160.755 91.4267C161.305 91.2809 161.754 91.1297 162.084 91.0703L162.599 90.9664L163.117 90.8717C163.452 90.7988 163.903 90.7623 164.465 90.6694C165.027 90.5863 165.686 90.4912 166.401 90.4424C167.159 90.361 167.926 90.4189 168.663 90.6133C168.867 90.6675 169.055 90.7667 169.215 90.9034C169.375 91.0401 169.503 91.211 169.588 91.4034C169.651 91.5995 169.673 91.8065 169.653 92.0116C169.63 92.2166 169.545 92.4096 169.409 92.5644C169.15 92.8233 168.82 92.9998 168.461 93.0717C168.16 93.1428 167.853 93.1905 167.544 93.2142C166.975 93.2623 166.504 93.263 166.175 93.2794C165.847 93.2958 165.663 93.3232 165.658 93.3057Z" fill="#CFCFCF"/>
</g>
</g>
<g style="mix-blend-mode:multiply">
<g style="mix-blend-mode:multiply">
<path d="M164.094 94.3869C164.077 94.5105 162.633 94.446 162.633 94.446C162.633 94.446 161.215 94.2714 161.212 94.1468C161.209 94.0221 162.677 93.9981 162.677 93.9981C162.677 93.9981 164.111 94.2641 164.094 94.3869Z" fill="#CFCFCF"/>
</g>
</g>
<g style="mix-blend-mode:multiply">
<g style="mix-blend-mode:multiply">
<path d="M136.944 91.8643C136.949 91.849 137.148 91.8829 137.503 91.896C137.858 91.9092 138.367 91.9157 138.974 91.8818C139.663 91.8559 140.347 91.7568 141.015 91.5863C141.366 91.5253 141.682 91.3383 141.904 91.0604C141.93 90.9881 141.937 90.9102 141.924 90.8343C141.911 90.7585 141.878 90.6875 141.829 90.6282L141.754 90.521L141.652 90.4398C141.586 90.3787 141.509 90.3294 141.426 90.294C141.073 90.1314 140.697 90.0216 140.312 89.9682C139.924 89.8993 139.534 89.856 139.155 89.8148C138.397 89.7357 137.682 89.669 137.068 89.5706C136.56 89.5053 136.063 89.3724 135.59 89.1756C135.451 89.115 135.318 89.0418 135.192 88.9569C135.146 88.9308 135.103 88.8995 135.064 88.8636L134.946 88.7623C134.832 88.6698 134.727 88.5666 134.632 88.4544C134.263 88.0647 134.022 87.5724 133.939 87.0426C133.851 86.3046 134.003 85.5578 134.373 84.9128C134.77 84.1971 135.286 83.5539 135.898 83.0105C137.011 81.9737 138.367 81.2342 139.842 80.8604C140.328 80.7434 140.832 80.7147 141.329 80.7758C141.468 80.7921 141.604 80.8244 141.736 80.8721C141.827 80.9027 141.874 80.9223 141.872 80.9293C141.865 80.9562 141.671 80.8834 141.319 80.8666C140.835 80.8431 140.35 80.8984 139.883 81.0306C138.467 81.4517 137.174 82.2106 136.116 83.2419C135.547 83.7729 135.07 84.3952 134.705 85.083C134.387 85.6593 134.263 86.3219 134.349 86.9741C134.427 87.4211 134.64 87.8337 134.958 88.1566C135.077 88.2841 135.206 88.402 135.343 88.509C135.475 88.6148 135.62 88.7034 135.775 88.7729C136.21 88.9613 136.669 89.0914 137.139 89.1599C137.731 89.2692 138.438 89.3469 139.199 89.442C139.58 89.4919 139.975 89.5444 140.376 89.6242C140.794 89.6926 141.199 89.8232 141.579 90.0116C141.681 90.0603 141.776 90.125 141.859 90.2033L141.99 90.3206L142.087 90.4664C142.16 90.5688 142.206 90.6884 142.219 90.8137C142.232 90.9389 142.213 91.0654 142.163 91.181C142.047 91.3809 141.869 91.5374 141.655 91.6267C141.472 91.7136 141.28 91.7809 141.082 91.8275C140.393 91.982 139.688 92.0584 138.982 92.0553C137.748 92.0775 136.933 91.9103 136.944 91.8643Z" fill="#CFCFCF"/>
</g>
</g>
<g style="mix-blend-mode:multiply">
<g style="mix-blend-mode:multiply">
<path d="M179.231 90.903C179.337 91.1919 179.405 91.4935 179.432 91.8002C179.514 92.4781 179.486 93.1647 179.349 93.8337C179.208 94.513 178.934 95.1573 178.54 95.7287C178.412 95.9191 178.269 96.0992 178.113 96.2674C178.059 96.336 178 96.4002 177.935 96.459L177.736 96.6263C177.566 96.7794 177.382 96.9158 177.186 97.0337C176.61 97.4077 175.974 97.6815 175.306 97.8435C174.648 98.0092 173.973 98.09 173.295 98.084C172.988 98.0921 172.682 98.0611 172.384 97.9918C172.682 97.933 172.985 97.9053 173.289 97.9091C173.943 97.8551 174.59 97.7304 175.218 97.537C175.839 97.3506 176.425 97.0647 176.954 96.6905C177.13 96.5746 177.295 96.4424 177.446 96.2954L177.624 96.1354C177.684 96.0832 177.741 96.0263 177.792 95.9652C177.942 95.8167 178.079 95.6568 178.204 95.4871C178.591 94.9706 178.875 94.384 179.039 93.7597C179.203 93.1246 179.277 92.4694 179.258 91.8137C179.219 91.5118 179.209 91.2067 179.231 90.903Z" fill="#CFCFCF"/>
</g>
</g>
</g>
<path d="M157.4 81.7594C154.83 82.641 155.596 84.5757 156.206 84.5757C157.167 84.5757 166.378 84.2554 168.484 85.0094C170.555 85.8174 172.58 86.7386 174.549 87.7688C175.653 88.3078 176.751 88.8567 177.839 89.4248C180.233 90.6755 179.501 93.408 178.551 95.3078C177.749 96.9095 174.626 97.9506 173.425 97.5505C172.224 97.1504 165.176 95.8683 164.215 94.9073C163.254 93.9463 163.895 93.3854 166.166 93.189C168.437 92.9926 169.821 92.5046 168.86 91.1435C167.899 89.7823 160.05 92.1045 157.968 92.7451C154.341 93.6977 150.646 94.3671 146.916 94.7473C143.792 94.9875 137.385 95.8683 135.943 93.7863C134.502 91.7043 138.426 92.6646 141.08 91.8293C143.733 90.994 141.31 90.1019 139.788 89.7816C138.266 89.4613 134.181 90.3424 134.103 86.2576C134.057 83.9387 136.31 82.4722 138.265 81.6373C136.214 82.2281 134.427 83.1581 133.221 84.5765C127.775 90.9835 130.018 94.9882 134.182 96.5899C138.347 98.1915 146.354 95.7881 150.36 94.9864C154.367 94.1846 156.495 93.6125 161.437 94.6219C166.379 95.6314 174.868 100.434 180.795 97.8716C186.592 95.3636 178.888 82.8972 157.4 81.7594Z" fill="#16B3AC"/>
<path d="M163.111 78H150.062V84.1476H163.111V78Z" fill="#E0E0E0"/>
<path d="M163.111 78H150.062V79.6312H163.111V78Z" fill="#979797"/>
<path d="M139.587 82.6136C139.587 82.6136 134.541 85.497 137.785 87.2991C141.029 89.1012 146.313 89.7018 145.113 91.0232C143.913 92.3446 139.947 92.7051 141.749 93.5462C143.551 94.3873 151.912 91.4849 159.324 90.5334C166.737 89.5819 170.822 89.7018 171.182 91.2623C171.543 92.8228 166.257 94.0254 167.578 94.5057C168.899 94.986 175.507 94.7459 175.747 91.9828C175.987 89.2197 170.101 85.3753 164.695 85.856C159.288 86.3367 145.473 85.3767 139.587 82.6136Z" fill="#16B3AC"/>
<g style="mix-blend-mode:multiply">
<path d="M163.111 78H156.527V84.1476H163.111V78Z" fill="#D7D7D7"/>
</g>
</g>
<defs>
<clipPath id="clip0">
<rect width="320" height="320" fill="white"/>
</clipPath>
</defs>
</svg>
